<?xml version="1.0" encoding="UTF-8"?>
<!-- Generator: https://ezgif.com/png-to-svg -->
<svg version="1.1" xmlns="http://www.w3.org/2000/svg" width="683" height="683">
<path d="M0 0 C2.95 1.99 5.49 4.35 8.06 6.8 C8.9 7.59 8.9 7.59 9.76 8.39 C14.01 12.41 18.16 16.53 22.24 20.73 C24.16 22.6 26.08 24.32 28.12 26.05 C34.12 31.29 39.69 36.98 45.32 42.61 C46.52 43.82 47.73 45.02 48.93 46.22 C51.44 48.74 53.96 51.25 56.47 53.76 C59.67 56.97 62.87 60.17 66.08 63.37 C68.56 65.85 71.04 68.34 73.53 70.82 C74.71 72 75.89 73.18 77.07 74.36 C87.41 84.68 87.41 84.68 91.11 89.04 C96.17 94.95 101.8 100.34 107.31 105.82 C109.44 107.93 111.57 110.06 113.7 112.18 C118.21 116.68 122.73 121.18 127.25 125.68 C132.49 130.9 137.73 136.11 142.97 141.34 C145.05 143.42 147.14 145.49 149.23 147.57 C160.64 158.94 160.64 158.94 165.51 164.71 C167.25 166.77 169.17 168.63 171.12 170.49 C180.72 180 192.8 192.03 192.94 206.3 C192.77 219.06 189.44 229.77 180.75 239.18 C171.55 248 161.88 250.8 149.38 250.65 C133.16 250.01 123.57 240.31 112.64 229.3 C111.66 228.32 110.69 227.34 109.71 226.37 C107.08 223.74 104.46 221.11 101.85 218.48 C99.1 215.72 96.35 212.96 93.59 210.21 C88.39 205 83.2 199.79 78.01 194.58 C72.09 188.64 66.17 182.71 60.25 176.78 C48.08 164.58 35.91 152.38 23.75 140.18 C22.91 183.46 22.62 226.74 22.48 270.03 C22.47 272.12 22.46 274.21 22.45 276.3 C22.37 300.74 22.3 325.18 22.22 349.62 C22.21 352.59 22.21 355.55 22.2 358.52 C22.2 359.25 22.19 359.99 22.19 360.74 C22.15 372.98 22.11 385.23 22.07 397.47 C22.05 404.28 22.03 411.09 22.01 417.9 C21.99 424.26 21.97 430.61 21.95 436.96 C21.94 439.28 21.94 441.6 21.93 443.92 C21.87 477.36 21.87 477.36 16.62 485.12 C16.21 485.75 15.81 486.39 15.38 487.04 C12.36 491.6 9.4 495.23 4.75 498.18 C3.94 498.8 3.14 499.43 2.3 500.08 C-5.3 505.21 -11.92 505.83 -20.94 505.87 C-21.99 505.87 -23.05 505.88 -24.14 505.89 C-37.96 505.57 -45.66 499.93 -55.07 490.32 C-61.17 483.64 -63.84 477.14 -63.99 468.14 C-64.02 467.24 -64.04 466.34 -64.07 465.42 C-64.16 462.34 -64.21 459.26 -64.25 456.18 C-64.27 454.5 -64.27 454.5 -64.3 452.78 C-64.41 444.19 -64.44 435.61 -64.45 427.02 C-64.46 423.16 -64.47 419.3 -64.49 415.44 C-64.51 408.77 -64.53 402.1 -64.54 395.44 C-64.56 385.8 -64.59 376.16 -64.62 366.52 C-64.67 350.87 -64.71 335.23 -64.75 319.58 C-64.79 304.4 -64.83 289.22 -64.88 274.03 C-64.88 272.63 -64.88 272.63 -64.89 271.19 C-64.9 266.48 -64.91 261.77 -64.93 257.07 C-65.04 218.1 -65.15 179.14 -65.25 140.18 C-65.73 140.66 -66.2 141.13 -66.7 141.63 C-78.33 153.28 -89.97 164.93 -101.6 176.58 C-107.23 182.22 -112.86 187.85 -118.49 193.49 C-123.39 198.4 -128.3 203.32 -133.21 208.23 C-135.81 210.83 -138.4 213.43 -141 216.03 C-143.9 218.94 -146.81 221.85 -149.71 224.75 C-150.56 225.61 -151.41 226.46 -152.29 227.34 C-175.4 250.41 -175.4 250.41 -191.24 250.65 C-192.03 250.64 -192.81 250.63 -193.63 250.62 C-194.46 250.61 -195.29 250.6 -196.14 250.59 C-206.99 250.29 -215.47 246.86 -223.25 239.18 C-232.85 228.03 -235.48 216.56 -234.46 202.19 C-233.45 192.64 -227.48 186.06 -221.25 179.18 C-220.75 178.62 -220.25 178.07 -219.74 177.5 C-212.16 169.13 -204.26 161.08 -196.2 153.16 C-195.53 152.5 -194.85 151.83 -194.16 151.15 C-193.57 150.58 -192.99 150 -192.38 149.41 C-190.65 147.6 -189.04 145.76 -187.43 143.86 C-182.01 137.66 -176.13 131.9 -170.31 126.08 C-169.01 124.77 -167.7 123.46 -166.4 122.15 C-162.87 118.61 -159.34 115.07 -155.81 111.54 C-153.6 109.33 -151.39 107.11 -149.18 104.9 C-142.26 97.96 -135.33 91.03 -128.4 84.09 C-120.43 76.11 -112.46 68.12 -104.49 60.13 C-98.32 53.94 -92.14 47.75 -85.96 41.56 C-82.27 37.87 -78.59 34.19 -74.91 30.49 C-71.45 27.01 -67.98 23.54 -64.51 20.08 C-63.24 18.81 -61.98 17.54 -60.72 16.27 C-43.7 -0.87 -23.91 -14.25 0 0 Z " fill="#FFFFFF" transform="translate(362.25048828125,90.822265625)"/>
</svg>
