<svg width="250" height="250" viewBox="0 0 250 250" fill="none" xmlns="http://www.w3.org/2000/svg">
<path d="M56.7 85H115V91.7H56.7C52.5667 91.7 49.0333 93.1667 46.1 96.1C43.1667 99.0333 41.7 102.567 41.7 106.7C41.7 110.833 43.1667 114.367 46.1 117.3C49.0333 120.167 52.5667 121.6 56.7 121.6H93.3C99.3 121.6 104.4 123.733 108.6 128C112.867 132.2 115 137.3 115 143.3C115 149.3 112.867 154.433 108.6 158.7C104.4 162.9 99.3 165 93.3 165H35V158.3H93.3C97.4333 158.3 100.967 156.833 103.9 153.9C106.833 150.967 108.3 147.433 108.3 143.3C108.3 139.167 106.833 135.667 103.9 132.8C100.967 129.867 97.4333 128.4 93.3 128.4H56.7C50.7 128.4 45.5667 126.3 41.3 122.1C37.1 117.833 35 112.7 35 106.7C35 100.7 37.1 95.6 41.3 91.4C45.5667 87.1333 50.7 85 56.7 85ZM135 121.6H193.3V128.4H141.7V165H135V121.6ZM215 91.7H135V85H215V91.7Z" fill="#00A3FF"/>
</svg>
