<?xml version="1.0" encoding="UTF-8"?>
<!-- Generator: https://ezgif.com/png-to-svg -->
<svg version="1.1" xmlns="http://www.w3.org/2000/svg" width="1223" height="622">
<path d="M0 0 C403.59 0 807.18 0 1223 0 C1223 205.26 1223 410.52 1223 622 C819.41 622 415.82 622 0 622 C0 416.74 0 211.48 0 0 Z " fill="#FAFBFB" transform="translate(0,0)"/>
<path d="M0 0 C1.42 -0 1.42 -0 2.86 -0.01 C6.07 -0.01 9.27 -0.01 12.48 -0 C13.6 -0 14.73 -0 15.89 -0 C47.37 0.03 78.84 0.74 110.32 1.43 C116.88 1.57 123.45 1.71 130.02 1.84 C138.05 2.01 146.09 2.18 154.12 2.35 C156.37 2.39 158.62 2.44 160.87 2.49 C168.99 2.66 177.12 2.84 185.25 3.06 C188.88 3.15 192.52 3.21 196.15 3.28 C198.37 3.33 200.59 3.39 202.8 3.45 C203.78 3.46 204.76 3.47 205.76 3.48 C218.79 3.88 226.93 8.84 235.71 18.02 C241.29 25.78 243.61 33.67 242.96 43.15 C242.43 46.29 241.61 49.31 240.75 52.37 C240.49 53.33 240.23 54.29 239.96 55.28 C239.16 58.21 238.35 61.14 237.54 64.06 C236.91 66.32 236.29 68.57 235.67 70.83 C232.21 83.35 228.72 95.87 225.23 108.38 C223.71 113.82 222.19 119.26 220.68 124.7 C220.06 126.91 219.45 129.11 218.83 131.31 C218.53 132.4 218.23 133.49 217.91 134.61 C216.99 137.91 216.07 141.21 215.15 144.5 C211.62 157.17 208.1 169.84 204.58 182.51 C204.37 183.24 204.17 183.98 203.96 184.74 C202.96 188.36 201.95 191.98 200.95 195.59 C195.2 216.29 189.45 236.99 183.67 257.68 C183.4 258.64 183.14 259.61 182.86 260.6 C180.21 270.07 177.57 279.55 174.92 289.03 C173.94 292.52 172.97 296.01 171.99 299.5 C171.53 301.18 171.06 302.86 170.59 304.54 C168.21 313.04 165.84 321.55 163.51 330.07 C163.32 330.76 163.14 331.45 162.94 332.17 C162.06 335.38 161.19 338.59 160.32 341.8 C159.87 343.45 159.87 343.45 159.41 345.12 C159.15 346.08 158.89 347.03 158.63 348.01 C157.96 350.15 157.96 350.15 156.96 351.15 C155.31 351.25 153.65 351.27 151.99 351.27 C150.37 351.27 150.37 351.27 148.72 351.28 C146.91 351.27 146.91 351.27 145.07 351.27 C143.17 351.27 143.17 351.27 141.23 351.27 C137.7 351.27 134.17 351.27 130.63 351.26 C126.83 351.26 123.03 351.26 119.22 351.26 C112.63 351.26 106.04 351.26 99.44 351.25 C89.91 351.25 80.37 351.24 70.84 351.24 C55.37 351.24 39.9 351.23 24.44 351.22 C9.41 351.21 -5.62 351.21 -20.65 351.2 C-21.58 351.2 -22.5 351.2 -23.46 351.2 C-28.1 351.2 -32.74 351.2 -37.39 351.2 C-75.94 351.19 -114.49 351.17 -153.04 351.15 C-153.85 349.55 -154.66 347.94 -155.46 346.34 C-155.91 345.45 -156.36 344.55 -156.83 343.64 C-158.13 340.98 -159.2 338.32 -160.14 335.52 C-160.46 334.56 -160.79 333.59 -161.12 332.6 C-161.45 331.6 -161.77 330.61 -162.1 329.59 C-162.45 328.54 -162.79 327.49 -163.15 326.41 C-165.95 317.74 -168.28 309.08 -170.04 300.15 C-170.27 299.08 -170.49 298.01 -170.72 296.91 C-172.12 289.08 -172.27 281.27 -172.35 273.34 C-172.37 272.29 -172.39 271.25 -172.41 270.18 C-172.39 250.49 -165.96 232.35 -160.03 213.83 C-158.7 209.65 -157.37 205.46 -156.05 201.28 C-154.97 197.86 -153.89 194.44 -152.79 191.02 C-150.71 184.51 -148.69 177.99 -146.79 171.43 C-146.44 170.22 -146.08 169.02 -145.72 167.77 C-145.07 165.52 -144.42 163.26 -143.8 161 C-143.51 160 -143.22 159.01 -142.92 157.98 C-142.67 157.12 -142.43 156.25 -142.18 155.36 C-139.85 150.84 -134.99 149.63 -130.41 148.1 C-129.31 147.72 -128.2 147.35 -127.07 146.96 C-125.88 146.57 -124.7 146.18 -123.48 145.77 C-121.61 145.14 -119.74 144.51 -117.87 143.88 C-115.26 143 -112.64 142.12 -110.03 141.25 C-105.46 139.72 -100.89 138.18 -96.31 136.64 C-93.88 135.82 -91.45 135.01 -89.02 134.19 C-87.91 133.82 -86.81 133.45 -85.67 133.07 C-84.22 132.59 -84.22 132.59 -82.74 132.09 C-80.93 131.46 -79.15 130.78 -77.39 130.05 C-74.47 128.93 -71.84 128.73 -68.73 128.52 C-67.13 128.41 -67.13 128.41 -65.49 128.3 C-64.68 128.25 -63.87 128.2 -63.04 128.15 C-62.77 127.27 -62.77 127.27 -62.5 126.36 C-57.73 110.74 -52.85 95.15 -47.91 79.57 C-45 70.39 -42.13 61.2 -39.3 51.99 C-38.67 49.94 -38.04 47.88 -37.4 45.83 C-36.48 42.82 -35.56 39.82 -34.64 36.81 C-33.79 34.02 -32.93 31.23 -32.07 28.44 C-31.83 27.61 -31.58 26.79 -31.32 25.95 C-27.89 14.89 -27.89 14.89 -25.04 11.15 C-23.72 10.78 -22.38 10.45 -21.04 10.15 C-19.78 7.79 -19.78 7.79 -19.04 5.15 C-18.71 4.16 -18.38 3.17 -18.04 2.15 C-17.11 2 -16.19 1.86 -15.23 1.71 C-9.97 0.78 -5.39 -0 0 0 Z " fill="#EAECEF" transform="translate(543.042236328125,270.851806640625)"/>
<path d="M0 0 C1.95 0.23 3.91 0.46 5.86 0.69 C8.83 1.04 11.8 1.39 14.77 1.74 C20.24 2.38 25.71 3 31.18 3.58 C34.29 3.9 37.4 4.24 40.51 4.58 C41.95 4.73 43.38 4.88 44.81 5.02 C57.38 6.28 64.41 9.67 74.31 17.19 C75.99 18.44 77.67 19.7 79.35 20.95 C80.19 21.58 81.04 22.22 81.91 22.87 C85.83 25.79 89.79 28.65 93.75 31.5 C94.49 32.03 95.22 32.56 95.98 33.11 C102.78 38.01 109.61 42.88 116.44 47.75 C115.83 54.05 114.43 59.81 112.63 65.87 C112.35 66.84 112.06 67.8 111.77 68.8 C110.85 71.93 109.93 75.06 109 78.19 C108.36 80.35 107.73 82.52 107.09 84.68 C102.3 100.94 97.45 117.19 92.46 133.39 C91.77 135.66 91.09 137.92 90.42 140.19 C88.47 146.75 86.29 152.97 83.31 159.12 C82.74 160.33 82.74 160.33 82.15 161.56 C74.85 176.37 64.76 189.16 53.66 201.3 C50.93 204.3 48.29 207.37 45.65 210.45 C44.92 211.21 44.19 211.97 43.44 212.75 C42.95 213.32 42.47 213.89 41.97 214.48 C37.92 218.72 34.86 220.24 28.97 220.59 C26.38 220.61 23.81 220.59 21.22 220.54 C19.79 220.54 18.36 220.54 16.93 220.55 C13.07 220.55 9.21 220.51 5.35 220.46 C1.3 220.42 -2.74 220.41 -6.78 220.4 C-14.43 220.38 -22.07 220.32 -29.72 220.25 C-38.43 220.18 -47.14 220.14 -55.84 220.1 C-73.75 220.03 -91.66 219.91 -109.56 219.75 C-110.37 218.15 -111.18 216.55 -111.99 214.94 C-112.43 214.05 -112.88 213.16 -113.35 212.24 C-114.65 209.58 -115.72 206.93 -116.66 204.12 C-116.98 203.16 -117.31 202.19 -117.64 201.2 C-117.97 200.21 -118.29 199.21 -118.62 198.19 C-118.97 197.14 -119.31 196.09 -119.67 195.01 C-122.47 186.34 -124.8 177.69 -126.56 168.75 C-126.79 167.68 -127.01 166.61 -127.24 165.51 C-128.64 157.68 -128.8 149.88 -128.88 141.94 C-128.89 140.89 -128.91 139.85 -128.93 138.78 C-128.91 119.09 -122.48 100.95 -116.55 82.43 C-115.22 78.25 -113.89 74.06 -112.57 69.88 C-111.49 66.46 -110.41 63.04 -109.31 59.63 C-107.23 53.11 -105.21 46.6 -103.31 40.03 C-102.96 38.82 -102.6 37.62 -102.24 36.38 C-101.59 34.12 -100.94 31.86 -100.32 29.6 C-100.03 28.61 -99.74 27.61 -99.44 26.59 C-99.19 25.72 -98.95 24.85 -98.7 23.96 C-96.37 19.44 -91.51 18.23 -86.93 16.7 C-85.83 16.32 -84.72 15.95 -83.59 15.56 C-82.4 15.17 -81.22 14.78 -80 14.37 C-78.13 13.74 -76.26 13.11 -74.39 12.48 C-71.78 11.6 -69.16 10.73 -66.55 9.85 C-61.98 8.32 -57.41 6.78 -52.83 5.24 C-50.4 4.43 -47.97 3.61 -45.54 2.8 C-44.43 2.43 -43.33 2.06 -42.19 1.67 C-41.22 1.35 -40.25 1.03 -39.26 0.69 C-37.44 0.06 -35.63 -0.63 -33.85 -1.35 C-24.2 -5.14 -10.04 -1.2 0 0 Z " fill="#DBF73E" transform="translate(499.5625,402.25)"/>
<path d="M0 0 C1.95 0.23 3.91 0.46 5.86 0.69 C8.83 1.04 11.8 1.39 14.77 1.74 C20.24 2.38 25.71 3 31.18 3.58 C34.29 3.9 37.4 4.24 40.51 4.58 C41.95 4.73 43.38 4.88 44.81 5.02 C57.38 6.28 64.41 9.67 74.31 17.19 C75.99 18.44 77.67 19.7 79.35 20.95 C80.19 21.58 81.04 22.22 81.91 22.87 C85.83 25.79 89.79 28.65 93.75 31.5 C94.49 32.03 95.22 32.56 95.98 33.11 C102.78 38.01 109.61 42.88 116.44 47.75 C115.84 53.69 114.64 59.13 112.93 64.84 C112.69 65.68 112.45 66.51 112.2 67.37 C111.43 70 110.65 72.62 109.88 75.25 C109.35 77.04 108.82 78.84 108.3 80.63 C107.02 85.01 105.73 89.38 104.44 93.75 C103.45 93.75 102.46 93.75 101.44 93.75 C101.11 95.4 100.78 97.05 100.44 98.75 C99.69 98.56 98.95 98.38 98.19 98.19 C92 97.47 85.38 97.77 79.44 99.75 C79.54 100.8 79.64 101.85 79.75 102.94 C79.36 107.72 77.72 108.47 74.44 111.75 C74.76 114.85 74.76 114.85 75.44 117.75 C74.98 118.19 74.52 118.62 74.05 119.07 C71.84 121.37 71.73 123.32 71.25 126.44 C71.09 127.43 70.93 128.43 70.77 129.45 C70.66 130.21 70.55 130.97 70.44 131.75 C69.45 131.75 68.46 131.75 67.44 131.75 C66.96 132.25 66.49 132.74 66 133.25 C64.44 134.75 64.44 134.75 60.44 134.75 C57.32 135.42 57.32 135.42 56.25 137.81 C55.98 138.45 55.71 139.09 55.44 139.75 C54.78 139.75 54.12 139.75 53.44 139.75 C53.44 140.74 53.44 141.73 53.44 142.75 C52.45 142.42 51.46 142.09 50.44 141.75 C50.91 140.7 51.39 139.65 51.88 138.56 C53.13 135.65 53.96 132.9 54.44 129.75 C55.43 129.42 56.42 129.09 57.44 128.75 C57.23 127.9 57.02 127.06 56.81 126.19 C56.22 120.76 57.98 116.5 60.44 111.75 C60.81 110.43 61.14 109.09 61.44 107.75 C61.6 107.15 61.77 106.55 61.94 105.94 C62.63 102.9 63.02 99.84 63.44 96.75 C62.45 96.42 61.46 96.09 60.44 95.75 C60.26 96.4 60.09 97.05 59.91 97.71 C47.45 143.71 47.45 143.71 35.44 154.75 C37.37 149.43 40.33 144.82 43.27 140 C49.05 129.43 52.05 117 55.51 105.49 C56.01 103.86 56.51 102.24 57.01 100.62 C60.87 88.56 60.87 88.56 61.52 76 C61.38 72.12 62.12 69.32 64 65.94 C65.83 61.88 65.67 59.17 65.44 54.75 C64.45 54.42 63.46 54.09 62.44 53.75 C61.51 52.26 61.51 52.26 60.56 50.75 C56.51 44.71 48.91 39.99 42.44 36.75 C42.44 36.09 42.44 35.43 42.44 34.75 C39.79 33.67 37.15 32.66 34.44 31.75 C34.44 31.09 34.44 30.43 34.44 29.75 C30.97 30.25 30.97 30.25 27.44 30.75 C27.44 30.09 27.44 29.43 27.44 28.75 C26.23 29.34 26.23 29.34 25 29.94 C20.14 31.05 16.94 29.61 12.44 27.75 C12.11 28.74 11.78 29.73 11.44 30.75 C10.45 28.77 10.45 28.77 9.44 26.75 C8.51 26.96 7.58 27.16 6.62 27.38 C2.25 28.02 -1.62 27.11 -5.9 26.23 C-9.2 25.64 -12.23 25.68 -15.56 25.75 C-16.22 25.42 -16.88 25.09 -17.56 24.75 C-18.83 24.78 -18.83 24.78 -20.12 24.81 C-23.08 24.76 -24.92 24.41 -27.69 23.62 C-38.06 21.17 -50 25.77 -59.56 29.75 C-61.56 30.42 -63.56 31.08 -65.56 31.75 C-68.09 32.74 -70.59 33.76 -73.06 34.88 C-75.73 35.81 -77.76 35.91 -80.56 35.75 C-82.85 40.01 -84.31 44.09 -85.56 48.75 C-86.09 50.3 -86.09 50.3 -86.62 51.88 C-87.48 54.5 -88.05 57.04 -88.56 59.75 C-88.89 60.74 -89.22 61.73 -89.56 62.75 C-89.6 64.75 -89.61 66.75 -89.56 68.75 C-87.58 68.75 -85.6 68.75 -83.56 68.75 C-83.56 69.74 -83.56 70.73 -83.56 71.75 C-86.09 74.11 -87.03 74.75 -90.56 74.75 C-91.06 76.24 -91.06 76.24 -91.56 77.75 C-92.22 78.41 -92.88 79.07 -93.56 79.75 C-92.57 80.25 -92.57 80.25 -91.56 80.75 C-92.88 82.07 -94.2 83.39 -95.56 84.75 C-94.57 85.25 -94.57 85.25 -93.56 85.75 C-94.22 85.75 -94.88 85.75 -95.56 85.75 C-95.76 86.49 -95.95 87.22 -96.15 87.98 C-96.41 88.96 -96.67 89.93 -96.94 90.94 C-97.19 91.9 -97.45 92.86 -97.71 93.86 C-98.51 96.57 -99.48 99.13 -100.56 101.75 C-100.89 102.74 -101.22 103.73 -101.56 104.75 C-101.89 104.75 -102.22 104.75 -102.56 104.75 C-102.89 103.1 -103.22 101.45 -103.56 99.75 C-104.04 100.95 -104.51 102.14 -105 103.38 C-105.27 104.05 -105.53 104.72 -105.81 105.41 C-113.71 129.9 -105.65 159.65 -97.02 182.7 C-95.9 185.69 -95.05 188.58 -94.56 191.75 C-96.8 188.98 -98.24 186.45 -99.46 183.11 C-99.8 182.21 -100.13 181.31 -100.47 180.39 C-100.81 179.44 -101.15 178.48 -101.5 177.5 C-101.85 176.51 -102.21 175.53 -102.57 174.51 C-109.42 155.07 -111.99 136.29 -111.56 115.75 C-111.67 117.05 -111.77 118.35 -111.88 119.69 C-112.41 124.65 -113.81 129.09 -115.56 133.75 C-116.22 133.75 -116.88 133.75 -117.56 133.75 C-117.56 133.09 -117.56 132.43 -117.56 131.75 C-118.88 132.08 -120.2 132.41 -121.56 132.75 C-121.67 132.11 -121.77 131.47 -121.88 130.81 C-122.1 130.13 -122.33 129.45 -122.56 128.75 C-123.55 128.42 -124.54 128.09 -125.56 127.75 C-126.22 136.66 -126.88 145.57 -127.56 154.75 C-127.89 154.75 -128.22 154.75 -128.56 154.75 C-128.65 150.77 -128.7 146.79 -128.75 142.81 C-128.78 141.71 -128.8 140.62 -128.83 139.49 C-129 119.49 -122.57 101.23 -116.55 82.43 C-115.22 78.25 -113.89 74.06 -112.57 69.88 C-111.49 66.46 -110.41 63.04 -109.31 59.63 C-107.23 53.11 -105.21 46.6 -103.31 40.03 C-102.96 38.82 -102.6 37.62 -102.24 36.38 C-101.59 34.12 -100.94 31.86 -100.32 29.6 C-100.03 28.61 -99.74 27.61 -99.44 26.59 C-99.19 25.72 -98.95 24.85 -98.7 23.96 C-96.37 19.44 -91.51 18.23 -86.93 16.7 C-85.83 16.32 -84.72 15.95 -83.59 15.56 C-82.4 15.17 -81.22 14.78 -80 14.37 C-78.13 13.74 -76.26 13.11 -74.39 12.48 C-71.78 11.6 -69.16 10.73 -66.55 9.85 C-61.98 8.32 -57.41 6.78 -52.83 5.24 C-50.4 4.43 -47.97 3.61 -45.54 2.8 C-44.43 2.43 -43.33 2.06 -42.19 1.67 C-41.22 1.35 -40.25 1.03 -39.26 0.69 C-37.44 0.06 -35.63 -0.63 -33.85 -1.35 C-24.2 -5.14 -10.04 -1.2 0 0 Z M10.44 26.75 C11.44 28.75 11.44 28.75 11.44 28.75 Z " fill="#E5FB5D" transform="translate(499.5625,402.25)"/>
<path d="M0 0 C0.66 0 1.32 0 2 0 C0.52 9 -2.19 17.62 -4.88 26.31 C-5.31 27.75 -5.75 29.18 -6.19 30.62 C-7.05 33.42 -7.91 36.23 -8.78 39.03 C-9.56 41.55 -10.32 44.08 -11.07 46.61 C-13 53.11 -15.17 59.27 -18.12 65.38 C-18.51 66.18 -18.89 66.98 -19.29 67.81 C-26.59 82.62 -36.68 95.41 -47.78 107.55 C-50.5 110.55 -53.15 113.62 -55.79 116.7 C-56.52 117.46 -57.25 118.22 -58 119 C-58.52 119.57 -59.03 120.14 -59.56 120.73 C-64.27 125.46 -67.65 126.81 -74.29 126.87 C-75.34 126.85 -76.39 126.82 -77.46 126.79 C-79.15 126.8 -79.15 126.8 -80.87 126.8 C-84.56 126.79 -88.25 126.74 -91.94 126.68 C-94.5 126.67 -97.07 126.66 -99.64 126.65 C-105.69 126.63 -111.74 126.57 -117.8 126.5 C-124.69 126.43 -131.58 126.39 -138.48 126.35 C-152.65 126.28 -166.83 126.16 -181 126 C-181 125.34 -181 124.68 -181 124 C-180.17 123.94 -179.34 123.88 -178.48 123.82 C-177.39 123.73 -176.31 123.65 -175.19 123.56 C-174.11 123.48 -173.03 123.4 -171.92 123.32 C-168.94 123.1 -168.94 123.1 -166 122 C-163.96 122.4 -162.03 123.01 -160.04 123.62 C-157.69 124.06 -156.27 123.67 -154 123 C-152.33 122.96 -150.67 122.96 -149 123 C-146.63 123 -144.3 122.82 -141.94 122.62 C-140.59 122.52 -140.59 122.52 -139.21 122.41 C-138.48 122.28 -137.75 122.14 -137 122 C-136.67 121.34 -136.34 120.68 -136 120 C-130.47 116 -130.47 116 -128 116 C-128 115.34 -128 114.68 -128 114 C-127.34 114 -126.68 114 -126 114 C-126 113.34 -126 112.68 -126 112 C-123.03 111.01 -123.03 111.01 -120 110 C-120.33 108.68 -120.66 107.36 -121 106 C-120.26 106.04 -119.51 106.08 -118.75 106.12 C-115.91 106 -114.41 105.43 -112 104 C-112 103.34 -112 102.68 -112 102 C-111.34 102 -110.68 102 -110 102 C-110.33 101.01 -110.66 100.02 -111 99 C-110.43 98.67 -109.87 98.35 -109.29 98.01 C-108.55 97.57 -107.82 97.14 -107.06 96.69 C-105.97 96.04 -105.97 96.04 -104.85 95.39 C-102.7 94.05 -102.7 94.05 -102 91 C-96.74 87 -96.74 87 -93 87 C-93.25 86.11 -93.5 85.23 -93.75 84.31 C-94 81 -94 81 -92.19 78.25 C-90.8 76.82 -89.41 75.41 -88 74 C-88.32 71.89 -88.32 71.89 -89 70 C-87.19 68.44 -87.19 68.44 -85 67 C-83.51 67.5 -83.51 67.5 -82 68 C-82 68.66 -82 69.32 -82 70 C-81.34 70.66 -80.68 71.32 -80 72 C-79.19 74.4 -79.19 74.4 -79 77 C-80.18 78.89 -80.18 78.89 -82.02 80.67 C-83.02 81.66 -83.02 81.66 -84.04 82.67 C-84.77 83.36 -85.5 84.04 -86.25 84.75 C-86.98 85.46 -87.71 86.17 -88.47 86.9 C-94.06 92.26 -99.86 97.27 -106 102 C-107.67 103.33 -109.34 104.66 -111 106 C-104.03 104.88 -97.18 99.59 -92 95 C-90.61 93.04 -89.27 91.04 -88 89 C-86.95 88.23 -86.95 88.23 -85.88 87.44 C-83.47 85.59 -83.05 83.8 -82 81 C-80.38 79.11 -79.23 78.11 -77 77 C-76.72 76.44 -76.44 75.88 -76.16 75.3 C-74.64 72.28 -72.63 69.87 -70.5 67.25 C-69.71 66.27 -68.91 65.28 -68.09 64.27 C-67.4 63.52 -66.71 62.77 -66 62 C-65.34 62 -64.68 62 -64 62 C-63.87 60.96 -63.87 60.96 -63.73 59.89 C-62.83 56.34 -61.24 53.81 -59.31 50.69 C-51.15 36.88 -47.15 21.38 -42.66 6.08 C-42 4 -42 4 -41 2 C-38.94 1.38 -38.94 1.38 -37 1 C-37.11 2.96 -37.24 4.92 -37.38 6.88 C-37.44 7.97 -37.51 9.06 -37.59 10.18 C-38 13 -38 13 -40 15 C-40.35 17 -40.69 19 -41 21 C-41.33 21.76 -41.66 22.53 -42 23.31 C-43.2 26.54 -43.38 29.49 -43.56 32.91 C-44 35 -44 35 -45.54 36.52 C-47.47 38.13 -47.47 38.13 -47 42 C-47.66 42 -48.32 42 -49 42 C-49.33 43.98 -49.66 45.96 -50 48 C-49.34 48.33 -48.68 48.66 -48 49 C-48 48.01 -48 47.02 -48 46 C-46.06 44.27 -44.05 42.6 -42 41 C-41.01 40.01 -41.01 40.01 -40 39 C-37.88 39.38 -37.88 39.38 -36 40 C-35.67 39.01 -35.34 38.02 -35 37 C-34.01 37.33 -33.02 37.66 -32 38 C-31.89 37.25 -31.78 36.5 -31.67 35.73 C-31.51 34.75 -31.35 33.76 -31.19 32.75 C-31.04 31.78 -30.89 30.8 -30.73 29.8 C-29.96 26.86 -28.83 25.37 -27 23 C-27.33 21.33 -27.66 19.67 -28 18 C-26.69 16.38 -26.69 16.38 -25 15 C-22.71 11.56 -22.82 10.01 -23 6 C-19.4 3.79 -16.17 3.61 -12 3.38 C-10.78 3.3 -9.57 3.23 -8.31 3.15 C-5.88 3.04 -3.44 3 -1 3 C-0.67 2.01 -0.34 1.02 0 0 Z " fill="#CDEA19" transform="translate(601,496)"/>
<path d="M0 0 C5.69 5.69 7.33 11.83 7.5 19.69 C7.4 30.8 3.86 39.43 -2.81 48.19 C-3.55 49.22 -4.3 50.25 -5.06 51.31 C-13.09 59.71 -23.3 65.19 -35.06 65.62 C-41.95 65.3 -47.89 63.11 -52.81 58.19 C-58.96 49.74 -59.6 42.6 -58.81 32.19 C-56.16 20.49 -49.25 9.56 -39.81 2.19 C-26.06 -6.28 -14.08 -9.07 0 0 Z " fill="#FEFEFE" transform="translate(646.8125,320.8125)"/>
<path d="M0 0 C1.07 3.22 0.97 3.93 0.1 7.05 C-0.13 7.88 -0.35 8.71 -0.59 9.56 C-0.84 10.46 -1.1 11.37 -1.37 12.3 C-1.63 13.26 -1.9 14.22 -2.17 15.21 C-3.06 18.44 -3.97 21.66 -4.88 24.88 C-5.51 27.17 -6.15 29.47 -6.79 31.77 C-8.5 37.94 -10.23 44.09 -11.95 50.25 C-13.65 56.31 -15.33 62.37 -17.02 68.43 C-19.08 75.85 -21.15 83.28 -23.22 90.7 C-27.09 104.56 -30.95 118.43 -34.79 132.31 C-36.18 137.33 -37.57 142.35 -38.96 147.36 C-40.31 152.26 -41.66 157.15 -43.01 162.05 C-43.85 165.08 -44.69 168.12 -45.53 171.15 C-45.92 172.57 -46.32 173.99 -46.71 175.42 C-47.24 177.36 -47.78 179.3 -48.32 181.25 C-48.62 182.34 -48.92 183.43 -49.23 184.56 C-50 187 -50 187 -51 188 C-53.86 188.07 -56.7 188.09 -59.56 188.06 C-60.37 188.06 -61.18 188.05 -62.01 188.05 C-64 188.04 -66 188.02 -68 188 C-66.77 181.4 -65.25 174.95 -63.4 168.49 C-63.04 167.21 -63.04 167.21 -62.67 165.91 C-61.91 163.23 -61.14 160.55 -60.38 157.88 C-59.85 156.04 -59.33 154.21 -58.81 152.38 C-57.55 147.92 -56.27 143.46 -55 139 C-54.34 139.66 -53.68 140.32 -53 141 C-52.01 141 -51.02 141 -50 141 C-49.9 140.45 -49.81 139.91 -49.71 139.34 C-48.22 131.4 -46.06 123.65 -43.88 115.88 C-43.5 114.52 -43.12 113.17 -42.75 111.82 C-41.83 108.55 -40.92 105.27 -40 102 C-39.24 104.99 -38.59 107.98 -38 111 C-38 110.67 -38 110.34 -38 110 C-37.86 108.25 -37.71 106.5 -37.56 104.75 C-37.48 103.8 -37.4 102.84 -37.32 101.86 C-37 99 -37 99 -36.34 96.33 C-35.7 93.73 -35.7 93.73 -38 91 C-38.5 90.01 -38.5 90.01 -39 89 C-39.66 91.31 -40.32 93.62 -41 96 C-42.04 92.79 -41.93 90.82 -41.01 87.6 C-40.77 86.74 -40.53 85.88 -40.28 84.99 C-40.02 84.07 -39.75 83.15 -39.47 82.2 C-39.2 81.25 -38.94 80.31 -38.66 79.33 C-37.8 76.3 -36.93 73.27 -36.06 70.25 C-35.48 68.2 -34.9 66.14 -34.31 64.09 C-32.89 59.06 -31.45 54.03 -30 49 C-29.02 52.38 -29.14 54.57 -30 58 C-26.7 55.8 -26.57 55.5 -25.81 51.88 C-25.54 50.6 -25.28 49.32 -25 48 C-24.01 48.99 -23.02 49.98 -22 51 C-21.91 49.1 -21.91 49.1 -21.81 47.15 C-21.05 39.57 -18.84 32.34 -16.76 25.03 C-16.06 22.55 -15.37 20.06 -14.68 17.57 C-14.24 15.99 -13.79 14.4 -13.35 12.82 C-13.14 12.08 -12.94 11.34 -12.73 10.57 C-11.79 7.3 -10.9 4.85 -9 2 C-8.5 3.49 -8.5 3.49 -8 5 C-6.35 4.34 -4.7 3.68 -3 3 C-3 3.99 -3 4.98 -3 6 C-2.34 6 -1.68 6 -1 6 C-0.67 4.02 -0.34 2.04 0 0 Z " fill="#AAB0B7" transform="translate(751,434)"/>
<path d="M0 0 C0.33 0 0.66 0 1 0 C0.97 1.28 0.93 2.57 0.89 3.89 C0.41 29.65 5.77 53.38 16 77 C15.75 76.32 15.5 75.63 15.24 74.93 C6.42 50.81 2.21 30.73 3 5 C3.33 5 3.66 5 4 5 C4.33 9.95 4.66 14.9 5 20 C5.66 20 6.32 20 7 20 C9.3 29.41 9.3 29.41 9 34 C9.66 34.33 10.32 34.66 11 35 C11.5 43.41 11.5 43.41 12 52 C12.66 52 13.32 52 14 52 C14.17 52.76 14.34 53.52 14.52 54.31 C15.9 60.22 17.54 65.6 20.15 71.09 C21.16 73.35 21.68 75.55 22 78 C22.66 78 23.32 78 24 78 C24 80.97 24 83.94 24 87 C24.99 87.5 24.99 87.5 26 88 C26.63 90.07 26.63 90.07 27.12 92.56 C27.38 93.8 27.38 93.8 27.63 95.07 C27.75 95.7 27.88 96.34 28 97 C27.34 97 26.68 97 26 97 C27.65 100.3 29.3 103.6 31 107 C21.43 107 11.86 107 2 107 C-3.63 95.73 -3.63 95.73 -5.1 91.37 C-5.42 90.41 -5.75 89.44 -6.08 88.45 C-6.41 87.46 -6.73 86.46 -7.06 85.44 C-7.41 84.39 -7.75 83.35 -8.1 82.28 C-12.56 68.5 -16.21 54.69 -16.12 40.12 C-16.12 39.31 -16.12 38.49 -16.12 37.65 C-16.06 29.41 -15.59 21.21 -15 13 C-11.12 15.62 -11.12 15.62 -10 19 C-8.68 19 -7.36 19 -6 19 C-6 19.66 -6 20.32 -6 21 C-5.34 21 -4.68 21 -4 21 C-3.86 19.7 -3.71 18.4 -3.56 17.06 C-3.12 13.12 -3.12 13.12 -2 12 C-1.6 9.99 -1.26 7.96 -0.94 5.94 C-0.76 4.83 -0.58 3.73 -0.4 2.59 C-0.27 1.74 -0.14 0.88 0 0 Z " fill="#CEEC11" transform="translate(388,515)"/>
<path d="M0 0 C6.72 5.63 11.64 14.36 12.48 23.19 C12.58 29.4 11.37 34.85 9.69 40.8 C9.42 41.8 9.15 42.8 8.88 43.83 C8.02 46.96 7.16 50.08 6.29 53.21 C5.76 55.14 5.23 57.06 4.7 58.99 C3.09 64.89 1.44 70.78 -0.2 76.67 C-0.8 78.81 -1.4 80.96 -1.99 83.1 C-3.54 88.65 -5.09 94.2 -6.64 99.75 C-8.23 105.45 -9.82 111.15 -11.41 116.85 C-14.51 127.97 -17.61 139.09 -20.71 150.21 C-21.37 150.21 -22.03 150.21 -22.71 150.21 C-23.21 153.18 -23.21 153.18 -23.71 156.21 C-24.37 156.21 -25.03 156.21 -25.71 156.21 C-26.21 155.22 -26.21 155.22 -26.71 154.21 C-29.19 155.2 -29.19 155.2 -31.71 156.21 C-32.04 155.88 -32.37 155.55 -32.71 155.21 C-34.13 160.15 -35.53 165.09 -36.93 170.04 C-37.4 171.72 -37.88 173.39 -38.36 175.07 C-42.21 187.93 -42.21 187.93 -43.71 201.21 C-43.05 201.87 -42.39 202.53 -41.71 203.21 C-42.33 203.04 -42.95 202.88 -43.59 202.71 C-45.67 202.13 -45.67 202.13 -47.71 202.21 C-47.96 203.18 -48.21 204.15 -48.46 205.14 C-48.87 206.16 -49.29 207.17 -49.71 208.21 C-51.79 208.9 -51.79 208.9 -53.71 209.21 C-51.68 193.57 -47.41 178.7 -43.02 163.58 C-42.31 161.11 -41.6 158.64 -40.9 156.17 C-39.18 150.18 -37.45 144.19 -35.71 138.21 C-35.04 140.87 -34.38 143.54 -33.71 146.21 C-32.72 146.21 -31.73 146.21 -30.71 146.21 C-30.62 145.03 -30.62 145.03 -30.52 143.83 C-29.71 141.21 -29.71 141.21 -27.34 139.89 C-24.71 139.21 -24.71 139.21 -21.71 139.21 C-20.45 134.13 -19.44 129.48 -19.71 124.21 C-21.36 123.88 -23.01 123.55 -24.71 123.21 C-25.76 120.07 -25.65 119.22 -24.71 116.21 C-26.7 116.47 -26.7 116.47 -28.71 117.21 C-29.04 118.2 -29.37 119.19 -29.71 120.21 C-29.09 113.43 -27.43 107.22 -25.52 100.7 C-24.88 98.47 -24.24 96.25 -23.6 94.02 C-22.59 90.54 -21.58 87.06 -20.56 83.58 C-19.58 80.21 -18.61 76.83 -17.64 73.45 C-17.33 72.41 -17.02 71.37 -16.71 70.3 C-15.24 65.16 -14.4 61.52 -15.71 56.21 C-14.77 52.33 -14.77 52.33 -13.71 49.21 C-12.59 52.96 -12.59 52.96 -13.71 55.21 C-13.05 55.21 -12.39 55.21 -11.71 55.21 C-11.38 52.9 -11.05 50.59 -10.71 48.21 C-9.65 51.45 -9.8 53.48 -10.71 56.75 C-10.94 57.6 -11.16 58.44 -11.4 59.31 C-11.65 60.19 -11.89 61.06 -12.15 61.96 C-12.39 62.85 -12.63 63.73 -12.88 64.65 C-13.48 66.84 -14.09 69.02 -14.71 71.21 C-11.5 69.07 -11.3 68.83 -10.38 65.37 C-10.16 64.58 -9.94 63.8 -9.72 62.98 C-9.5 62.13 -9.28 61.28 -9.05 60.4 C-8.81 59.53 -8.57 58.65 -8.33 57.75 C-7.57 54.95 -6.83 52.14 -6.09 49.33 C-5.58 47.45 -5.07 45.56 -4.56 43.68 C-3.26 38.86 -1.97 34.04 -0.71 29.21 C-0.53 28.52 -0.35 27.83 -0.16 27.12 C1.78 18.83 0.32 11.51 -3.71 4.21 C-4.38 2.88 -5.05 1.54 -5.71 0.21 C-2.23 -1.03 -2.23 -1.03 0 0 Z " fill="#CFD2D6" transform="translate(773.7109375,283.79296875)"/>
<path d="M0 0 C0.68 0.08 1.36 0.16 2.07 0.24 C4.32 0.5 6.57 0.78 8.82 1.06 C10.41 1.25 11.99 1.45 13.58 1.64 C16.08 1.94 18.59 2.25 21.09 2.56 C26.39 3.21 31.7 3.78 37.03 4.28 C40.6 4.61 44.16 4.98 47.73 5.36 C49.43 5.53 51.14 5.69 52.85 5.83 C64.71 6.84 72.3 9.55 81.43 17.24 C83.65 19.08 85.99 20.75 88.33 22.43 C89.91 23.6 91.49 24.76 93.07 25.93 C93.88 26.53 94.69 27.13 95.52 27.74 C99.01 30.32 102.48 32.9 105.95 35.5 C103.46 46.38 100.09 56.97 96.76 67.62 C95.58 71.38 94.41 75.14 93.23 78.91 C92.94 79.83 92.66 80.75 92.36 81.69 C90.73 86.92 89.15 92.17 87.63 97.43 C78.94 127.39 78.94 127.39 67.95 137.5 C69.88 132.17 72.84 127.57 75.78 122.75 C81.56 112.17 84.56 99.74 88.02 88.24 C88.51 86.61 89.01 84.99 89.52 83.36 C93.38 71.31 93.38 71.31 94.03 58.75 C93.88 54.87 94.63 52.07 96.51 48.68 C98.34 44.62 98.17 41.91 97.95 37.5 C96.96 37.17 95.97 36.84 94.95 36.5 C94.02 35.01 94.02 35.01 93.07 33.5 C89.02 27.45 81.42 22.73 74.95 19.5 C74.95 18.84 74.95 18.18 74.95 17.5 C72.29 16.42 69.66 15.4 66.95 14.5 C66.95 13.84 66.95 13.18 66.95 12.5 C64.64 12.83 62.33 13.16 59.95 13.5 C59.95 12.84 59.95 12.18 59.95 11.5 C59.14 11.89 58.34 12.28 57.51 12.68 C52.65 13.79 49.45 12.36 44.95 10.5 C44.62 11.49 44.29 12.48 43.95 13.5 C42.96 11.52 42.96 11.52 41.95 9.5 C41.02 9.7 40.09 9.91 39.13 10.12 C34.76 10.77 30.89 9.86 26.61 8.97 C23.31 8.38 20.28 8.43 16.95 8.5 C15.96 8 15.96 8 14.95 7.5 C14.1 7.52 13.25 7.54 12.38 7.56 C9.43 7.5 7.59 7.16 4.82 6.37 C-5.55 3.91 -17.49 8.51 -27.05 12.5 C-29.05 13.16 -31.05 13.83 -33.05 14.5 C-35.59 15.48 -38.08 16.51 -40.55 17.62 C-43.22 18.55 -45.26 18.66 -48.05 18.5 C-50.34 22.76 -51.81 26.83 -53.05 31.5 C-53.58 33.04 -53.58 33.04 -54.12 34.62 C-54.97 37.25 -55.54 39.79 -56.05 42.5 C-56.38 43.49 -56.71 44.48 -57.05 45.5 C-57.09 47.5 -57.1 49.5 -57.05 51.5 C-55.07 51.5 -53.09 51.5 -51.05 51.5 C-51.05 52.49 -51.05 53.48 -51.05 54.5 C-53.59 56.85 -54.53 57.5 -58.05 57.5 C-58.38 58.49 -58.71 59.48 -59.05 60.5 C-59.71 61.16 -60.37 61.82 -61.05 62.5 C-60.39 62.83 -59.73 63.16 -59.05 63.5 C-60.37 64.82 -61.69 66.14 -63.05 67.5 C-62.39 67.83 -61.73 68.16 -61.05 68.5 C-61.71 68.5 -62.37 68.5 -63.05 68.5 C-63.25 69.23 -63.44 69.97 -63.64 70.73 C-63.9 71.7 -64.16 72.68 -64.43 73.68 C-64.68 74.65 -64.94 75.61 -65.2 76.6 C-66 79.32 -66.97 81.88 -68.05 84.5 C-68.38 85.49 -68.71 86.48 -69.05 87.5 C-69.38 87.5 -69.71 87.5 -70.05 87.5 C-70.55 85.02 -70.55 85.02 -71.05 82.5 C-71.53 83.69 -72 84.89 -72.49 86.12 C-72.76 86.79 -73.03 87.47 -73.3 88.16 C-81.2 112.64 -73.14 142.4 -64.51 165.44 C-63.39 168.44 -62.54 171.32 -62.05 174.5 C-64.29 171.73 -65.73 169.19 -66.96 165.86 C-67.29 164.96 -67.62 164.06 -67.96 163.14 C-68.3 162.18 -68.64 161.23 -68.99 160.25 C-69.52 158.77 -69.52 158.77 -70.06 157.26 C-82.69 121.39 -78.75 92.73 -67.12 57.31 C-66.06 54.04 -65 50.78 -63.94 47.51 C-63.25 45.41 -62.57 43.31 -61.88 41.21 C-60.38 36.66 -58.92 32.1 -57.61 27.49 C-57.29 26.37 -57.29 26.37 -56.96 25.23 C-56.41 23.3 -55.88 21.36 -55.35 19.42 C-53.52 15.3 -51.35 14.38 -47.26 12.8 C-45.15 12.04 -43.03 11.34 -40.9 10.65 C-39.74 10.26 -39.74 10.26 -38.55 9.87 C-36.07 9.05 -33.59 8.24 -31.12 7.43 C-29.46 6.89 -27.8 6.34 -26.13 5.79 C-18.41 3.24 -18.41 3.24 -14.93 2.12 C-13.26 1.56 -11.62 0.93 -9.98 0.29 C-6.39 -0.69 -3.69 -0.44 0 0 Z M42.95 9.5 C43.95 11.5 43.95 11.5 43.95 11.5 Z " fill="#EAFD63" transform="translate(467.0546875,419.50390625)"/>
<path d="M0 0 C-0.33 1.65 -0.66 3.3 -1 5 C-0.22 4.98 0.57 4.96 1.38 4.94 C4 5 4 5 6 6 C7.18 10.26 7.3 12.35 5.41 16.39 C4.65 17.55 3.87 18.69 3.06 19.81 C2.65 20.42 2.24 21.03 1.81 21.65 C-3.8 29.8 -10.11 37.26 -16.78 44.55 C-19.5 47.55 -22.15 50.62 -24.79 53.7 C-25.52 54.46 -26.25 55.22 -27 56 C-27.48 56.6 -27.95 57.2 -28.45 57.81 C-32.15 61.85 -35.13 63.39 -40.67 63.66 C-44.29 63.7 -47.89 63.58 -51.5 63.44 C-53.01 63.4 -54.51 63.37 -56.02 63.34 C-59.68 63.27 -63.34 63.14 -67 63 C-63.8 59.78 -60.57 56.65 -57.19 53.62 C-56.31 52.84 -55.44 52.05 -54.54 51.25 C-52.42 49.37 -50.28 47.52 -48.12 45.69 C-34.88 34.11 -22.31 20.59 -13.45 5.33 C-10.05 -0.13 -6.09 -1.74 0 0 Z " fill="#B8CE24" transform="translate(570,559)"/>
<path d="M0 0 C0.7 0.29 1.4 0.58 2.12 0.88 C4.92 2.04 4.92 2.04 7.62 2.68 C12.29 4.51 15.94 7.32 19.94 10.31 C21.49 11.45 23.04 12.6 24.59 13.74 C25.33 14.29 26.07 14.84 26.83 15.4 C29.86 17.64 32.93 19.82 36 22 C35.39 28.6 33.82 34.65 31.94 41 C31.66 41.97 31.37 42.93 31.08 43.93 C30.39 46.29 29.7 48.64 29 51 C24.72 51.87 21.09 51.98 16.75 51.5 C12.73 50.89 12.73 50.89 9 52 C8.6 45.87 10.01 41.08 12 35.31 C12.57 33.64 13.13 31.97 13.69 30.3 C13.94 29.57 14.19 28.84 14.45 28.09 C15.17 25.72 15.17 25.72 15 22 C13.62 20.42 13.62 20.42 11.68 19.12 C10.98 18.61 10.28 18.1 9.56 17.58 C8.82 17.06 8.08 16.54 7.31 16 C5.87 14.96 4.43 13.92 2.99 12.88 C2.3 12.38 1.62 11.89 0.91 11.38 C-1.47 9.66 -3.8 7.95 -6 6 C-6 5.34 -6 4.68 -6 4 C-3.69 4 -1.38 4 1 4 C0.67 2.68 0.34 1.36 0 0 Z " fill="#F2FDA2" transform="translate(580,428)"/>
<path d="M0 0 C0.68 0.08 1.36 0.16 2.07 0.24 C4.32 0.5 6.57 0.78 8.82 1.06 C10.41 1.25 11.99 1.45 13.58 1.64 C16.08 1.94 18.59 2.25 21.09 2.56 C26.39 3.21 31.7 3.78 37.03 4.28 C40.6 4.61 44.16 4.98 47.73 5.36 C49.43 5.53 51.14 5.69 52.85 5.83 C64.71 6.84 72.3 9.55 81.43 17.24 C83.65 19.08 85.99 20.75 88.33 22.43 C89.91 23.6 91.49 24.76 93.07 25.93 C93.88 26.53 94.69 27.13 95.52 27.74 C99.01 30.32 102.48 32.9 105.95 35.5 C103.46 46.38 100.09 56.97 96.76 67.62 C95.58 71.38 94.41 75.14 93.23 78.91 C92.94 79.83 92.66 80.75 92.36 81.69 C90.73 86.92 89.15 92.17 87.63 97.43 C78.94 127.39 78.94 127.39 67.95 137.5 C69.88 132.17 72.84 127.57 75.78 122.75 C81.53 112.26 84.43 99.9 87.81 88.47 C88.25 86.99 88.69 85.51 89.13 84.03 C90.28 80.18 91.42 76.33 92.56 72.48 C93.73 68.53 94.91 64.58 96.08 60.63 C98.37 52.92 100.66 45.21 102.95 37.5 C100.05 34.57 97.26 31.83 93.91 29.45 C93.16 28.91 92.41 28.38 91.64 27.83 C90.88 27.28 90.11 26.74 89.32 26.18 C87.81 25.1 86.29 24.02 84.78 22.95 C84.03 22.43 83.29 21.91 82.52 21.37 C79.95 19.5 79.95 19.5 77.66 17.51 C69.69 10.87 62.04 9.74 52.11 8.71 C50.51 8.52 48.9 8.33 47.29 8.13 C43.95 7.73 40.6 7.35 37.26 6.99 C32.97 6.53 28.7 6.03 24.42 5.52 C20.32 5.03 16.22 4.56 12.11 4.09 C11.34 4 10.56 3.91 9.76 3.81 C7.56 3.56 5.36 3.32 3.15 3.08 C1.28 2.87 1.28 2.87 -0.64 2.66 C-15.94 1.91 -38.24 9.39 -51.05 17.5 C-56.67 23.47 -57.86 30.53 -58.66 38.46 C-59.39 44.01 -61.31 49.2 -63.05 54.5 C-63.9 57.13 -64.73 59.77 -65.56 62.41 C-66 63.78 -66.43 65.15 -66.86 66.53 C-67.08 67.21 -67.3 67.89 -67.52 68.6 C-67.96 69.99 -68.41 71.39 -68.85 72.78 C-79.02 104.63 -76.15 134.38 -64.51 165.44 C-63.39 168.44 -62.54 171.32 -62.05 174.5 C-64.29 171.73 -65.73 169.19 -66.96 165.86 C-67.29 164.96 -67.62 164.06 -67.96 163.14 C-68.3 162.18 -68.64 161.23 -68.99 160.25 C-69.52 158.77 -69.52 158.77 -70.06 157.26 C-82.69 121.39 -78.75 92.73 -67.12 57.31 C-66.06 54.04 -65 50.78 -63.94 47.51 C-63.25 45.41 -62.57 43.31 -61.88 41.21 C-60.38 36.66 -58.92 32.1 -57.61 27.49 C-57.29 26.37 -57.29 26.37 -56.96 25.23 C-56.41 23.3 -55.88 21.36 -55.35 19.42 C-53.52 15.3 -51.35 14.38 -47.26 12.8 C-45.15 12.04 -43.03 11.34 -40.9 10.65 C-39.74 10.26 -39.74 10.26 -38.55 9.87 C-36.07 9.05 -33.59 8.24 -31.12 7.43 C-29.46 6.89 -27.8 6.34 -26.13 5.79 C-18.41 3.24 -18.41 3.24 -14.93 2.12 C-13.26 1.56 -11.62 0.93 -9.98 0.29 C-6.39 -0.69 -3.69 -0.44 0 0 Z " fill="#FBFEDF" transform="translate(467.0546875,419.50390625)"/>
<path d="M0 0 C1.88 0.31 1.88 0.31 4 1 C6 4 6 4 6 6 C6.66 6.33 7.32 6.66 8 7 C8.82 9.27 9.52 11.5 10.19 13.81 C10.63 15.28 11.08 16.75 11.52 18.21 C11.76 18.99 12 19.77 12.25 20.57 C16.14 33.08 20.69 45.05 26.5 56.79 C28 60 28 60 28 62 C24.7 62 21.4 62 18 62 C14.3 54.96 11.4 48 8.94 40.44 C8.59 39.39 8.25 38.34 7.9 37.27 C3.96 25.06 0.56 12.88 0 0 Z " fill="#BCD520" transform="translate(372,560)"/>
<path d="M0 0 C1.39 4.16 0.06 7.31 -1.09 11.39 C-1.31 12.2 -1.54 13.02 -1.77 13.86 C-2.48 16.47 -3.21 19.08 -3.94 21.69 C-4.42 23.46 -4.91 25.23 -5.4 26.99 C-6.59 31.33 -7.79 35.67 -9 40 C-9.99 39.67 -10.98 39.34 -12 39 C-13.32 42.96 -14.64 46.92 -16 51 C-18.48 51.5 -18.48 51.5 -21 52 C-21.33 51.67 -21.66 51.34 -22 51 C-21.7 42 -19.21 33.64 -16.76 25.03 C-16.06 22.55 -15.37 20.06 -14.68 17.57 C-14.24 15.99 -13.79 14.4 -13.35 12.82 C-13.14 12.08 -12.94 11.34 -12.73 10.57 C-11.79 7.3 -10.9 4.85 -9 2 C-8.67 2.99 -8.34 3.98 -8 5 C-6.35 4.34 -4.7 3.68 -3 3 C-3 3.99 -3 4.98 -3 6 C-2.34 6 -1.68 6 -1 6 C-0.67 4.02 -0.34 2.04 0 0 Z " fill="#B2B7BE" transform="translate(751,434)"/>
<path d="M0 0 C0.66 0.33 1.32 0.66 2 1 C1.4 7.72 -0.28 13.79 -2.31 20.21 C-2.64 21.26 -2.96 22.31 -3.3 23.39 C-3.99 25.6 -4.68 27.8 -5.37 30 C-6.44 33.38 -7.49 36.77 -8.54 40.15 C-9.21 42.3 -9.89 44.44 -10.56 46.59 C-10.87 47.6 -11.19 48.61 -11.51 49.66 C-11.81 50.6 -12.11 51.53 -12.41 52.49 C-12.67 53.32 -12.93 54.14 -13.2 54.99 C-14 57 -14 57 -16 59 C-18.5 51.61 -17.59 46.55 -15.13 39.28 C-14.82 38.29 -14.51 37.31 -14.18 36.29 C-13.18 33.16 -12.16 30.05 -11.12 26.94 C-10.44 24.81 -9.76 22.68 -9.07 20.56 C-7.41 15.36 -5.71 10.18 -4 5 C-3.34 5 -2.68 5 -2 5 C-1.34 3.35 -0.68 1.7 0 0 Z " fill="#F4FDA3" transform="translate(397,448)"/>
<path d="M0 0 C0.33 0.99 0.66 1.98 1 3 C3.87 2.43 4.86 2.14 7 0 C5.97 6.96 4.36 13.72 2.5 20.5 C2.18 21.68 2.18 21.68 1.85 22.89 C1.64 23.64 1.43 24.39 1.22 25.16 C1.03 25.82 0.85 26.49 0.65 27.18 C0 29 0 29 -2 32 C-3.65 31.67 -5.3 31.34 -7 31 C-6.54 23.63 -5.07 16.93 -2.94 9.88 C-2.66 8.92 -2.37 7.96 -2.08 6.98 C-1.4 4.65 -0.7 2.32 0 0 Z " fill="#959CA6" transform="translate(736,454)"/>
<path d="M0 0 C1.72 4.12 0.17 7.72 -1.1 11.75 C-1.33 12.51 -1.56 13.26 -1.79 14.05 C-2.54 16.51 -3.3 18.97 -4.06 21.44 C-4.58 23.13 -5.09 24.83 -5.61 26.53 C-6.37 29.05 -7.14 31.57 -7.9 34.09 C-9.78 40.23 -11.58 46.39 -13.31 52.56 C-17.33 66.77 -21.63 80.9 -26 95 C-27.32 94.67 -28.64 94.34 -30 94 C-29.33 92.51 -29.33 92.51 -28.64 90.98 C-27.01 87.17 -25.82 83.28 -24.7 79.3 C-22.88 72.97 -20.98 66.67 -18.98 60.39 C-18.72 59.57 -18.46 58.75 -18.2 57.91 C-17.66 56.22 -17.12 54.53 -16.58 52.85 C-15.15 48.38 -13.74 43.92 -12.32 39.46 C-12.03 38.57 -11.75 37.68 -11.46 36.77 C-7.58 24.54 -3.78 12.27 0 0 Z " fill="#D8DBDF" transform="translate(509,306)"/>
<path d="M0 0 C0.33 0.66 0.66 1.32 1 2 C1.66 2 2.32 2 3 2 C2.67 3.98 2.34 5.96 2 8 C2.95 7.79 3.9 7.59 4.88 7.38 C6.42 7.19 6.42 7.19 8 7 C10 9 10 9 10.01 11.31 C9.9 12.2 9.8 13.09 9.69 14 C9.59 14.89 9.49 15.77 9.39 16.69 C9 19 9 19 8 21 C6.15 21.85 6.15 21.85 3.94 22.62 C2.84 23.02 2.84 23.02 1.71 23.41 C1.15 23.61 0.58 23.8 0 24 C-0.33 22.02 -0.66 20.04 -1 18 C-1.99 17.67 -2.98 17.34 -4 17 C-4 16.01 -4 15.02 -4 14 C-3.01 14 -2.02 14 -1 14 C-1.66 13.67 -2.32 13.34 -3 13 C-2.69 11.4 -2.38 9.79 -2.06 8.19 C-1.89 7.29 -1.71 6.4 -1.54 5.48 C-1 3 -1 3 0 0 Z " fill="#DBDDE0" transform="translate(719,495)"/>
<path d="M0 0 C2.44 0.25 2.44 0.25 5 1 C7.15 4.23 7.2 5.28 7 9 C6.34 9 5.68 9 5 9 C5.99 11.97 6.98 14.94 8 18 C8.78 18.1 9.57 18.21 10.38 18.31 C13 19 13 19 15 22 C15.12 24.69 15.12 24.69 15 27 C13.31 27.81 13.31 27.81 11 28 C4.77 23.57 0.93 15.36 -0.64 8.03 C-0.9 5.65 -1.12 3.39 -1 1 C-0.67 0.67 -0.34 0.34 0 0 Z " fill="#E8E9EC" transform="translate(613,337)"/>
<path d="M0 0 C0.33 1.32 0.66 2.64 1 4 C1.66 4 2.32 4 3 4 C4.27 7.81 3.34 10.32 2.27 14.04 C1.98 15.06 1.98 15.06 1.69 16.1 C1.28 17.54 0.87 18.98 0.45 20.42 C-0.19 22.62 -0.79 24.83 -1.4 27.04 C-1.8 28.44 -2.2 29.83 -2.61 31.23 C-2.87 32.22 -2.87 32.22 -3.15 33.24 C-3.7 35.09 -3.7 35.09 -5 38 C-7.15 38.92 -7.15 38.92 -9 39 C-9.21 33.77 -8.51 29.3 -7.03 24.32 C-6.83 23.62 -6.63 22.92 -6.43 22.19 C-5.79 19.98 -5.15 17.77 -4.5 15.56 C-4.07 14.05 -3.63 12.54 -3.2 11.03 C-2.14 7.35 -1.07 3.68 0 0 Z " fill="#C8CBCF" transform="translate(706,537)"/>
<path d="M0 0 C0.67 2.67 1.33 5.33 2 8 C1.01 8 0.02 8 -1 8 C-1 8.99 -1 9.98 -1 11 C0.32 11.33 1.64 11.66 3 12 C3.33 13.65 3.66 15.3 4 17 C4.6 16.65 5.2 16.3 5.81 15.94 C8 15 8 15 11 16 C10.01 18.48 10.01 18.48 9 21 C5.04 21.5 5.04 21.5 1 22 C0.01 24.48 0.01 24.48 -1 27 C-3 24 -3 24 -4 22 C-4.66 24.31 -5.32 26.62 -6 29 C-7.33 25.31 -6.65 22.85 -5.57 19.14 C-5.25 18.03 -4.93 16.91 -4.6 15.76 C-4.26 14.6 -3.92 13.44 -3.56 12.25 C-3.22 11.08 -2.89 9.9 -2.54 8.69 C-1.7 5.79 -0.85 2.89 0 0 Z " fill="#C3C6CB" transform="translate(716,501)"/>
<path d="M0 0 C0.66 0.33 1.32 0.66 2 1 C0.96 7.68 -0.4 13.75 -3 20 C-6.96 20 -10.92 20 -15 20 C-14.34 17.03 -13.68 14.06 -13 11 C-12.67 11 -12.34 11 -12 11 C-11.67 12.65 -11.34 14.3 -11 16 C-9.35 16.33 -7.7 16.66 -6 17 C-4.01 14.18 -3 12.57 -3 9.06 C-3 5.34 -1.83 3.19 0 0 Z " fill="#9DA3AB" transform="translate(703,602)"/>
<path d="M0 0 C-1.93 11.52 -1.93 11.52 -4 17 C-5.65 17 -7.3 17 -9 17 C-8.69 15.4 -8.38 13.79 -8.06 12.19 C-7.89 11.29 -7.71 10.4 -7.54 9.48 C-7 7 -7 7 -6 4 C-5.34 4 -4.68 4 -4 4 C-4 3.01 -4 2.02 -4 1 C-2 0 -2 0 0 0 Z " fill="#C4C7CC" transform="translate(692,605)"/>
<path d="M0 0 C0.93 3.01 1.04 3.87 0 7 C1.32 6.67 2.64 6.34 4 6 C3.67 7.98 3.34 9.96 3 12 C2.01 12 1.02 12 0 12 C0.66 12.33 1.32 12.66 2 13 C1.67 13.99 1.34 14.98 1 16 C-0.32 15.67 -1.64 15.34 -3 15 C-3 17.64 -3 20.28 -3 23 C-3.66 23 -4.32 23 -5 23 C-5.33 23.66 -5.66 24.32 -6 25 C-5.41 19.07 -4.2 13.68 -2.44 8 C-2.2 7.23 -1.97 6.45 -1.73 5.65 C-1.16 3.77 -0.58 1.88 0 0 Z " fill="#C6C9CD" transform="translate(728,458)"/>
<path d="M0 0 C0.66 0.33 1.32 0.66 2 1 C0.55 4.63 -1.24 6.15 -4.5 8.25 C-5.29 8.77 -6.09 9.29 -6.91 9.83 C-9 11 -9 11 -11 11 C-11.6 11.64 -12.2 12.28 -12.81 12.94 C-15.27 15.25 -16.71 15.63 -20 16 C-16.24 12.01 -12.25 8.87 -7.75 5.75 C-3.7 3.09 -3.7 3.09 0 0 Z " fill="#DAF039" transform="translate(487,603)"/>
<path d="M0 0 C2.39 3.59 3.09 6.75 3 11 C2.25 13.56 1.24 15.62 0 18 C-2.44 15.56 -2.68 13.61 -3.05 10.24 C-2.97 6.42 -1.55 3.47 0 0 Z " fill="#E6F86C" transform="translate(379,499)"/>
<path d="M0 0 C1.79 2.69 2.66 4.66 3.62 7.69 C3.89 8.5 4.15 9.3 4.41 10.14 C4.61 10.75 4.8 11.37 5 12 C5.66 12 6.32 12 7 12 C8.36 14.62 9.72 17.25 11.06 19.88 C11.45 20.62 11.84 21.37 12.24 22.14 C12.61 22.85 12.97 23.57 13.35 24.3 C13.69 24.96 14.03 25.62 14.38 26.3 C14.58 26.86 14.79 27.42 15 28 C14.67 28.66 14.34 29.32 14 30 C13.46 29.02 12.91 28.05 12.36 27.04 C11.63 25.76 10.91 24.47 10.19 23.19 C9.65 22.22 9.65 22.22 9.11 21.24 C7.33 18.1 5.63 15.46 3 13 C0.69 8.47 -0.37 5.09 0 0 Z " fill="#E1F24D" transform="translate(399,582)"/>
<path d="M0 0 C1.56 3.97 0.36 6.81 -0.94 10.75 C-1.32 11.92 -1.7 13.09 -2.09 14.3 C-2.39 15.19 -2.69 16.08 -3 17 C-4.51 15.66 -4.51 15.66 -6 14 C-5.81 11.38 -5.81 11.38 -5 9 C-4.34 8.67 -3.68 8.34 -3 8 C-3.21 7.4 -3.41 6.8 -3.62 6.19 C-4 4 -4 4 -2 1 C-1.34 0.67 -0.68 0.34 0 0 Z " fill="#D9DCE0" transform="translate(699,576)"/>
<path d="M0 0 C2 3 2 3 2 6 C2.66 6 3.32 6 4 6 C4.33 6.99 4.66 7.98 5 9 C4.34 9 3.68 9 3 9 C2.67 9.99 2.34 10.98 2 12 C1.67 11.01 1.34 10.02 1 9 C0.34 8.67 -0.32 8.34 -1 8 C-0.67 9.32 -0.34 10.64 0 12 C-0.66 12 -1.32 12 -2 12 C-2.33 13.98 -2.66 15.96 -3 18 C-4.63 13.94 -3.3 10.8 -2.06 6.75 C-1.68 5.49 -1.3 4.22 -0.91 2.92 C-0.61 1.96 -0.31 0.99 0 0 Z M0 5 C0 5.66 0 6.32 0 7 C0.66 6.67 1.32 6.34 2 6 C1.34 5.67 0.68 5.34 0 5 Z " fill="#C7CACE" transform="translate(733,440)"/>
<path d="M0 0 C1.19 3.43 0.8 5.38 -0.44 8.75 C-0.72 9.55 -1.01 10.35 -1.31 11.17 C-1.54 11.78 -1.76 12.38 -2 13 C-2.33 12.34 -2.66 11.68 -3 11 C-3.66 11 -4.32 11 -5 11 C-4.34 7.7 -3.68 4.4 -3 1 C-2.01 0.67 -1.02 0.34 0 0 Z " fill="#E3E5E7" transform="translate(760,357)"/>
<path d="M0 0 C0.33 0.66 0.66 1.32 1 2 C1.66 2 2.32 2 3 2 C2.34 4.97 1.68 7.94 1 11 C0.34 11 -0.32 11 -1 11 C-1.66 11.66 -2.32 12.32 -3 13 C-2.69 11.4 -2.38 9.79 -2.06 8.19 C-1.89 7.29 -1.71 6.4 -1.54 5.48 C-1 3 -1 3 0 0 Z " fill="#D9DDE0" transform="translate(692,592)"/>
<path d="M0 0 C-0.75 6.62 -0.75 6.62 -3 10 C-3.33 9.67 -3.66 9.34 -4 9 C-4.66 9.66 -5.32 10.32 -6 11 C-5.72 9.35 -5.42 7.71 -5.12 6.06 C-4.96 5.15 -4.8 4.23 -4.63 3.29 C-4.42 2.53 -4.22 1.78 -4 1 C-2 0 -2 0 0 0 Z " fill="#E1E3E5" transform="translate(749,400)"/>
<path d="M0 0 C0.66 0.33 1.32 0.66 2 1 C2 1.99 2 2.98 2 4 C-0.75 6.25 -0.75 6.25 -4 8 C-5.32 7.67 -6.64 7.34 -8 7 C-5.36 4.69 -2.72 2.38 0 0 Z " fill="#DDF04B" transform="translate(497,595)"/>
<path d="M0 0 C1.32 0 2.64 0 4 0 C2.65 4.42 0.74 6.34 -3 9 C-2.5 5.27 -2.13 3.19 0 0 Z " fill="#CDEB16" transform="translate(527,560)"/>
<path d="M0 0 C0.98 3.18 1.02 5.76 0.69 9.06 C0.61 9.92 0.53 10.78 0.45 11.66 C0 14 0 14 -2 17 C-2.66 17.33 -3.32 17.66 -4 18 C-3.31 11.81 -1.72 5.98 0 0 Z " fill="#C9CCD0" transform="translate(751,375)"/>
<path d="M0 0 C3 2 3 2 3.75 3.94 C4 6 4 6 3 9 C0.94 9.69 0.94 9.69 -1 10 C-1.12 3.38 -1.12 3.38 0 0 Z " fill="#C9CCD0" transform="translate(698,566)"/>
<path d="M0 0 C0.33 1.32 0.66 2.64 1 4 C-1.39 5.89 -3.07 7.02 -6 8 C-4.56 4.63 -2.67 2.49 0 0 Z " fill="#E7FF65" transform="translate(424,463)"/>
<path d="M0 0 C-0.33 2.31 -0.66 4.62 -1 7 C-1.99 7 -2.98 7 -4 7 C-5 4 -5 4 -4 1 C-2 0 -2 0 0 0 Z " fill="#D9DCE0" transform="translate(692,605)"/>
<path d="M0 0 C0.66 0.33 1.32 0.66 2 1 C1.38 2.94 1.38 2.94 0 5 C-3.12 5.75 -3.12 5.75 -6 6 C-4 4 -2 2 0 0 Z " fill="#DEF151" transform="translate(487,603)"/>
<path d="M0 0 C-0.33 1.98 -0.66 3.96 -1 6 C-2.32 6.33 -3.64 6.66 -5 7 C-4.62 4.06 -4.62 4.06 -4 1 C-2 0 -2 0 0 0 Z " fill="#DCDFE2" transform="translate(709,544)"/>
</svg>
