<?xml version="1.0" encoding="UTF-8"?>
<!-- Generator: https://ezgif.com/png-to-svg -->
<svg version="1.1" xmlns="http://www.w3.org/2000/svg" width="3332" height="1568">
<path d="M0 0 C1099.56 0 2199.12 0 3332 0 C3332 517.44 3332 1034.88 3332 1568 C2232.44 1568 1132.88 1568 0 1568 C0 1050.56 0 533.12 0 0 Z " fill="#FDFDFD" transform="translate(0,0)"/>
<path d="M0 0 C2.94 0.02 5.87 -0 8.81 -0.02 C19.36 -0.03 28.9 0.58 39.11 3.39 C40.26 3.68 41.4 3.98 42.58 4.28 C46.02 5.16 49.44 6.08 52.86 7.02 C54.02 7.33 55.18 7.64 56.38 7.96 C64.84 10.25 64.84 10.25 67.11 11.39 C67.11 12.05 67.11 12.71 67.11 13.39 C67.93 13.65 67.93 13.65 68.76 13.91 C74.39 15.72 79.75 17.89 85.11 20.39 C85.11 21.05 85.11 21.71 85.11 22.39 C85.98 22.62 86.84 22.84 87.73 23.08 C90.9 24.31 92.77 25.66 95.27 27.9 C97.61 29.8 100.11 31.31 102.67 32.89 C106.67 35.39 109.95 37.85 113.11 41.39 C113.89 42.17 114.68 42.96 115.48 43.77 C116.97 45.25 118.44 46.73 119.91 48.23 C120.53 48.86 121.16 49.49 121.8 50.14 C122.38 50.73 122.96 51.33 123.56 51.94 C125.06 53.49 125.06 53.49 127.11 54.39 C127.11 55.05 127.11 55.71 127.11 56.39 C127.77 56.39 128.43 56.39 129.11 56.39 C130.55 58.11 130.55 58.11 132.11 60.33 C134.16 63.38 134.16 63.38 137.11 65.39 C138.13 67.04 139.13 68.71 140.11 70.39 C141.43 72.22 142.77 74.04 144.12 75.84 C145.11 77.39 145.11 77.39 145.11 79.39 C146.1 79.72 147.09 80.05 148.11 80.39 C150.1 83.05 152.11 86 152.11 89.39 C153.1 89.72 154.09 90.05 155.11 90.39 C156.28 92.03 156.28 92.03 157.37 94.14 C157.77 94.89 158.16 95.65 158.57 96.42 C158.98 97.22 159.38 98.01 159.8 98.83 C160.21 99.62 160.63 100.41 161.06 101.22 C164.11 107.1 164.11 107.1 164.11 109.39 C164.77 109.39 165.43 109.39 166.11 109.39 C167.28 111.51 168.45 113.64 169.61 115.77 C169.94 116.37 170.28 116.97 170.62 117.59 C173.11 122.16 173.11 122.16 173.11 124.39 C173.77 124.39 174.43 124.39 175.11 124.39 C176.4 126.06 177.62 127.77 178.8 129.52 C185.68 139.15 194.74 145.68 206.11 149.39 C213.7 150.51 221.28 150.57 228.94 150.62 C231.27 150.64 233.61 150.66 235.94 150.69 C242.57 150.76 249.2 150.82 255.83 150.87 C327.58 151.44 327.58 151.44 342.11 162.39 C344.21 163.28 346.34 164.11 348.48 164.89 C352.85 166.49 356.98 168.25 361.11 170.39 C361.11 171.05 361.11 171.71 361.11 172.39 C361.79 172.64 362.47 172.89 363.17 173.14 C369.32 175.76 373.51 178.58 378.11 183.39 C382.09 187.04 386.11 190.62 390.36 193.95 C393.08 196.37 394.88 198.71 396.89 201.7 C398.22 203.64 398.22 203.64 400.67 205.95 C403.29 208.57 405.21 211.22 407.11 214.39 C407.11 215.05 407.11 215.71 407.11 216.39 C407.77 216.39 408.43 216.39 409.11 216.39 C410.45 218.82 411.78 221.26 413.11 223.7 C413.68 224.74 413.68 224.74 414.27 225.8 C417.11 231.05 417.11 231.05 417.11 234.39 C417.77 234.39 418.43 234.39 419.11 234.39 C422.06 240.46 424.2 246.6 426.08 253.08 C426.84 255.53 427.67 257.8 428.63 260.16 C430.41 264.85 431.14 269.56 431.8 274.52 C431.92 275.44 432.05 276.37 432.18 277.33 C435.67 304.7 428.58 332.96 415.61 357.14 C415.04 358.21 414.48 359.28 413.89 360.38 C412.17 363.29 410.24 365.77 408.11 368.39 C407.15 369.97 406.23 371.58 405.36 373.2 C404.93 373.99 404.5 374.78 404.06 375.6 C403.75 376.19 403.43 376.78 403.11 377.39 C402.45 377.39 401.79 377.39 401.11 377.39 C400.86 377.94 400.61 378.49 400.36 379.06 C398.87 381.84 397.07 384.17 395.11 386.64 C394.41 387.53 393.71 388.43 392.98 389.34 C392.37 390.02 391.75 390.7 391.11 391.39 C390.45 391.39 389.79 391.39 389.11 391.39 C388.78 392.38 388.45 393.37 388.11 394.39 C387.45 394.39 386.79 394.39 386.11 394.39 C385.88 394.96 385.65 395.54 385.41 396.13 C380.34 404.97 368.02 410.94 359.11 415.39 C358.45 415.39 357.79 415.39 357.11 415.39 C357.11 416.05 357.11 416.71 357.11 417.39 C354.3 418.5 351.49 419.6 348.67 420.7 C347.89 421.01 347.11 421.32 346.3 421.64 C313.65 434.4 282.24 432.11 247.95 429.11 C233.82 427.88 219.79 426.97 205.61 426.95 C204.88 426.95 204.14 426.94 203.39 426.94 C187.28 426.85 175.79 430.69 164.11 442.07 C159.59 446.34 159.59 446.34 156.11 451.39 C155.45 451.39 154.79 451.39 154.11 451.39 C153.71 452.24 153.71 452.24 153.31 453.1 C152.02 455.57 150.54 457.75 148.92 460.02 C148.3 460.9 147.68 461.78 147.04 462.69 C145.81 464.41 144.58 466.13 143.34 467.84 C135.6 478.51 135.6 478.51 130.11 490.39 C129.12 490.89 129.12 490.89 128.11 491.39 C127.01 493.38 125.98 495.41 124.98 497.45 C124.18 499.11 124.18 499.11 123.35 500.8 C122.94 501.66 122.53 502.51 122.11 503.39 C121.45 503.39 120.79 503.39 120.11 503.39 C119.9 504.17 119.7 504.96 119.48 505.77 C117.64 510.64 115.18 515.17 112.11 519.39 C111.45 519.39 110.79 519.39 110.11 519.39 C109.85 520.12 109.58 520.85 109.31 521.6 C108.1 524.4 106.72 526.56 104.92 529.02 C102.3 532.67 99.85 536.37 97.48 540.2 C95.01 544.13 92.52 547.22 89.11 550.39 C87.62 552 86.14 553.63 84.67 555.27 C83.88 556.14 83.1 557.01 82.29 557.91 C80.57 559.87 78.96 561.85 77.36 563.89 C54.92 589.95 17.98 592.97 -13.89 595.39 C-17.74 595.59 -21.6 595.72 -25.45 595.83 C-55.51 595.83 -55.51 595.83 -81.89 607.39 C-82.86 607.78 -83.83 608.17 -84.83 608.58 C-98.28 614.15 -109.01 624.52 -118.14 635.58 C-118.59 636.11 -119.03 636.64 -119.49 637.19 C-121.94 640.13 -121.94 640.13 -123.89 643.39 C-124.55 643.39 -125.21 643.39 -125.89 643.39 C-126.1 644.05 -126.3 644.71 -126.52 645.39 C-127.71 647.99 -128.74 649.53 -130.52 651.7 C-134.91 657.38 -137.78 663.87 -140.88 670.31 C-142.46 673.56 -144.08 676.79 -145.7 680.02 C-146.25 681.1 -146.79 682.19 -147.35 683.31 C-147.86 684.32 -148.37 685.34 -148.89 686.39 C-149.38 687.41 -149.88 688.44 -150.38 689.49 C-151.81 692.24 -153.38 694.64 -155.2 697.14 C-157.55 700.42 -159.7 703.71 -161.7 707.2 C-169.49 720.37 -180.08 731.67 -190.89 742.39 C-191.71 743.22 -192.53 744.05 -193.38 744.9 C-213.02 764.39 -213.02 764.39 -218.89 764.39 C-218.89 765.05 -218.89 765.71 -218.89 766.39 C-220.57 767.68 -220.57 767.68 -222.77 769.02 C-223.84 769.69 -223.84 769.69 -224.95 770.37 C-226.89 771.39 -226.89 771.39 -228.89 771.39 C-229.22 772.38 -229.55 773.37 -229.89 774.39 C-231.44 775.47 -231.44 775.47 -233.42 776.43 C-234.13 776.79 -234.84 777.14 -235.57 777.5 C-236.69 778.03 -236.69 778.03 -237.83 778.58 C-238.94 779.13 -238.94 779.13 -240.08 779.69 C-245.6 782.39 -245.6 782.39 -247.89 782.39 C-247.89 783.05 -247.89 783.71 -247.89 784.39 C-249.39 784.97 -249.39 784.97 -250.93 785.56 C-252.27 786.09 -253.61 786.61 -254.95 787.14 C-255.94 787.52 -255.94 787.52 -256.94 787.91 C-260.34 789.24 -263.5 790.68 -266.64 792.55 C-270.33 794.64 -272.72 795.05 -276.89 795.39 C-276.89 796.05 -276.89 796.71 -276.89 797.39 C-287.6 801.13 -298.45 803.35 -309.64 805.14 C-311.59 805.46 -311.59 805.46 -313.58 805.78 C-350.09 811.43 -385.02 808.11 -419.89 796.39 C-419.89 795.73 -419.89 795.07 -419.89 794.39 C-420.59 794.28 -421.28 794.17 -422 794.05 C-425.26 793.31 -428.13 792.15 -431.2 790.83 C-432.27 790.37 -433.34 789.92 -434.44 789.45 C-435.25 789.1 -436.06 788.75 -436.89 788.39 C-436.89 787.73 -436.89 787.07 -436.89 786.39 C-437.78 786.12 -438.66 785.85 -439.58 785.58 C-442.73 784.45 -445.09 783.19 -447.89 781.39 C-449.22 780.56 -450.56 779.72 -451.89 778.89 C-452.57 778.46 -453.25 778.03 -453.95 777.59 C-455.57 776.59 -457.23 775.64 -458.89 774.7 C-459.88 774.05 -459.88 774.05 -460.89 773.39 C-460.89 772.73 -460.89 772.07 -460.89 771.39 C-461.88 771.39 -462.87 771.39 -463.89 771.39 C-464.88 769.91 -464.88 769.91 -465.89 768.39 C-466.88 767.9 -467.87 767.4 -468.89 766.89 C-473.73 764.3 -476.92 760.16 -480.46 756.05 C-482.78 753.51 -485.17 751.49 -487.89 749.39 C-489.58 747.74 -491.25 746.08 -492.89 744.39 C-493.55 743.73 -494.21 743.07 -494.89 742.39 C-494.89 741.4 -494.89 740.41 -494.89 739.39 C-495.88 739.39 -496.87 739.39 -497.89 739.39 C-497.89 738.73 -497.89 738.07 -497.89 737.39 C-498.55 737.39 -499.21 737.39 -499.89 737.39 C-501.15 735.77 -501.15 735.77 -502.58 733.52 C-504.67 730.25 -506.84 727.08 -509.14 723.95 C-517.65 711.75 -528.89 694.81 -528.89 679.39 C-529.55 679.39 -530.21 679.39 -530.89 679.39 C-531.54 676.43 -532.19 673.48 -532.83 670.52 C-533.01 669.69 -533.19 668.87 -533.38 668.02 C-535.9 656.31 -536.13 644.71 -536.14 632.77 C-536.14 631.95 -536.14 631.13 -536.14 630.28 C-536.13 609.18 -533.13 589.04 -528.89 568.39 C-528.23 568.39 -527.57 568.39 -526.89 568.39 C-526.74 567.41 -526.6 566.42 -526.45 565.41 C-524.55 553.43 -521.39 541.99 -517.89 530.39 C-517.62 529.49 -517.36 528.6 -517.09 527.67 C-516.82 526.79 -516.56 525.91 -516.29 525 C-516.06 524.2 -515.82 523.41 -515.58 522.59 C-514.95 520.57 -514.23 518.61 -513.45 516.64 C-509.54 506.4 -507.15 495.61 -504.73 484.94 C-503.78 480.84 -502.75 476.87 -501.34 472.91 C-499.64 467.98 -498.93 463.05 -498.27 457.89 C-498.14 457.01 -498.02 456.12 -497.9 455.21 C-497.55 452.6 -497.22 450 -496.89 447.39 C-496.79 446.63 -496.69 445.87 -496.59 445.09 C-493.99 423.98 -495.79 401.49 -500.3 380.77 C-500.92 377.24 -500.99 373.96 -500.89 370.39 C-501.55 370.39 -502.21 370.39 -502.89 370.39 C-503.12 369.34 -503.34 368.28 -503.58 367.2 C-504.43 363.26 -505.28 359.33 -506.14 355.39 C-506.51 353.7 -506.88 352 -507.25 350.3 C-507.77 347.85 -508.31 345.4 -508.85 342.95 C-509.01 342.2 -509.17 341.45 -509.33 340.67 C-510.11 337.17 -511.01 333.92 -512.46 330.64 C-513.65 327.93 -514.37 325.81 -514.8 322.93 C-514.93 322.14 -515.05 321.35 -515.17 320.53 C-515.28 319.7 -515.4 318.87 -515.52 318.02 C-515.7 316.7 -515.7 316.7 -515.89 315.35 C-517.02 307.04 -517.67 298.77 -517.89 290.39 C-517.91 289.6 -517.93 288.8 -517.96 287.98 C-519.03 242.21 -519.03 242.21 -508.96 224.39 C-507.02 220.77 -505.58 216.93 -504.04 213.13 C-503.07 210.82 -502.04 208.61 -500.89 206.39 C-500.23 206.39 -499.57 206.39 -498.89 206.39 C-498.66 205.57 -498.44 204.74 -498.2 203.89 C-496.64 199.73 -494.66 195.89 -491.89 192.39 C-491.23 192.39 -490.57 192.39 -489.89 192.39 C-489.62 191.63 -489.35 190.86 -489.08 190.08 C-487.89 187.4 -486.94 186.39 -484.89 184.39 C-483.83 183.05 -482.79 181.69 -481.77 180.33 C-475.51 172.23 -468.77 164.93 -460.89 158.39 C-460.31 157.88 -459.73 157.38 -459.13 156.85 C-455.14 153.39 -455.14 153.39 -452.89 153.39 C-452.56 152.4 -452.23 151.41 -451.89 150.39 C-449.68 148.79 -449.68 148.79 -446.95 147.2 C-446.06 146.67 -445.16 146.14 -444.24 145.6 C-441.89 144.39 -441.89 144.39 -439.89 144.39 C-439.89 143.73 -439.89 143.07 -439.89 142.39 C-439.07 142.01 -439.07 142.01 -438.24 141.61 C-435.75 140.44 -433.26 139.26 -430.77 138.08 C-429.91 137.67 -429.05 137.27 -428.17 136.85 C-426.91 136.26 -426.91 136.26 -425.63 135.65 C-424.81 135.26 -423.99 134.88 -423.14 134.48 C-421.3 133.59 -419.48 132.65 -417.66 131.7 C-414.67 130.29 -411.86 129.54 -408.64 128.83 C-404.3 127.99 -404.3 127.99 -400.89 125.39 C-376.82 118.01 -349.38 119.09 -324.53 119.29 C-321.01 119.31 -317.48 119.32 -313.96 119.33 C-303.55 119.36 -293.14 119.42 -282.74 119.48 C-274.6 119.53 -266.45 119.57 -258.31 119.59 C-254.83 119.6 -251.35 119.62 -247.86 119.65 C-223.28 120.06 -223.28 120.06 -199.89 113.39 C-198.62 112.92 -197.35 112.46 -196.07 112.04 C-195.43 111.83 -194.79 111.62 -194.14 111.4 C-193.18 111.09 -193.18 111.09 -192.2 110.77 C-191.55 110.55 -190.9 110.33 -190.23 110.11 C-187.14 109.09 -184.07 108.11 -180.89 107.39 C-180.89 106.73 -180.89 106.07 -180.89 105.39 C-179.44 104.55 -177.98 103.72 -176.52 102.89 C-175.7 102.43 -174.89 101.96 -174.05 101.48 C-171.89 100.39 -171.89 100.39 -169.89 100.39 C-169.89 99.73 -169.89 99.07 -169.89 98.39 C-168.9 98.39 -167.91 98.39 -166.89 98.39 C-166.89 97.73 -166.89 97.07 -166.89 96.39 C-165.03 94.92 -165.03 94.92 -162.58 93.33 C-161.78 92.8 -160.98 92.27 -160.15 91.73 C-157.89 90.39 -157.89 90.39 -154.89 89.39 C-154.21 88.07 -153.54 86.73 -152.89 85.39 C-151.16 83.65 -151.16 83.65 -149.14 81.95 C-148.43 81.35 -147.71 80.74 -146.98 80.12 C-145.22 78.67 -143.46 77.22 -141.7 75.77 C-137.79 72.46 -134.34 68.95 -131.08 65.02 C-128.38 61.82 -125.42 59.18 -122.23 56.48 C-118.76 53.39 -115.52 50.07 -112.28 46.74 C-108.98 43.39 -105.62 40.27 -101.89 37.39 C-101.23 37.39 -100.57 37.39 -99.89 37.39 C-99.56 36.4 -99.23 35.41 -98.89 34.39 C-97.17 33.4 -95.45 32.42 -93.7 31.48 C-91.67 30.37 -91.67 30.37 -89.64 28.02 C-85.82 24.37 -79.39 19.39 -73.89 19.39 C-73.89 18.73 -73.89 18.07 -73.89 17.39 C-72.27 16.72 -70.64 16.05 -69.02 15.39 C-67.66 14.83 -67.66 14.83 -66.27 14.27 C-63.89 13.39 -63.89 13.39 -61.89 13.39 C-61.89 12.73 -61.89 12.07 -61.89 11.39 C-59.29 10.43 -56.68 9.47 -54.06 8.54 C-52.09 7.82 -50.12 7.09 -48.16 6.34 C-32.63 0.66 -16.37 -0.11 0 0 Z " fill="#6CC0D9" transform="translate(1769.890380859375,433.60888671875)"/>
<path d="M0 0 C2.99 0.02 5.98 0.02 8.98 0.01 C10.91 0.02 12.85 0.03 14.78 0.04 C15.66 0.03 16.54 0.03 17.44 0.03 C23.17 0.1 28.28 0.93 33.83 2.34 C30.34 3.38 27.63 3.12 24.02 2.6 C20.35 2.15 16.68 2.19 12.98 2.2 C12.16 2.2 11.33 2.2 10.48 2.2 C8.75 2.2 7.02 2.2 5.28 2.21 C2.67 2.21 0.06 2.21 -2.55 2.2 C-11.81 2.2 -20.95 2.42 -30.17 3.34 C-30.17 4 -30.17 4.66 -30.17 5.34 C-34.72 8 -37.9 8.65 -43.17 8.34 C-43.17 9 -43.17 9.66 -43.17 10.34 C-45.87 11.69 -48.17 11.4 -51.17 11.34 C-51.17 12 -51.17 12.66 -51.17 13.34 C-53.81 13.67 -56.45 14 -59.17 14.34 C-59.17 15 -59.17 15.66 -59.17 16.34 C-59.75 16.4 -60.33 16.46 -60.92 16.52 C-65.37 17 -69.76 17.55 -74.17 18.34 C-71.82 15.99 -70.21 15.6 -67.04 14.71 C-66.13 14.45 -65.22 14.19 -64.28 13.92 C-63.58 13.73 -62.88 13.54 -62.17 13.34 C-62.17 12.68 -62.17 12.02 -62.17 11.34 C-59.56 10.37 -56.95 9.42 -54.34 8.48 C-52.36 7.77 -50.39 7.04 -48.43 6.29 C-32.8 0.57 -16.49 -0.14 0 0 Z " fill="#92D5F9" transform="translate(1770.1650390625,433.663818359375)"/>
<path d="M0 0 C2.67 0.46 5 1 7.5 2.06 C10.18 3.07 12.17 3.16 15 3 C15 3.99 15 4.98 15 6 C17.97 6.49 17.97 6.49 21 7 C21 7.66 21 8.32 21 9 C23.56 9.65 26.12 10.29 28.69 10.94 C29.41 11.12 30.13 11.3 30.87 11.49 C34.57 12.42 38.25 13.3 42 14 C42 14.66 42 15.32 42 16 C33.55 13.96 25.19 11.93 17 9 C17 8.34 17 7.68 17 7 C16.31 6.89 15.61 6.78 14.89 6.66 C11.63 5.92 8.76 4.76 5.69 3.44 C4.62 2.98 3.55 2.53 2.45 2.06 C1.64 1.71 0.83 1.36 0 1 C0 0.67 0 0.34 0 0 Z " fill="#A7E9EB" transform="translate(1333,1221)"/>
<path d="M0 0 C4.13 0.61 7.33 2.04 11 4 C11 4.99 11 5.98 11 7 C8.03 6.5 8.03 6.5 5 6 C4.67 5.01 4.34 4.02 4 3 C1.98 2.27 1.98 2.27 0 2 C0 1.34 0 0.68 0 0 Z " fill="#93E1F8" transform="translate(2120,600)"/>
<path d="M0 0 C0.33 0 0.66 0 1 0 C1 1.98 1 3.96 1 6 C0.01 6 -0.98 6 -2 6 C-2 6.66 -2 7.32 -2 8 C-2.66 7.67 -3.32 7.34 -4 7 C-2.68 4.69 -1.36 2.38 0 0 Z " fill="#99DDF6" transform="translate(1275,631)"/>
</svg>
