<svg width="277" height="79" viewBox="0 0 277 79" fill="none" xmlns="http://www.w3.org/2000/svg">
<path d="M43.8358 17.5574C45.5714 20.1556 45.5714 20.1556 47.3421 22.824C48.2713 21.4723 48.2713 21.4723 49.2005 20.0854C52.6016 17.5574 52.6016 17.5574 58.7377 18.2245C60.7714 18.5756 62.7875 18.9443 64.8738 19.3129C66.6094 18.7336 68.3451 18.1543 70.1333 17.5574C73.3766 17.3818 76.6375 17.3116 79.8984 17.294C81.897 17.294 83.8956 17.2765 85.9644 17.2765C88.1208 17.2589 90.2947 17.2589 92.5212 17.2589C94.7477 17.2589 96.9742 17.2589 99.2533 17.2414C103.969 17.2414 108.685 17.2238 113.401 17.2238C119.415 17.2238 125.428 17.2063 131.459 17.1712C137.209 17.1536 142.977 17.1536 148.728 17.1536C150.884 17.136 153.04 17.136 155.249 17.1185C158.282 17.1185 158.282 17.1185 161.368 17.136C163.139 17.136 164.909 17.1185 166.733 17.1185C172.36 17.61 177.059 19.0847 182.336 21.0685C183.493 19.9098 184.65 18.7512 185.842 17.5574C189.173 17.1185 189.173 17.1185 193.258 17.136C194.801 17.1185 196.326 17.1185 197.904 17.1185C199.569 17.1185 201.235 17.136 202.935 17.1536C204.636 17.1536 206.337 17.1536 208.09 17.1536C211.684 17.1536 215.278 17.1712 218.872 17.1887C224.394 17.2238 229.899 17.2238 235.422 17.2238C238.91 17.2414 242.399 17.2589 245.888 17.2589C248.378 17.2589 248.378 17.2589 250.92 17.2765C252.445 17.2765 253.97 17.294 255.565 17.294C256.915 17.3116 258.265 17.3116 259.65 17.3292C262.981 17.5574 262.981 17.5574 266.488 19.3129C266.558 23.4034 266.558 27.5114 266.488 31.6018C264.735 33.3574 264.735 33.3574 258.493 33.4627C256.495 33.4276 254.514 33.3925 252.462 33.3574C252.48 35.4992 252.497 37.6234 252.533 39.8178C252.533 42.6092 252.55 45.3829 252.568 48.1743C252.585 49.5787 252.603 50.9832 252.62 52.4403C252.638 56.0216 252.55 59.6205 252.462 63.2018C250.709 64.9574 250.709 64.9574 244.573 65.168C238.437 64.9574 238.437 64.9574 236.684 63.2018C236.561 58.1809 236.526 53.1952 236.579 48.1743C236.579 46.7523 236.596 45.3303 236.596 43.8732C236.614 40.3796 236.649 36.8685 236.684 33.3574C233.213 33.3574 229.741 33.3574 226.165 33.3574C226.2 35.3412 226.253 37.3249 226.288 39.3789C226.323 41.9772 226.358 44.5754 226.375 47.1912C226.41 48.4903 226.445 49.8069 226.48 51.1587C226.498 54.582 226.34 58.0229 226.165 61.4463C222.659 64.9574 222.659 64.9574 218.994 65.3787C217.504 65.3787 216.032 65.3612 214.506 65.3612C212.893 65.3612 211.281 65.3612 209.598 65.3436C207.914 65.326 206.214 65.3085 204.461 65.2909C202.795 65.2909 201.112 65.2909 199.377 65.2909C186.789 65.2032 186.789 65.2032 182.02 63.9567C178.689 62.8156 178.689 62.8156 175.323 64.9574C171.957 65.1329 168.573 65.1856 165.19 65.1856C163.069 65.1856 160.947 65.2032 158.756 65.2032C156.459 65.2032 154.145 65.1856 151.778 65.1856C149.394 65.1856 147.01 65.1856 144.625 65.2032C139.646 65.2032 134.65 65.2032 129.653 65.1856C123.254 65.168 116.855 65.1856 110.456 65.1856C105.547 65.2032 100.621 65.2032 95.712 65.1856C92.2056 65.1856 88.6993 65.2032 85.193 65.2032C83.0541 65.2032 80.9328 65.1856 78.7413 65.1856C75.9187 65.1856 75.9187 65.1856 73.0435 65.1856C68.3801 64.9574 68.3801 64.9574 63.1206 63.2018C62.244 64.0796 62.244 64.0796 61.3675 64.9574C57.8611 65.0276 54.3548 65.0276 50.8485 64.9574C49.6914 62.64 48.5343 60.3227 47.3421 57.9352C44.2566 59.1289 44.2566 59.1289 41.1009 60.3578C22.3946 67.3274 22.3946 67.3274 12.2789 66.7129C8.29918 57.9176 5.2662 49.2803 2.84684 39.9407C2.4962 38.6943 2.14557 37.4654 1.7774 36.1838C-0.50171 27.3358 -0.501709 27.3358 1.67221 23.1049C6.86158 20.1732 12.2438 18.5229 17.9766 17.0132C19.0987 16.662 20.2382 16.3285 21.3953 15.9774C29.9157 13.66 35.7187 14.2043 43.8358 17.5574ZM5.2662 24.5796C6.19538 38.1852 9.7543 50.2985 14.032 63.2018C18.5727 62.2538 23.0959 61.2707 27.619 60.2349C28.8989 59.9716 30.1787 59.7083 31.4935 59.4449C37.9802 57.9352 41.5041 56.7063 46.5532 52.1418C50.4102 44.944 48.8323 40.3445 47.0266 32.6727C45.1332 26.6687 43.6254 23.1752 38.5763 19.3129C26.8652 17.6627 16.4339 21.1212 5.2662 24.5796ZM54.3548 21.0685C52.1984 22.8416 52.1984 22.8416 52.4088 26.4054C52.4088 27.9503 52.4263 29.4776 52.4263 31.0576C52.4439 32.7254 52.4439 34.3756 52.4439 36.0785C52.4614 37.834 52.4789 39.572 52.4964 41.3627C52.4964 43.1183 52.514 44.8738 52.514 46.6645C52.5315 51.0183 52.5666 55.3545 52.6016 59.6907C54.9158 59.6907 57.23 59.6907 59.6143 59.6907C59.6143 47.5247 59.6143 35.3587 59.6143 22.824C57.8787 22.2447 56.143 21.6654 54.3548 21.0685ZM65.7679 23.7896C62.0687 29.8112 62.3142 34.3405 62.4544 41.3627C62.472 42.5389 62.472 43.7327 62.472 44.944C62.5771 51.3518 62.9979 54.2309 66.627 59.6907C72.9734 61.8149 78.7764 61.6394 85.3683 61.5516C86.5955 61.5516 87.8227 61.534 89.085 61.534C92.118 61.5165 95.1509 61.4814 98.1839 61.4463C99.2183 58.0229 99.2183 58.0229 99.9371 54.424C97.8508 51.9312 97.8508 51.9312 91.8725 52.4929C89.2603 52.5105 86.6656 52.528 84.0534 52.5632C82.721 52.5632 81.3886 52.5807 80.0211 52.5807C76.7252 52.5983 73.4292 52.6334 70.1333 52.6685C70.1333 45.1372 70.1333 37.6058 70.1333 29.8463C79.39 29.8463 88.6467 29.8463 98.1839 29.8463C98.7625 27.5289 99.341 25.2116 99.9371 22.824C96.3606 19.2427 89.383 20.5769 84.4917 20.5243C83.2119 20.4716 81.9496 20.4189 80.6347 20.3663C74.7441 20.296 70.817 20.6472 65.7679 23.7896ZM103.443 22.824C103.268 25.5452 103.215 28.2663 103.215 31.0049C103.215 32.6552 103.198 34.3054 103.198 35.9907C103.215 37.7287 103.215 39.4667 103.233 41.2574C103.215 42.9954 103.215 44.7334 103.198 46.524C103.198 48.1743 103.215 49.8245 103.215 51.5098C103.215 53.0372 103.215 54.5645 103.215 56.1269C103.058 59.6907 103.058 59.6907 105.197 61.4463C107.686 61.6043 110.176 61.6394 112.648 61.6218C114.155 61.6043 115.645 61.6043 117.188 61.6043C118.766 61.5867 120.344 61.5692 121.957 61.5516C124.341 61.5516 124.341 61.5516 126.743 61.534C130.67 61.5165 134.58 61.4814 138.507 61.4463C139.541 58.0229 139.541 58.0229 140.26 54.424C138.174 51.9312 138.174 51.9312 132.195 52.4929C129.583 52.5105 126.988 52.528 124.376 52.5632C123.044 52.5632 121.711 52.5807 120.344 52.5807C117.048 52.5983 113.752 52.6334 110.456 52.6685C110.456 50.3512 110.456 48.0338 110.456 45.6463C117.977 45.6463 125.498 45.6463 133.247 45.6463C133.247 42.7496 133.247 39.8529 133.247 36.8685C125.726 36.8685 118.205 36.8685 110.456 36.8685C110.456 34.5512 110.456 32.2338 110.456 29.8463C119.713 29.8463 128.969 29.8463 138.507 29.8463C139.085 27.5289 139.664 25.2116 140.26 22.824C137.525 20.0854 134.895 20.8403 131.108 20.8403C129.618 20.8403 128.128 20.8227 126.603 20.8227C125.025 20.8403 123.465 20.8403 121.852 20.8578C119.502 20.8403 119.502 20.8403 117.101 20.8227C114.874 20.8403 114.874 20.8403 112.595 20.8403C110.526 20.8403 110.526 20.8403 108.422 20.8403C105.162 20.7174 105.162 20.7174 103.443 22.824ZM143.766 22.824C143.766 34.99 143.766 47.156 143.766 59.6907C151.848 59.9014 151.848 59.9014 160.088 60.1296C162.63 60.2174 162.63 60.2174 165.225 60.3227C173.71 60.6387 173.71 60.6387 180.793 56.5834C182.792 51.5274 182.073 47.4545 181.144 42.1878C180.583 38.624 180.583 38.624 180.793 32.8132C181.021 28.1083 181.021 28.1083 178.409 25.194C174.587 22.2623 172.676 22.2096 167.907 22.3149C165.996 22.3325 165.996 22.3325 164.068 22.35C162.455 22.4027 160.86 22.4378 159.212 22.4905C151.568 22.666 151.568 22.666 143.766 22.824ZM185.842 22.824C185.807 28.2487 185.772 33.6909 185.737 39.2912C185.719 40.994 185.702 42.6969 185.684 44.47C185.684 45.8043 185.667 47.156 185.667 48.5429C185.667 49.9123 185.649 51.2992 185.649 52.7212C185.614 56.32 185.614 56.32 187.595 59.6907C198.588 59.6907 209.58 59.6907 220.905 59.6907C221.484 57.9527 222.063 56.2147 222.659 54.424C213.402 53.8447 204.145 53.2654 194.608 52.6685C194.608 50.3512 194.608 48.0338 194.608 45.6463C201.55 45.6463 208.493 45.6463 215.646 45.6463C215.646 42.7496 215.646 39.8529 215.646 36.8685C208.125 36.8685 200.604 36.8685 192.855 36.8685C192.855 34.5512 192.855 32.2338 192.855 29.8463C202.111 29.8463 211.368 29.8463 220.905 29.8463C221.484 27.5289 222.063 25.2116 222.659 22.824C210.509 22.824 198.36 22.824 185.842 22.824ZM226.165 22.824C226.165 25.1414 226.165 27.4587 226.165 29.8463C231.372 29.8463 236.579 29.8463 241.943 29.8463C241.943 39.6949 241.943 49.5436 241.943 59.6907C244.258 59.6907 246.572 59.6907 248.956 59.6907C248.956 49.842 248.956 39.9934 248.956 29.8463C253.006 29.8463 257.056 29.8463 261.228 29.8463C261.807 27.5289 262.385 25.2116 262.981 22.824C250.832 22.824 238.682 22.824 226.165 22.824Z" fill="black"/>
<path d="M35.0627 26.3333C39.0599 30.336 39.4807 32.3197 40.6553 37.7444C41.1287 39.8335 41.1287 39.8335 41.602 41.9753C42.0754 45.6444 42.0754 45.6444 40.3222 49.1555C35.5536 50.6477 35.5536 50.6477 29.698 51.9995C26.7878 52.7017 26.7878 52.7017 23.8249 53.3864C22.3348 53.7375 20.827 54.0711 19.2843 54.4222C13.2534 37.9024 13.2534 37.9024 14.0248 29.8444C27.8397 25.5082 27.8397 25.5082 35.0627 26.3333ZM29.8032 29.8444C29.8032 31.5824 29.8032 33.3204 29.8032 35.1111C31.5389 34.5317 33.2745 33.9524 35.0627 33.3555C35.0627 32.1969 35.0627 31.0382 35.0627 29.8444C33.3271 29.8444 31.5915 29.8444 29.8032 29.8444ZM17.5311 33.3555C18.1096 35.0935 18.6882 36.8315 19.2843 38.6222C20.4413 38.0429 21.5984 37.4635 22.7906 36.8666C22.7906 35.708 22.7906 34.5493 22.7906 33.3555C21.0549 33.3555 19.3193 33.3555 17.5311 33.3555ZM26.2969 36.8666C26.2969 38.6046 26.2969 40.3426 26.2969 42.1333C27.454 42.1333 28.6111 42.1333 29.8032 42.1333C29.8032 40.3953 29.8032 38.6573 29.8032 36.8666C28.6462 36.8666 27.4891 36.8666 26.2969 36.8666ZM33.3096 42.1333C33.8881 43.8713 34.4667 45.6093 35.0627 47.4C36.2198 46.8206 37.3769 46.2413 38.5691 45.6444C38.5691 44.4857 38.5691 43.3271 38.5691 42.1333C36.8334 42.1333 35.0978 42.1333 33.3096 42.1333ZM22.7906 43.8889C22.212 45.6269 21.6335 47.3649 21.0374 49.1555C22.773 49.1555 24.5087 49.1555 26.2969 49.1555C25.7184 47.4175 25.1398 45.6795 24.5437 43.8889C23.9652 43.8889 23.3867 43.8889 22.7906 43.8889Z" fill="black"/>
<path d="M150.773 29.8438C158.295 29.8438 165.816 29.8438 173.565 29.8438C172.986 32.1611 172.407 34.4784 171.811 36.866C164.869 36.866 157.926 36.866 150.773 36.866C150.773 34.5486 150.773 32.2313 150.773 29.8438Z" fill="black"/>
<path d="M156.787 43.6562C159.399 43.6562 159.399 43.6562 162.046 43.6738C163.782 43.6738 165.518 43.6562 167.306 43.6562C171.811 43.8845 171.811 43.8845 175.318 45.64C174.652 49.0458 174.652 49.0458 173.565 52.6622C169.129 54.8918 165.991 54.5934 161.065 54.5407C159.469 54.5231 157.874 54.5056 156.226 54.488C154.999 54.4705 153.789 54.4354 152.527 54.4178C151.843 51.5211 151.264 48.5894 150.773 45.64C152.527 43.8845 152.527 43.8845 156.787 43.6562Z" fill="black"/>
</svg>
