<svg width="214" height="66" viewBox="0 0 214 66" fill="none" xmlns="http://www.w3.org/2000/svg">
<path d="M105.787 9.40844C105.403 9.4327 103.52 9.4509 101.613 9.45697L98.1339 9.46304L98.0669 9.93013C98.0242 10.191 97.8841 10.8522 97.7561 11.4042C97.6221 11.9562 97.4271 12.8298 97.3296 13.3454C96.9274 15.3897 96.3912 17.9618 96.2206 18.6533C96.1231 19.0537 95.9281 19.9515 95.7941 20.6551C95.5381 21.9715 94.7947 25.5687 94.6973 25.9934C94.6607 26.1268 94.3499 27.6252 93.9965 29.3298C93.6431 31.0283 93.3141 32.5994 93.2653 32.8178C92.5889 35.7538 91.9126 40.0366 91.681 42.7967C91.5165 44.7864 91.2728 46.3697 91.1387 46.3272C91.0961 46.3151 91.0473 45.8783 90.9986 45.1564C90.8523 42.7481 90.7853 41.905 90.6391 40.5522C90.5537 39.7818 90.4319 38.6231 90.3709 37.9741C90.176 36.0875 90.0663 35.3231 89.8835 34.577C89.786 34.1948 89.6397 33.4123 89.5483 32.8481C89.463 32.2779 89.268 31.1618 89.1218 30.361C88.9695 29.5603 88.7928 28.5472 88.7257 28.1165C88.6587 27.6798 88.5064 26.8487 88.3906 26.2663C88.2748 25.684 88.0981 24.7013 87.9945 24.0825C87.7752 22.7662 87.3791 20.5277 86.9586 18.2287C86.6357 16.4695 86.4955 15.6566 86.069 13.1937C85.8436 11.9016 85.5511 10.3062 85.3987 9.59649L85.3744 9.46304H79.8903C76.8741 9.46304 74.4062 9.4691 74.4062 9.48123C74.4062 9.49337 74.6561 10.6459 74.9181 11.8288C75.0034 12.211 75.1557 12.9753 75.2593 13.5274C75.3629 14.0794 75.5152 14.8559 75.6006 15.2562C75.6859 15.6566 75.8199 16.3542 75.9052 16.8031C75.9905 17.252 76.1672 18.1134 76.2952 18.714C76.5816 20.0424 77.1666 22.9603 77.3676 24.0825C77.4529 24.5314 77.5992 25.2715 77.7028 25.7204C77.8064 26.1693 78.1293 27.7526 78.4218 29.2388C78.7204 30.725 78.9763 32.0049 78.9946 32.0899C79.0616 32.4114 80.5789 39.9092 81.1395 42.6754C81.4624 44.2768 81.8463 46.1452 81.9925 46.8307C82.1388 47.5162 82.3155 48.4018 82.3825 48.8022C82.4556 49.2026 82.5775 49.8274 82.6628 50.1974C82.7481 50.5614 82.9248 51.4531 83.0589 52.1689C83.199 52.8847 83.3757 53.7583 83.4549 54.1101C83.5342 54.4619 83.7291 55.3719 83.8815 56.1423C84.0338 56.9066 84.2288 57.8529 84.308 58.2351C84.3933 58.6173 84.5578 59.4665 84.6736 60.1156C84.7955 60.7647 84.9844 61.6928 85.1002 62.1781C85.2098 62.6634 85.3134 63.1184 85.3256 63.1972L85.3439 63.3428L89.9749 63.3307C92.5219 63.3307 94.6241 63.3064 94.6424 63.2822C94.7277 63.1972 94.9471 62.354 95.1482 61.347C95.2639 60.789 95.4528 59.9033 95.5747 59.3877C95.6905 58.872 95.855 58.0652 95.9464 57.5982C96.0317 57.1311 96.184 56.4334 96.2815 56.0513C96.379 55.6691 96.5679 54.8198 96.702 54.1708C97.0432 52.5086 97.4697 50.5371 97.7196 49.4695C97.8414 48.972 98.006 48.2198 98.0852 47.8013C98.2863 46.7882 98.9992 43.47 99.1515 42.8391C99.2186 42.5662 99.5171 41.2013 99.8157 39.8061C100.114 38.4169 100.577 36.2513 100.852 35.0016C101.12 33.752 101.522 31.647 101.735 30.3307C102.253 27.2127 102.241 27.3037 102.338 26.1936C102.424 25.2836 102.515 24.9197 102.619 25.0288C102.734 25.1623 102.82 25.6112 103.015 27.1277C103.137 28.0195 103.283 29.0386 103.35 29.4026C103.411 29.7605 103.551 30.6583 103.655 31.3923C103.984 33.7277 104.465 36.5728 104.824 38.3077C104.928 38.8051 105.086 39.6241 105.178 40.1276C105.269 40.625 105.501 41.8018 105.684 42.736C105.873 43.6702 106.165 45.1868 106.336 46.1027C106.506 47.0187 106.78 48.4382 106.945 49.2572C107.335 51.1983 107.871 53.9524 108.103 55.1717C108.2 55.7055 108.377 56.6336 108.499 57.2342C108.615 57.8347 108.779 58.6658 108.864 59.0844C108.944 59.5029 109.102 60.2915 109.218 60.8436C109.334 61.3956 109.474 62.1296 109.529 62.4814C109.583 62.8333 109.644 63.173 109.657 63.2397C109.681 63.361 109.724 63.361 114.245 63.3428C117.785 63.3307 118.827 63.3125 118.876 63.2518C119.016 63.088 119.278 62.0386 119.656 60.1763C119.875 59.0904 120.174 57.6285 120.32 56.9309C120.905 54.1162 121.654 50.525 122.002 48.8325C122.361 47.0673 122.672 45.6053 123.269 42.736C123.44 41.9353 123.635 40.9647 123.708 40.5825C123.781 40.2004 123.939 39.436 124.067 38.884C124.201 38.332 124.378 37.4888 124.463 37.0035C124.555 36.5182 124.732 35.6447 124.86 35.0623C124.994 34.4739 125.158 33.6731 125.225 33.2728C125.298 32.8724 125.42 32.284 125.499 31.9686C125.579 31.6531 125.81 30.5733 126.011 29.5724C126.212 28.5715 126.529 27.0125 126.718 26.1147C126.907 25.2108 127.248 23.5608 127.48 22.4447C127.711 21.3285 128.01 19.8787 128.15 19.2296C128.406 18.0285 128.79 16.154 129.277 13.7397C129.424 13.0057 129.618 12.1018 129.704 11.7379C129.954 10.6641 130.161 9.68748 130.161 9.55403C130.161 9.4327 130.124 9.4327 124.543 9.44484L118.918 9.45697L118.839 9.99079C118.797 10.282 118.65 11.1919 118.516 12.0108C118.254 13.6184 118.108 14.498 117.907 15.7719C117.84 16.2208 117.724 16.8516 117.663 17.1671C117.596 17.4825 117.45 18.3864 117.334 19.1689C117.218 19.9515 117.072 20.8917 117.005 21.2617C116.932 21.6257 116.768 22.663 116.633 23.5669C116.493 24.4647 116.304 25.5991 116.207 26.0844C116.109 26.5697 115.988 27.2794 115.933 27.6616C115.878 28.0437 115.659 29.439 115.439 30.7553C114.385 37.1491 114.489 36.4697 114.257 38.702C114.08 40.4612 114.026 41.0678 113.922 42.7057C113.867 43.5246 113.8 44.4345 113.77 44.7379C113.739 45.0351 113.709 45.5083 113.703 45.7812C113.69 46.2908 113.636 46.4849 113.532 46.3757C113.501 46.3393 113.319 45.4537 113.13 44.4042C112.941 43.3548 112.764 42.3842 112.734 42.2507C112.703 42.1173 112.569 41.3529 112.435 40.5522C112.295 39.7515 112.094 38.6171 111.978 38.0347C111.862 37.4524 111.71 36.6152 111.643 36.1845C111.57 35.7478 111.43 35.0259 111.332 34.577C111.235 34.1281 111.064 33.2546 110.961 32.6358C110.863 32.0171 110.656 30.9009 110.504 30.1548C110.357 29.4086 110.181 28.4684 110.12 28.0619C110.053 27.6555 109.919 26.9276 109.815 26.4423C109.711 25.957 109.529 24.9864 109.413 24.2888C109.291 23.5912 109.114 22.6266 109.017 22.1413C108.919 21.6561 108.767 20.8311 108.682 20.2972C108.596 19.7695 108.462 19.0173 108.377 18.629C108.298 18.2408 108.103 17.2277 107.95 16.3785C107.798 15.5292 107.634 14.6254 107.585 14.3766C107.536 14.1279 107.426 13.5092 107.341 13.0117C107.14 11.8592 106.975 11.0099 106.787 10.1546C106.707 9.78454 106.64 9.46304 106.64 9.44484C106.64 9.37811 106.464 9.37204 105.787 9.40844Z" fill="black"/>
<path d="M2.64152 9.44502C2.52574 9.48748 2.52574 63.3066 2.64152 63.3369C2.67808 63.3491 7.57717 63.3551 13.5182 63.343L24.3157 63.3248V58.3141V53.3035L18.789 53.3277L13.2562 53.352V47.2858V41.2197L18.0395 41.1893L22.8228 41.159L22.8411 36.1665L22.8533 31.1801H18.1005H13.3476L13.2867 31.0224C13.2136 30.8344 13.2075 19.7211 13.2745 19.6059C13.3171 19.5452 13.7315 19.5331 15.2427 19.5452C16.2968 19.5573 18.7281 19.5573 20.6475 19.5452L24.1329 19.5331V14.5345C24.1329 10.5976 24.1146 9.52388 24.0598 9.48141C23.9806 9.43289 2.77557 9.39649 2.64152 9.44502Z" fill="black"/>
<path d="M135.533 10.2229C134.911 10.3321 133.973 10.6718 133.437 10.9872C132.145 11.7394 131.231 12.8374 130.731 14.2326C130.134 15.8947 130.116 16.8714 130.652 18.5396C130.981 19.5769 131.413 20.2927 132.193 21.0995C134.43 23.4229 138.153 23.6412 140.712 21.603C141.437 21.0328 142.046 20.3109 142.503 19.492C142.942 18.7155 143.259 16.9199 143.137 15.9251C142.942 14.36 142.54 13.4379 141.516 12.1822C140.937 11.4786 140.34 11.0236 139.573 10.696C138.634 10.2957 138.098 10.1804 137.013 10.1561C136.349 10.144 135.88 10.1683 135.533 10.2229Z" fill="black"/>
<path d="M39.8546 26.5458C38.7456 26.6428 38.3739 26.7156 37.2466 27.0917C35.7172 27.5952 35.1627 27.8743 33.9744 28.7175C32.7314 29.6031 31.7138 30.6526 30.8303 31.975C30.3123 32.7393 29.4897 34.2741 29.1729 35.0627C28.8012 35.9726 28.3381 37.386 28.1979 38.0351C27.7165 40.1947 27.6129 40.7346 27.552 41.3412C27.5155 41.7051 27.4667 42.1419 27.4484 42.3118C27.3631 43.1671 27.3144 45.7755 27.3631 46.9524C27.4545 49.118 27.5398 49.6822 28.1553 52.5029C28.4843 54.0074 29.2521 56.0577 29.9894 57.3983C31.2751 59.7399 32.835 61.4445 34.7178 62.5546C35.4673 62.9974 36.8871 63.5252 38.118 63.8164C38.971 64.0165 39.818 64.0772 41.2256 64.0408L42.5052 64.0105L43.6325 63.7011C44.9304 63.3432 46.1795 62.9246 46.3136 62.8033C46.3928 62.7305 46.405 62.1118 46.4233 58.1142C46.4354 55.5785 46.4233 53.5039 46.3989 53.5039C46.3745 53.5039 46.0942 53.6494 45.7713 53.8254C45.0705 54.2136 44.7719 54.3167 43.9676 54.4502C42.4686 54.6868 41.055 54.2925 40.0435 53.3461C38.9893 52.3574 38.447 51.3504 37.9961 49.5305C37.5391 47.6621 37.3867 46.0425 37.4842 44.0224C37.5452 42.7425 37.6366 42.1662 37.9656 40.8316C38.3617 39.2241 38.8187 38.211 39.5926 37.204C40.598 35.8877 42.3041 35.1597 43.9006 35.3539C44.778 35.463 45.1802 35.6147 45.8078 36.0636C46.1125 36.282 46.3745 36.4579 46.3989 36.4579C46.4172 36.4579 46.4354 34.4682 46.4354 32.0417C46.4354 27.9046 46.4293 27.6134 46.3319 27.5285C46.1856 27.4011 44.187 26.7641 43.5898 26.655C43.1267 26.57 40.4761 26.4912 39.8546 26.5458Z" fill="black"/>
<path d="M61.6375 26.5701C60.5956 26.649 60.1386 26.74 59.2002 27.0251C58.0912 27.3648 57.4331 27.6378 56.6714 28.0685C55.0993 28.9542 53.6369 30.3615 52.6742 31.9084C51.7967 33.3157 50.8827 35.4207 50.5171 36.8766C50.1332 38.3992 49.7859 40.2676 49.6518 41.5536C49.5421 42.597 49.5421 47.735 49.6579 49.015C49.7432 50.0644 49.792 50.3496 50.1515 52.0481C50.6268 54.3229 51.0228 55.524 51.8333 57.1801C53.2043 59.9826 55.1054 61.845 57.7743 63.0218C58.7432 63.4464 60.4493 63.865 61.796 64.0045C62.5759 64.0834 64.8427 64.047 65.5678 63.9378C66.1527 63.8529 67.9929 63.3251 68.7059 63.0461C70.4547 62.3545 71.8562 61.2929 73.2333 59.6187C74.2387 58.3933 75.0247 56.9132 75.7011 54.9599C75.9692 54.1955 76.5237 51.9935 76.6212 51.3201C77.0112 48.6389 77.1452 45.3086 76.9685 42.7668C76.8893 41.6264 76.6334 39.3091 76.5298 38.7632C76.4079 38.1383 75.8534 36.1244 75.5853 35.36C75.0308 33.7646 74.2509 32.2663 73.3612 31.0894C72.6849 30.1856 71.5271 29.124 70.3694 28.3415C69.431 27.7045 67.2617 26.8735 65.9638 26.6551C65.3179 26.5519 62.5698 26.4913 61.6375 26.5701ZM63.8129 35.7361C64.2577 35.8332 64.5624 35.997 64.8731 36.3124C65.4947 36.9494 65.9699 37.9624 66.3294 39.4122C66.7925 41.2503 66.9753 45.0356 66.756 48.1657C66.6341 49.8703 66.5793 50.2828 66.3294 51.2292C65.8176 53.1825 65.0864 54.3957 64.1602 54.8082C63.819 54.9599 63.7398 54.972 63.1974 54.9477C62.5272 54.9174 62.387 54.8628 61.8935 54.4139C61.1074 53.6981 60.4006 52.1391 60.1142 50.4709C59.7912 48.6268 59.7059 47.6319 59.6755 45.5573C59.6572 44.2288 59.6694 43.3553 59.7181 43.0398C59.7547 42.7729 59.8217 42.2391 59.8705 41.8569C60.0472 40.4374 60.2848 39.1453 60.4493 38.6722C60.6992 37.9382 61.2354 36.9069 61.5461 36.5551C61.8874 36.1608 62.2712 35.8635 62.5698 35.7543C62.8501 35.6573 63.3863 35.6451 63.8129 35.7361Z" fill="black"/>
<path d="M156.148 26.5707C155.143 26.6556 154.625 26.7406 154.217 26.8983C154.004 26.9771 153.504 27.1409 153.102 27.2683C150.951 27.9295 148.617 29.5856 147.514 31.2417C147.142 31.8058 146.57 32.9584 146.283 33.7288C145.918 34.7297 145.857 35.2211 145.851 37.2472C145.851 38.885 145.863 39.0913 145.991 39.6979C146.253 40.9415 146.771 42.3367 147.252 43.1071C148.056 44.3931 149.36 45.6913 150.725 46.577C151.255 46.9167 152.633 47.7174 153.559 48.227C155.399 49.2339 156.094 49.701 156.642 50.3077C157.008 50.708 157.196 51.1145 157.282 51.6968C157.44 52.6795 157.111 53.5591 156.331 54.2749C155.582 54.9604 154.93 55.1545 153.827 55.0211C153.053 54.9301 152.639 54.7966 151.834 54.3841C150.999 53.9595 150.542 53.6501 149.982 53.1284C149.732 52.904 149.494 52.7159 149.446 52.7159C149.324 52.7159 149.281 52.7827 147.039 56.4466C146.612 57.1442 146.027 58.0784 145.741 58.5152C145.461 58.952 145.168 59.419 145.095 59.5646L144.961 59.8133L145.119 60.0196C145.455 60.4564 147.557 61.8031 148.8 62.3733C150.573 63.1922 152.773 63.8292 154.406 63.9929C155.21 64.0779 156.679 64.0779 157.337 63.9929C158.622 63.8352 160.121 63.3863 161.279 62.8161C162.589 62.1731 163.454 61.5422 164.253 60.6444C165.532 59.2189 166.148 58.1027 166.8 56.0523C167.287 54.5176 167.397 53.8321 167.433 51.9091C167.488 49.6464 167.348 48.6637 166.781 47.2139C166.001 45.2181 164.661 43.6591 162.571 42.3185C161.894 41.8817 161.559 41.6937 159.408 40.5532C157.848 39.7282 157.422 39.4492 156.843 38.885C156.215 38.2724 155.935 37.781 155.935 37.2775C155.941 36.1431 156.593 35.1604 157.586 34.7964C157.83 34.7054 158.196 34.6145 158.403 34.5963C159.098 34.5356 160.109 34.7782 161.084 35.2453C161.608 35.494 162.772 36.3251 163.253 36.7922C163.412 36.9439 163.552 37.047 163.57 37.0227C163.588 36.9985 163.729 36.7255 163.887 36.4282C164.429 35.4031 164.643 35.0088 166.142 32.3032C166.434 31.7694 166.891 30.9565 167.159 30.5016C167.421 30.0406 167.634 29.6463 167.634 29.6159C167.634 29.4036 165.331 28.0933 164.07 27.5898C163.759 27.4624 162.266 27.0014 161.663 26.8376C160.92 26.6374 160.097 26.5646 158.433 26.5404C157.513 26.5282 156.484 26.5404 156.148 26.5707Z" fill="black"/>
<path d="M182.101 26.5695C181.315 26.6362 180.961 26.7212 179.852 27.0973C178.353 27.6008 177.525 28.0557 176.172 29.0991C173.79 30.9493 171.645 34.9954 170.798 39.2357C170.639 40.0486 170.268 42.6691 170.194 43.5063C169.963 46.1997 170.097 48.5837 170.645 51.4772C171.169 54.2313 172.102 56.7123 173.235 58.3866C174.704 60.5462 176.203 61.8747 178.262 62.8452C179.267 63.3184 180.352 63.646 181.796 63.9068C182.527 64.0403 184.654 64.0949 185.458 64.0039C188.328 63.6702 190.845 62.3903 192.344 60.5037C193.526 59.0175 193.995 58.1379 194.702 56.0511C195.074 54.9592 195.634 52.2234 195.5 52.1202C195.47 52.096 193.538 52.0838 191.211 52.096L186.976 52.1081L186.744 53.2789C186.616 53.9158 186.452 54.577 186.372 54.7469C186.202 55.1109 185.647 55.6811 185.221 55.9237C184.386 56.3969 183.222 56.4151 182.345 55.9783C181.559 55.578 180.992 54.7954 180.523 53.4548C180.169 52.4418 180.127 52.0535 179.968 48.7596L179.932 47.9831L187.902 47.971L195.872 47.9528L195.945 46.9215C196.213 42.93 196.152 40.0182 195.744 37.7919C195.488 36.3724 194.952 34.7467 194.324 33.4607C193.751 32.302 193.276 31.5559 192.551 30.6945C190.985 28.8383 189.389 27.7463 187.097 26.9638C186.129 26.6362 185.629 26.5634 184.081 26.5392C183.295 26.527 182.399 26.5392 182.101 26.5695ZM184.301 34.4009C185.172 34.5587 185.909 35.1471 186.348 36.0388C186.72 36.7849 187.055 37.798 187.152 38.4713C187.28 39.3327 187.396 41.4923 187.317 41.5712C187.28 41.6076 185.921 41.6318 183.643 41.6379L180.029 41.644L180.047 40.4914C180.084 38.253 180.425 36.8941 181.266 35.6506C181.985 34.5829 183.003 34.1644 184.301 34.4009Z" fill="black"/>
<path d="M131.654 27.7831C131.605 28.5171 131.605 63.0094 131.654 63.1913L131.69 63.3248L136.699 63.343C139.447 63.3551 141.738 63.3491 141.781 63.3369C141.836 63.3248 141.854 59.6608 141.854 45.3083C141.854 30.9496 141.836 27.2856 141.781 27.2674C141.738 27.2492 139.447 27.231 136.699 27.225L131.696 27.2068L131.654 27.7831Z" fill="black"/>
<path d="M204.311 57.5624L204.037 57.5988L204.018 60.8928L204 64.1867L204.384 64.1685L204.768 64.1503L204.756 61.3113C204.749 59.7523 204.768 58.4784 204.798 58.4784C204.823 58.4784 204.865 58.5452 204.884 58.6301C204.902 58.7089 205.085 59.1396 205.292 59.5764C205.493 60.0192 205.877 60.911 206.151 61.5661C206.62 62.7065 207.132 63.7863 207.309 64.0168C207.388 64.126 207.394 64.126 207.485 64.0168C207.54 63.9562 207.638 63.7439 207.711 63.5437C207.778 63.3435 208.156 62.4396 208.546 61.5418C208.936 60.638 209.405 59.5521 209.588 59.1214C209.764 58.6907 209.929 58.3268 209.947 58.3086C209.965 58.2843 209.978 59.6007 209.965 61.2203L209.947 64.1746L210.148 64.211C210.264 64.2292 210.429 64.2292 210.526 64.211L210.697 64.1746L210.666 61.645C210.654 60.2558 210.642 58.8121 210.648 58.436C210.648 57.6838 210.611 57.5988 210.258 57.5382C210.148 57.5139 209.947 57.526 209.807 57.5685C209.575 57.6292 209.527 57.6777 209.307 58.072C209.088 58.4724 208.387 60.0738 207.711 61.7178C207.565 62.0878 207.412 62.3911 207.376 62.4032C207.297 62.4336 206.937 61.651 206.23 59.8979C205.542 58.1994 205.316 57.7444 205.103 57.6534C204.884 57.5564 204.628 57.526 204.311 57.5624Z" fill="black"/>
<path d="M197.699 57.6599C197.638 57.8055 197.73 58.1573 197.833 58.1998C197.882 58.218 198.357 58.2544 198.881 58.2726C199.466 58.2968 199.856 58.3393 199.881 58.3817C199.905 58.4181 199.929 59.7406 199.929 61.3117V64.181H200.21C200.764 64.181 200.722 64.4297 200.722 61.245C200.722 58.9884 200.74 58.4181 200.801 58.3635C200.85 58.3271 201.258 58.2908 201.818 58.2847L202.757 58.2665L202.806 57.9935C202.836 57.8419 202.842 57.6841 202.824 57.6417C202.806 57.5871 202.233 57.5689 200.265 57.5689C198.065 57.5689 197.73 57.581 197.699 57.6599Z" fill="black"/>
</svg>
