<?xml version="1.0" standalone="no"?>
<!DOCTYPE svg PUBLIC "-//W3C//DTD SVG 20010904//EN"
 "http://www.w3.org/TR/2001/REC-SVG-20010904/DTD/svg10.dtd">
<svg version="1.0" xmlns="http://www.w3.org/2000/svg"
 width="1740.000000pt" height="363.000000pt" viewBox="0 0 1740.000000 363.000000"
 preserveAspectRatio="xMidYMid meet">
<metadata>
Created by potrace 1.16, written by Peter Selinger 2001-2019
</metadata>
<g transform="translate(0.000000,363.000000) scale(0.100000,-0.100000)"
fill="#000000" stroke="none">
<path d="M12490 2195 l0 -1225 185 0 185 0 0 1225 0 1225 -185 0 -185 0 0
-1225z"/>
<path d="M449 3366 c-110 -39 -181 -140 -180 -257 1 -188 182 -315 362 -254
62 21 109 63 144 126 26 46 30 65 30 129 0 65 -4 83 -30 129 -31 56 -88 106
-148 128 -43 15 -133 15 -178 -1z"/>
<path d="M7941 3363 c-96 -34 -171 -145 -171 -253 0 -179 172 -308 347 -261
101 28 182 126 190 234 17 205 -172 348 -366 280z"/>
<path d="M13225 3364 c-99 -35 -165 -125 -173 -235 -8 -114 37 -198 137 -257
40 -24 57 -27 131 -27 75 0 91 3 132 27 157 93 186 301 58 428 -73 74 -186 99
-285 64z"/>
<path d="M1574 2766 c-147 -34 -282 -113 -389 -228 -108 -117 -175 -260 -195
-420 -6 -48 -10 -308 -10 -615 l0 -533 190 0 189 0 3 578 3 577 33 67 c93 190
322 269 506 176 65 -33 141 -112 172 -181 l29 -62 3 -577 3 -578 189 0 189 0
3 583 3 582 28 57 c38 77 107 145 187 182 56 26 76 30 150 30 155 -1 275 -75
342 -212 l33 -67 3 -577 3 -578 185 0 185 0 -3 608 -3 607 -31 88 c-44 121
-86 188 -179 283 -145 147 -294 213 -500 222 -101 4 -135 1 -205 -17 -120 -29
-237 -91 -320 -168 l-70 -65 -64 59 c-83 75 -155 118 -263 156 -77 27 -104 31
-213 34 -81 1 -147 -2 -186 -11z"/>
<path d="M4520 2765 c-350 -75 -617 -329 -707 -673 -35 -137 -35 -307 0 -444
93 -355 383 -621 741 -679 104 -16 290 -7 384 20 89 26 187 70 248 111 25 16
47 30 50 30 2 0 4 -36 4 -80 l0 -80 185 0 185 0 0 488 c0 293 -4 513 -11 552
-56 350 -316 642 -659 740 -97 28 -322 36 -420 15z m345 -385 c164 -56 296
-190 346 -349 28 -90 28 -232 0 -322 -50 -158 -182 -293 -345 -349 -339 -116
-706 149 -706 510 0 246 180 470 423 526 79 18 204 11 282 -16z"/>
<path d="M6520 2765 c-333 -68 -584 -297 -696 -635 -27 -80 -28 -95 -28 -260
0 -165 1 -180 28 -260 104 -313 316 -523 623 -617 79 -24 104 -27 248 -27 138
-1 171 2 239 22 83 24 192 72 265 118 l44 27 -6 -119 c-9 -185 -50 -288 -155
-397 -101 -104 -230 -158 -378 -158 -156 -1 -278 48 -381 151 l-57 58 -140
-106 c-78 -57 -145 -108 -150 -113 -12 -11 124 -151 201 -205 79 -57 187 -107
294 -136 71 -19 107 -23 234 -22 133 1 160 4 239 28 158 48 269 112 388 224
130 123 228 305 264 490 21 108 20 1097 0 1205 -38 195 -109 330 -251 473
-141 143 -280 220 -467 258 -93 19 -267 20 -358 1z m270 -365 c188 -30 365
-186 422 -375 96 -312 -118 -644 -445 -687 -199 -26 -400 64 -510 229 -69 104
-91 177 -91 303 0 126 22 199 91 303 72 109 198 194 327 222 76 17 123 18 206
5z"/>
<path d="M9154 2765 c-297 -64 -541 -310 -635 -640 -23 -78 -23 -93 -27 -617
l-3 -538 185 0 185 0 3 508 c4 457 6 512 22 562 81 244 270 389 478 365 75 -9
178 -59 237 -116 59 -57 117 -149 143 -228 22 -64 23 -80 26 -578 l3 -513 190
0 191 0 -5 518 c-5 563 -5 563 -66 732 -77 209 -248 399 -444 491 -140 65
-332 87 -483 54z"/>
<path d="M11045 2764 c-91 -20 -204 -64 -285 -111 -86 -50 -263 -227 -313
-313 -142 -246 -167 -540 -66 -800 48 -126 97 -198 209 -310 146 -146 275
-216 469 -255 112 -23 303 -16 411 15 169 48 343 158 451 285 28 31 48 59 47
60 -6 6 -274 202 -286 209 -8 5 -34 -15 -73 -53 -209 -209 -547 -210 -756 -1
-50 50 -123 159 -123 184 0 3 317 6 705 6 l705 0 0 143 c0 79 -5 170 -11 203
-60 340 -311 620 -644 720 -115 34 -328 43 -440 18z m298 -369 c143 -30 288
-137 355 -263 18 -33 32 -63 32 -66 0 -3 -225 -6 -500 -6 -275 0 -500 3 -500
6 0 25 73 134 123 184 130 129 311 183 490 145z"/>
<path d="M16200 2766 c-201 -45 -391 -155 -513 -298 -163 -191 -245 -454 -217
-695 42 -360 278 -652 622 -769 104 -35 204 -47 336 -41 172 8 310 54 456 151
76 50 226 194 226 215 0 5 -65 58 -145 116 l-145 107 -69 -65 c-80 -75 -166
-121 -266 -142 -88 -18 -132 -18 -218 0 -99 21 -192 70 -263 140 -57 56 -124
154 -124 183 0 9 148 12 706 12 l707 0 -6 168 c-6 176 -18 246 -64 361 -112
280 -368 494 -665 555 -91 19 -277 20 -358 2z m354 -390 c127 -46 241 -144
299 -257 l28 -54 -497 -3 c-274 -1 -500 0 -503 3 -13 14 59 125 119 185 146
146 364 195 554 126z"/>
<path d="M350 1810 l0 -840 190 0 190 0 0 840 0 840 -190 0 -190 0 0 -840z"/>
<path d="M7850 1810 l0 -840 190 0 190 0 0 840 0 840 -190 0 -190 0 0 -840z"/>
<path d="M13130 1810 l0 -840 190 0 190 0 0 840 0 840 -190 0 -190 0 0 -840z"/>
<path d="M13734 2523 c29 -71 185 -449 347 -840 l293 -713 206 0 205 1 340
825 c187 454 341 832 343 840 3 12 -30 14 -200 14 l-203 0 -240 -585 c-132
-321 -242 -585 -245 -585 -3 0 -114 262 -246 583 l-240 582 -207 3 -206 2 53
-127z"/>
</g>
</svg>
