<?xml version="1.0" standalone="no"?>
<!DOCTYPE svg PUBLIC "-//W3C//DTD SVG 20010904//EN"
 "http://www.w3.org/TR/2001/REC-SVG-20010904/DTD/svg10.dtd">
<svg version="1.0" xmlns="http://www.w3.org/2000/svg"
 width="480.000000pt" height="320.000000pt" viewBox="0 0 480.000000 320.000000"
 preserveAspectRatio="xMidYMid meet">
<metadata>
Created by potrace 1.16, written by Peter Selinger 2001-2019
</metadata>
<g transform="translate(0.000000,320.000000) scale(0.100000,-0.100000)"
fill="#000000" stroke="none">
<path d="M1700 1870 l0 -210 41 0 41 0 -4 165 c-1 90 0 161 3 157 4 -4 22 -52
42 -107 19 -55 45 -126 58 -158 l22 -58 45 3 46 3 63 170 62 170 1 -172 0
-173 40 0 40 0 0 210 0 211 -62 -3 -62 -3 -59 -162 c-33 -90 -63 -163 -66
-163 -3 0 -32 74 -65 165 l-58 165 -64 0 -64 0 0 -210z"/>
<path d="M2260 2045 l0 -35 80 0 80 0 0 -175 0 -175 45 0 45 0 0 175 0 175 80
0 80 0 0 35 0 35 -205 0 -205 0 0 -35z"/>
<path d="M2805 2069 c-38 -11 -89 -64 -104 -108 -19 -59 -14 -161 12 -211 35
-70 88 -95 202 -95 72 1 98 5 131 22 48 26 62 41 74 82 l9 31 -44 0 c-35 0
-45 -4 -50 -20 -15 -46 -127 -66 -201 -35 -42 17 -64 63 -64 133 0 111 36 147
147 147 62 0 75 -3 97 -24 14 -14 26 -30 26 -38 0 -9 14 -13 46 -13 42 0 45 1
38 23 -27 87 -80 117 -205 116 -46 0 -98 -5 -114 -10z"/>
<path d="M420 1890 l0 -160 130 0 130 0 0 -130 0 -130 -130 0 -130 0 0 -160 0
-160 98 0 97 0 120 158 120 157 3 -158 3 -157 97 0 97 1 123 162 122 163 0
123 0 124 -122 163 -123 163 -97 1 -98 0 0 -156 c0 -85 -4 -153 -8 -150 -5 3
-60 73 -123 156 l-114 150 -97 0 -98 0 0 -160z m690 -290 l0 -130 -125 0 -125
0 0 130 0 130 125 0 125 0 0 -130z"/>
<path d="M2689 1541 c-100 -20 -149 -88 -149 -208 0 -86 15 -129 58 -165 48
-40 93 -51 202 -46 85 3 103 7 137 30 58 38 78 86 77 183 0 89 -14 127 -63
168 -48 40 -163 57 -262 38z m212 -99 c27 -30 29 -39 29 -108 0 -85 -9 -108
-48 -128 -72 -36 -176 -30 -225 14 -28 25 -32 35 -35 96 -5 84 7 118 50 144
28 18 46 21 116 18 80 -3 85 -4 113 -36z"/>
<path d="M1702 1333 l3 -208 170 0 170 0 3 33 3 32 -136 0 -136 0 3 58 3 57
103 3 102 3 0 29 0 30 -106 0 -105 0 3 53 3 52 79 -4 c43 -1 103 0 132 4 51 6
54 8 54 36 l0 29 -175 0 -175 0 2 -207z"/>
<path d="M2164 1441 c48 -55 86 -103 86 -107 0 -3 -38 -50 -85 -104 -46 -54
-81 -100 -78 -104 4 -3 21 -6 39 -6 26 0 41 9 71 42 21 23 54 59 73 80 l35 39
69 -81 c67 -79 69 -80 112 -78 24 0 44 4 44 8 0 3 -33 45 -72 91 -40 47 -79
93 -87 102 -13 17 9 47 138 190 l25 27 -50 -1 c-49 0 -49 -1 -109 -74 -33 -40
-63 -73 -66 -72 -3 1 -34 35 -68 75 -62 71 -63 72 -112 72 l-50 0 85 -99z"/>
<path d="M3092 1333 l3 -208 160 0 160 0 3 32 3 32 -123 3 -123 3 -3 173 -2
172 -40 0 -40 0 2 -207z"/>
<path d="M3370 1531 c0 -12 160 -383 171 -397 10 -12 90 -16 106 -6 9 6 72
148 170 380 l14 33 -41 -3 -41 -3 -74 -174 -73 -174 -19 44 c-10 24 -44 104
-73 176 l-55 133 -42 0 c-24 0 -43 -4 -43 -9z"/>
<path d="M3880 1331 l0 -210 160 0 c87 0 166 2 175 5 9 4 15 18 15 35 l0 29
-135 0 -136 0 3 58 3 57 103 3 102 3 0 29 0 30 -106 0 -105 0 3 53 3 52 133 3
132 3 0 29 0 30 -175 0 -175 0 0 -209z"/>
</g>
</svg>
