<svg width="1620" height="800" viewBox="0 0 1620 800" fill="none" xmlns="http://www.w3.org/2000/svg">
<path d="M846.393 38.7843C852.016 43.2631 857.245 47.9574 862.315 53.0497C863.476 54.2038 863.476 54.2038 864.66 55.3813C867.225 57.9333 869.782 60.4923 872.339 63.0515C874.188 64.894 876.037 66.7361 877.886 68.5779C882.371 73.0458 886.85 77.5193 891.327 81.995C894.969 85.6365 898.613 89.2764 902.258 92.9152C912.617 103.256 922.971 113.602 933.32 123.952C933.877 124.509 934.434 125.065 935.007 125.639C935.564 126.196 936.121 126.753 936.695 127.328C945.724 136.357 954.763 145.376 963.806 154.391C973.115 163.672 982.416 172.959 991.71 182.255C996.919 187.464 1002.13 192.67 1007.35 197.868C1012.26 202.758 1017.16 207.659 1022.05 212.566C1023.84 214.359 1025.64 216.148 1027.44 217.934C1044.62 235.014 1058.49 251.299 1059.31 276.75C1059.05 287.214 1056.99 296.772 1052.5 306.187C1052.22 306.792 1051.94 307.396 1051.66 308.018C1044.52 321.939 1029.71 333.453 1018.8 344.385C1016.98 346.215 1015.16 348.044 1013.34 349.874C1007.91 355.326 1002.48 360.773 997.047 366.22C995.509 367.761 993.972 369.303 992.434 370.845C982.85 380.454 973.264 390.062 963.674 399.665C961.463 401.878 959.252 404.092 957.042 406.306C956.492 406.856 955.943 407.406 955.377 407.973C946.471 416.891 937.576 425.82 928.684 434.753C919.525 443.955 910.355 453.148 901.176 462.332C896.036 467.476 890.899 472.624 885.773 477.784C880.952 482.635 876.119 487.474 871.277 492.304C869.509 494.072 867.746 495.843 865.987 497.619C853.493 510.233 841.73 521.56 823.997 526C823.265 526.189 822.533 526.379 821.779 526.574C803.775 529.33 786.153 526.399 770.997 516C769.01 514.33 767.117 512.661 765.236 510.881C764.685 510.365 764.134 509.85 763.566 509.318C755.462 501.682 747.617 493.776 739.742 485.906C737.939 484.107 736.136 482.309 734.332 480.511C729.47 475.662 724.612 470.81 719.755 465.958C716.715 462.921 713.675 459.885 710.635 456.849C702.195 448.422 693.756 439.993 685.321 431.561C684.783 431.024 684.246 430.486 683.692 429.933C683.154 429.395 682.615 428.857 682.061 428.302C680.97 427.212 679.879 426.121 678.788 425.031C678.247 424.49 677.706 423.949 677.148 423.392C668.365 414.612 659.575 405.839 650.782 397.07C641.725 388.037 632.674 378.999 623.629 369.955C618.562 364.888 613.492 359.824 608.416 354.767C603.647 350.014 598.886 345.254 594.129 340.489C592.387 338.746 590.642 337.005 588.894 335.268C586.501 332.888 584.118 330.499 581.737 328.107C581.05 327.428 580.364 326.75 579.656 326.051C573.057 319.385 567.538 311.949 563.685 303.375C563.214 302.351 562.744 301.328 562.259 300.273C555.972 283.961 557.358 264.891 564.283 249.062C571.445 234.697 585.269 223.562 596.454 212.351C598.327 210.469 600.201 208.588 602.074 206.706C607.669 201.087 613.268 195.472 618.868 189.859C620.453 188.271 622.037 186.683 623.621 185.095C633.483 175.207 643.347 165.321 653.216 155.44C655.493 153.16 657.771 150.879 660.048 148.599C660.897 147.749 660.897 147.749 661.763 146.882C670.939 137.693 680.104 128.495 689.265 119.292C698.694 109.821 708.133 100.359 717.58 90.9062C722.875 85.6077 728.166 80.3053 733.446 74.992C737.94 70.4701 742.442 65.957 746.956 61.4547C749.254 59.1613 751.547 56.8629 753.832 54.5559C774.619 33.5781 774.619 33.5781 788.872 29.6249C789.901 29.3285 790.93 29.032 791.99 28.7265C810.898 24.1589 830.648 27.0562 846.393 38.7843ZM827.08 169.642C825.504 171.214 823.928 172.785 822.351 174.356C818.097 178.597 813.849 182.845 809.602 187.094C806.048 190.649 802.49 194.202 798.933 197.754C790.06 206.615 781.194 215.482 772.331 224.352C764.651 232.037 756.963 239.713 749.271 247.386C741.349 255.289 733.433 263.197 725.523 271.111C721.091 275.544 716.657 279.976 712.218 284.401C708.045 288.562 703.879 292.73 699.719 296.903C698.195 298.428 696.67 299.951 695.141 301.472C679.155 317.377 667.164 332.877 665.935 356.254C666.232 374.033 672.909 389.505 685.228 402.32C699.222 415.348 715.175 419.55 733.833 419.277C759.366 418.338 775.307 398.833 792.104 382.102C793.689 380.527 795.273 378.952 796.858 377.377C802.018 372.249 807.172 367.115 812.326 361.98C813.206 361.103 814.086 360.226 814.993 359.323C823.31 351.036 831.625 342.748 839.935 334.455C841.849 332.545 843.763 330.635 845.677 328.725C846.39 328.013 846.39 328.013 847.118 327.287C854.83 319.592 862.554 311.91 870.282 304.232C878.249 296.317 886.204 288.39 894.149 280.453C898.598 276.01 903.051 271.572 907.517 267.146C911.716 262.983 915.901 258.807 920.075 254.619C921.602 253.093 923.133 251.571 924.67 250.056C939.614 235.31 950.816 219.494 951.31 197.625C951.126 180.213 944.71 165.025 932.599 152.437C919.844 140.487 903.897 134.452 886.5 134.578C860.657 135.453 844.21 152.481 827.08 169.642Z" fill="black"/>
<path d="M156.644 611.086C173.586 625.504 182.749 645.323 185.999 667.001C187.82 695.614 182.723 719.92 163.749 742.188C151.478 755.253 135.327 763.774 117.999 768.001C116.663 768.337 116.663 768.337 115.3 768.68C90.0633 773.936 63.2314 768.925 41.6245 755.126C21.0298 740.578 9.01727 720.705 4.47113 696.147C0.762996 671.414 5.45874 646.335 19.8784 625.809C33.0367 608.386 50.8348 597.163 71.9995 592.001C72.8902 591.776 73.7809 591.552 74.6987 591.321C103.886 585.242 133.49 592.823 156.644 611.086ZM41.7495 636.688C28.3811 654.394 25.915 674.085 28.433 695.727C32.1251 712.743 42.9311 727.136 56.9995 737.001C73.171 747.099 92.9293 749.778 111.485 745.867C128.227 741.782 142.433 732.461 151.999 718.001C162.052 700.789 165.138 682.541 160.999 663.001C155.964 644.23 145.112 630.617 128.703 620.598C100.134 604.828 62.7301 612.116 41.7495 636.688Z" fill="black"/>
<path d="M791.31 641.687C792.421 641.695 792.421 641.695 793.554 641.702C806.863 641.985 817.25 646.919 826.978 655.863C829.882 658.936 832.025 662.274 833.997 666C834.707 664.931 834.707 664.931 835.431 663.84C842.787 653.185 852.141 644.826 865.189 642.316C880.678 640.571 895.204 642.304 908.189 651.562C917.607 659.283 924.108 670.952 925.997 683C926.085 685.768 926.124 688.511 926.111 691.278C926.111 692.098 926.111 692.919 926.111 693.763C926.111 696.463 926.103 699.163 926.095 701.863C926.093 703.739 926.092 705.615 926.091 707.492C926.087 712.422 926.077 717.352 926.066 722.282C926.056 727.316 926.051 732.351 926.046 737.385C926.035 747.256 926.018 757.128 925.997 767C918.737 767 911.477 767 903.997 767C903.975 763.641 903.975 763.641 903.953 760.214C903.902 752.774 903.836 745.334 903.762 737.894C903.717 733.388 903.678 728.882 903.651 724.376C903.625 720.018 903.584 715.661 903.534 711.304C903.518 709.651 903.506 707.997 903.5 706.344C903.559 688.392 903.559 688.392 895.743 672.687C888.633 665.816 881.938 664.674 872.318 664.793C864.631 665.272 859.33 667.76 853.724 673.031C848.043 679.509 846.858 686.426 846.792 694.798C846.782 695.579 846.772 696.359 846.762 697.164C846.73 699.739 846.706 702.315 846.681 704.891C846.66 706.678 846.639 708.466 846.618 710.254C846.563 714.956 846.513 719.658 846.465 724.36C846.415 729.159 846.359 733.958 846.304 738.758C846.196 748.172 846.095 757.586 845.997 767C838.407 767 830.817 767 822.997 767C822.988 764.664 822.979 762.329 822.969 759.922C822.935 752.171 822.879 744.42 822.813 736.669C822.774 731.973 822.742 727.278 822.726 722.582C822.711 718.043 822.676 713.505 822.629 708.966C822.614 707.242 822.606 705.518 822.605 703.793C822.595 693.014 822.431 682.736 815.81 673.625C807.912 666.254 800.169 664.561 789.614 664.66C782.612 665.318 777.306 668.234 772.56 673.375C767.098 680.473 765.863 687.946 765.792 696.728C765.777 697.87 765.777 697.87 765.762 699.035C765.73 701.54 765.706 704.045 765.681 706.551C765.66 708.292 765.639 710.034 765.618 711.776C765.563 716.351 765.513 720.926 765.465 725.501C765.415 730.173 765.359 734.845 765.304 739.517C765.196 748.678 765.095 757.839 764.997 767C757.407 767 749.817 767 741.997 767C741.952 757.037 741.915 747.075 741.894 737.112C741.883 732.485 741.869 727.858 741.846 723.23C741.824 718.756 741.813 714.283 741.808 709.809C741.804 708.11 741.797 706.412 741.786 704.714C741.666 685.197 743.84 668.777 757.837 654.066C766.925 645.425 778.934 641.589 791.31 641.687Z" fill="black"/>
<path d="M1023 645C1024.03 645.382 1024.03 645.382 1025.09 645.773C1034.31 649.768 1041.26 657.324 1046 666C1046.55 665.203 1047.11 664.406 1047.68 663.585C1055.69 652.47 1063.82 645.947 1077.35 642.378C1092.67 640.183 1107.66 642.547 1120.38 651.714C1131.65 661.045 1137.26 673.617 1138.79 688.033C1139.26 694.841 1139.12 701.682 1139.09 708.503C1139.09 710.194 1139.09 711.886 1139.09 713.577C1139.09 718.001 1139.08 722.424 1139.06 726.848C1139.05 731.373 1139.05 735.898 1139.05 740.423C1139.03 749.282 1139.02 758.141 1139 767C1131.41 767 1123.82 767 1116 767C1115.98 764.714 1115.96 762.429 1115.94 760.074C1115.87 752.498 1115.79 744.923 1115.71 737.347C1115.66 732.757 1115.61 728.167 1115.57 723.576C1115.54 719.141 1115.49 714.706 1115.44 710.271C1115.42 708.585 1115.4 706.898 1115.39 705.211C1115.44 686.949 1115.44 686.949 1106.58 671.496C1099.68 665.312 1093.51 664.437 1084.51 664.648C1076.86 665.414 1070.28 668.344 1065 674C1060.62 681.321 1058.86 687.214 1058.79 695.706C1058.78 696.477 1058.77 697.248 1058.76 698.042C1058.73 700.585 1058.7 703.128 1058.68 705.671C1058.66 707.437 1058.64 709.202 1058.62 710.968C1058.56 715.61 1058.51 720.253 1058.46 724.896C1058.41 729.635 1058.36 734.374 1058.3 739.113C1058.2 748.408 1058.09 757.704 1058 767C1050.41 767 1042.82 767 1035 767C1034.99 764.628 1034.98 762.257 1034.97 759.814C1034.93 751.951 1034.88 744.088 1034.81 736.226C1034.77 731.462 1034.74 726.698 1034.73 721.934C1034.71 717.33 1034.68 712.726 1034.63 708.123C1034.61 706.373 1034.61 704.623 1034.6 702.872C1034.59 691.035 1034.22 680.625 1025.71 671.468C1018.84 665.571 1011.15 664.622 1002.39 664.73C995.236 665.298 989.963 667.539 985.059 672.812C979.058 680.423 977.87 688.215 977.791 697.749C977.781 698.501 977.771 699.253 977.761 700.028C977.73 702.495 977.705 704.962 977.68 707.429C977.659 709.147 977.638 710.865 977.617 712.583C977.562 717.09 977.512 721.598 977.464 726.106C977.414 730.711 977.358 735.316 977.303 739.921C977.196 748.947 977.095 757.973 976.996 767C969.736 767 962.476 767 954.996 767C954.906 756.141 954.832 745.284 954.789 734.425C954.768 729.382 954.74 724.339 954.695 719.296C954.651 714.42 954.627 709.545 954.617 704.668C954.609 702.817 954.595 700.966 954.573 699.116C954.387 682.597 956.505 668.513 968.028 655.75C982.689 641.726 1004.1 637.864 1023 645Z" fill="black"/>
<path d="M560.003 597.999C561.57 598.639 561.57 598.639 563.169 599.291C566.605 600.903 569.229 602.394 572.003 604.999C573.482 609.879 573.15 614.394 572.753 619.437C572.672 621.393 572.672 621.393 572.589 623.388C572.448 626.598 572.251 629.795 572.003 632.999C568.37 630.604 564.82 628.138 561.315 625.562C546.252 615.047 528.912 611.737 510.829 614.308C494.866 617.321 480.454 625.408 470.628 638.437C467.241 643.428 464.294 648.415 462.003 653.999C461.61 654.954 461.216 655.91 460.811 656.894C455.143 673.228 455.891 693.211 463.003 708.999C471.234 725.717 483.829 736.805 501.264 743.195C519.921 748.963 538.275 747.005 555.514 738.05C560.256 735.369 564.509 732.096 568.772 728.722C571.003 726.999 571.003 726.999 572.003 726.999C572.003 736.239 572.003 745.479 572.003 754.999C547.955 769.33 524.25 773.859 496.729 767.32C476.344 761.923 457.907 749.341 446.565 731.437C433.303 708.29 428.726 681.085 435.235 654.937C439.425 639.614 446.765 626.255 458.003 614.999C458.763 614.227 459.524 613.455 460.307 612.659C486.133 587.893 528.177 582.924 560.003 597.999Z" fill="black"/>
<path d="M1264.42 654.739C1269.19 658.579 1272.61 662.978 1275.93 668.063C1276.31 668.641 1276.69 669.218 1277.08 669.813C1279.56 673.811 1280.9 677.48 1282 682C1274.25 687.577 1266.47 693.081 1258.59 698.47C1252.54 702.617 1246.52 706.806 1240.5 711C1233.1 716.154 1225.69 721.295 1218.25 726.386C1213.73 729.483 1209.26 732.643 1204.82 735.856C1203 737 1203 737 1201 737C1204.02 740.406 1206.78 742.018 1211 743.688C1212.54 744.313 1212.54 744.313 1214.12 744.95C1225.79 749.216 1239.77 748.064 1251 743C1257.23 739.702 1263.14 735.908 1269 732C1269.26 736.041 1269.42 740.079 1269.56 744.125C1269.67 745.839 1269.67 745.839 1269.79 747.586C1270 755.865 1270 755.865 1267.18 759.047C1264.85 760.643 1262.58 761.858 1260 763C1258.33 763.797 1258.33 763.797 1256.63 764.61C1237.8 771.613 1218.03 772.779 1199.18 764.688C1183.31 756.89 1171.79 745.473 1165 729C1159.01 710.949 1159.21 691.917 1167.62 674.688C1175.64 659.179 1188.49 649.502 1204.92 644.028C1225.98 638.289 1246.81 642.104 1264.42 654.739ZM1192.99 677.36C1186.87 685.596 1184.47 693.352 1184.62 703.563C1184.61 704.362 1184.6 705.16 1184.59 705.983C1184.61 711.619 1185.76 715.83 1188 721C1195.33 716.5 1202.38 711.667 1209.39 706.683C1214.17 703.287 1218.97 699.936 1223.81 696.625C1225.11 695.732 1226.41 694.839 1227.7 693.946C1230.01 692.359 1232.32 690.778 1234.64 689.207C1237.43 687.314 1240.22 685.408 1243 683.5C1243.89 682.901 1244.78 682.301 1245.7 681.683C1246.93 680.834 1246.93 680.834 1248.18 679.969C1249.29 679.218 1249.29 679.218 1250.42 678.452C1250.94 677.973 1251.46 677.494 1252 677C1252 676.01 1252 675.02 1252 674C1243.76 665.762 1233.98 663.697 1222.71 663.686C1210.64 663.902 1200.87 668.092 1192.99 677.36Z" fill="black"/>
<path d="M1596 651.999C1604.26 658.331 1614.12 667.571 1617 677.999C1616.84 681.27 1616.45 682.572 1614.06 684.851C1612.76 685.729 1612.76 685.729 1611.44 686.624C1610.43 687.318 1609.42 688.011 1608.39 688.726C1607.84 689.095 1607.29 689.464 1606.72 689.844C1604.98 691.015 1603.25 692.203 1601.52 693.398C1598.9 695.209 1596.27 697.012 1593.64 698.812C1588.24 702.513 1582.87 706.257 1577.5 709.999C1569.56 715.531 1561.6 721.039 1553.62 726.515C1548.07 730.324 1542.53 734.162 1537 737.999C1547.07 746.428 1559.28 748.168 1572.02 747.227C1583.91 745.86 1594.58 738.962 1604 731.999C1604.33 731.999 1604.66 731.999 1605 731.999C1605 740.249 1605 748.499 1605 756.999C1586.42 768.147 1567.33 773.765 1545.69 768.437C1528.23 763.672 1514.1 753.757 1505 737.999C1496.33 721.89 1494.29 703.654 1498.63 685.874C1503.77 669.444 1514.48 656.637 1529.56 648.312C1550.95 638.376 1576.14 638.977 1596 651.999ZM1529.19 676.874C1521.21 686.602 1518.92 697.578 1520 709.999C1520.79 713.744 1521.8 717.367 1523 720.999C1529.3 717.584 1535.08 713.556 1540.94 709.437C1543.01 707.99 1545.07 706.543 1547.14 705.097C1548.15 704.393 1549.15 703.69 1550.19 702.965C1553.84 700.414 1557.51 697.89 1561.19 695.374C1570.51 688.988 1579.75 682.491 1589 675.999C1586.2 673.108 1583.55 670.448 1580.13 668.312C1579.2 667.718 1579.2 667.718 1578.26 667.113C1572.52 664.281 1566.97 663.637 1560.69 663.687C1559.57 663.695 1559.57 663.695 1558.42 663.704C1546.55 663.964 1537.3 668.086 1529.19 676.874Z" fill="black"/>
<path d="M697.687 656.124C712.497 668.882 718.277 684.807 720.285 703.679C720.989 721.857 713.638 738.4 702 751.999C685.987 766.056 667.393 771.401 646.335 770.206C630.029 768.761 615.396 761.733 604 749.999C603.159 749.189 603.159 749.189 602.301 748.363C591.591 737.203 587.413 721.078 587.625 706.062C587.636 705.004 587.648 703.947 587.66 702.857C587.973 687.933 592.601 672.717 603.199 661.605C629.725 637.955 668.863 634.047 697.687 656.124ZM619.898 678.285C612.119 688.464 609.642 700.394 611 712.999C613.109 724.427 618.401 733.825 627.687 740.937C639.106 748.167 652.158 749.865 665.297 747.374C675.963 744.28 685.377 737.667 691 727.999C696.513 717.239 697.769 705.572 695.316 693.687C691 681.079 683.422 672.898 671.625 667.077C653.483 659.626 633.223 663.796 619.898 678.285Z" fill="black"/>
<path d="M397.501 656.812C408.981 666.712 417.007 681.561 418.221 696.742C419.008 716.285 416.924 733.065 403.564 748.312C402.058 749.889 400.539 751.453 399.001 752.999C398.224 753.829 398.224 753.829 397.431 754.675C385.092 766.659 366.824 770.538 350.253 770.42C331.622 769.835 316.212 763.35 303.001 749.999C302.366 749.397 301.73 748.795 301.076 748.175C291.325 738.208 286.989 723.586 286.001 709.999C285.947 709.337 285.893 708.674 285.837 707.992C285.109 690.574 291.525 673.903 303.001 660.999C328.795 635.825 369.25 635.753 397.501 656.812ZM318.126 679.374C310.137 690.397 308.936 701.718 310.001 714.999C312.296 726.595 319.377 735.803 329.064 742.304C340.805 749.08 353.818 749.957 366.814 746.499C378.751 742.269 386.889 734.59 392.314 723.257C396.599 712.278 396.657 699.809 392.384 688.812C386.864 677.585 379.077 670.147 367.439 665.562C349.555 660.245 330.182 664.707 318.126 679.374Z" fill="black"/>
<path d="M1479 651.001C1479 659.251 1479 667.501 1479 676.001C1475.94 674.473 1473.24 672.894 1470.37 671.063C1458.97 664.306 1446.44 663.142 1433.49 665.692C1422.65 669.009 1413.56 675.256 1407.75 685.126C1402.13 696.688 1401.68 709.577 1405.62 721.751C1409.95 732.382 1417.52 739.675 1427.97 744.321C1439.32 748.338 1452.85 749.086 1464 744.001C1468.27 741.729 1472.35 739.289 1476.16 736.313C1478 735.001 1478 735.001 1480 735.001C1480.26 738.874 1480.42 742.746 1480.56 746.626C1480.64 747.72 1480.71 748.814 1480.79 749.942C1481.01 757.889 1481.01 757.889 1478.16 761.032C1475.84 762.621 1473.57 763.854 1471 765.001C1469.97 765.471 1468.95 765.942 1467.89 766.426C1467.02 766.719 1466.15 767.012 1465.25 767.313C1464.37 767.619 1463.49 767.924 1462.58 768.239C1445.58 773.262 1425.49 770.085 1410 762.001C1394.49 752.563 1384.3 738.597 1380 721.001C1376.56 701.37 1380.14 683.239 1391.1 666.633C1400.42 653.705 1414.66 646.197 1430 642.751C1448.22 639.845 1462.54 643.037 1479 651.001Z" fill="black"/>
<path d="M275.997 646.999C275.997 654.589 275.997 662.179 275.997 669.999C269.997 667.999 269.997 667.999 266.434 666.374C259.64 663.831 251.245 663.585 244.559 666.562C238.522 670.205 234.723 675.232 232.604 681.969C231.173 689.115 231.511 696.553 231.485 703.816C231.468 705.641 231.45 707.467 231.431 709.292C231.384 714.071 231.354 718.85 231.327 723.629C231.297 728.516 231.251 733.403 231.206 738.29C231.12 747.86 231.054 757.429 230.997 766.999C223.407 766.999 215.817 766.999 207.997 766.999C207.929 756.124 207.874 745.249 207.841 734.373C207.826 729.322 207.805 724.271 207.771 719.22C207.738 714.338 207.72 709.456 207.712 704.573C207.707 702.719 207.696 700.864 207.68 699.01C207.533 681.659 209.328 666.226 221.77 653.038C236.504 639.545 258.587 638.294 275.997 646.999Z" fill="black"/>
<path d="M1346.25 641.625C1346.98 641.624 1347.71 641.624 1348.47 641.623C1355.85 641.77 1362.4 643.701 1369 647C1369 654.59 1369 662.18 1369 670C1363 668 1363 668 1359.43 666.375C1352.06 663.638 1343.79 663.8 1336.56 666.875C1331.06 670.076 1328.38 674.202 1326 680C1323.59 689.997 1323.66 700.241 1323.58 710.457C1323.56 712.097 1323.54 713.738 1323.52 715.378C1323.47 719.651 1323.43 723.923 1323.4 728.196C1323.36 732.574 1323.3 736.952 1323.25 741.33C1323.16 749.886 1323.07 758.443 1323 767C1315.74 767 1308.48 767 1301 767C1300.91 755.881 1300.83 744.762 1300.79 733.643C1300.77 728.479 1300.74 723.315 1300.69 718.151C1300.65 713.158 1300.63 708.166 1300.62 703.173C1300.61 701.277 1300.6 699.382 1300.57 697.486C1300.39 680.721 1302.44 666.271 1314.12 653.25C1322.82 645.09 1334.56 641.602 1346.25 641.625Z" fill="black"/>
</svg>
