<svg width="280" height="78" viewBox="0 0 280 78" fill="none" xmlns="http://www.w3.org/2000/svg">
<mask id="mask0_600_64363" style="mask-type:luminance" maskUnits="userSpaceOnUse" x="0" y="8" width="280" height="67">
<path d="M280 8.47266H0V74.1107H280V8.47266Z" fill="white"/>
</mask>
<g mask="url(#mask0_600_64363)">
<path d="M174.116 65.217H155.391V41.8984H156.848V63.9105H171.213V41.8984H172.67V63.9105H175.587V71.1516H174.129V65.217H174.116Z" fill="black"/>
<path d="M179.938 65.217V41.8984H181.396V62.9034L195.856 41.8984H197.217V65.217H195.76V44.0205L181.299 65.217H179.938Z" fill="black"/>
<path d="M216.855 45.9018V33.0137H218.312V45.806C219.529 43.396 221.952 41.3099 224.772 41.3099C229.58 41.3099 232.773 46.1417 232.773 53.527C232.773 60.9119 229.568 65.7914 224.772 65.7914C222.108 65.7914 219.771 63.9574 218.312 61.1999V74.088H216.855V61.2956C215.638 63.7056 213.215 65.7796 210.408 65.7796C205.599 65.7796 202.406 60.9481 202.406 53.5628C202.406 46.1776 205.612 41.298 210.408 41.298C213.071 41.298 215.409 43.1324 216.855 45.8899V45.9018ZM203.852 53.5747C203.852 59.7012 206.177 64.4846 210.504 64.4846C213.276 64.4846 215.745 62.3149 216.855 59.845V47.3406C215.734 44.8829 213.263 42.6049 210.504 42.6049C206.19 42.6049 203.852 47.4364 203.852 53.5628V53.5747ZM231.315 53.527C231.315 47.4005 228.989 42.6167 224.663 42.6167C221.891 42.6167 219.422 44.7868 218.312 47.2567V59.7611C219.433 62.2188 221.904 64.4968 224.663 64.4968C228.977 64.4968 231.315 59.6653 231.315 53.5388V53.527Z" fill="black"/>
<path d="M239.427 61.2124V74.1005H237.969V41.898H239.427V45.8063C241.03 43.3967 244.187 41.3105 247.874 41.3105C254.177 41.3105 258.358 46.142 258.358 53.5273C258.358 60.9126 254.188 65.7921 247.874 65.7921C244.38 65.7921 241.319 63.9577 239.427 61.2002V61.2124ZM256.755 53.5395C256.755 47.413 253.599 42.6292 247.874 42.6292C244.235 42.6292 240.885 44.7993 239.427 47.2692V59.7736C240.885 62.2313 244.235 64.5093 247.874 64.5093C253.599 64.5093 256.755 59.6778 256.755 53.5513V53.5395Z" fill="black"/>
<path d="M278.479 65.2164V62.3628C276.298 64.7247 273.672 65.7916 270.382 65.7916C266.261 65.7916 262.188 62.9864 262.188 58.023C262.188 53.0595 266.213 50.254 270.382 50.254C273.684 50.254 276.298 51.3212 278.479 53.6828V48.4196C278.479 44.6554 275.467 42.6291 271.877 42.6291C268.815 42.6291 266.538 43.696 264.357 46.2975L263.236 45.3267C265.514 42.6768 267.947 41.3223 271.877 41.3223C276.492 41.3223 279.925 43.6361 279.925 48.3719V65.2164H278.468H278.479ZM278.479 60.9243V55.1335C276.684 52.7716 273.816 51.5608 270.767 51.5608C266.502 51.5608 263.778 54.4141 263.778 58.0348C263.778 61.6555 266.49 64.5088 270.767 64.5088C273.829 64.5088 276.684 63.2981 278.479 60.9361V60.9243Z" fill="black"/>
<path d="M136.708 72.8296H135.359V18.6875H136.708V72.8296Z" fill="black"/>
<path d="M138.904 18.1119L137.977 17.1888L146.737 8.47266L147.665 9.39577L138.904 18.1119Z" fill="black"/>
<path d="M138.904 24.2853L137.977 23.3622L146.737 14.6582L147.665 15.5813L138.904 24.2853Z" fill="black"/>
<path d="M138.904 30.1256L137.977 29.2021L146.737 20.4863L147.665 21.4094L138.904 30.1256Z" fill="black"/>
<path d="M133.073 18.1119L124.312 9.39577L125.24 8.47266L134 17.1888L133.073 18.1119Z" fill="black"/>
<path d="M133.073 24.1174L124.312 15.4016L125.24 14.4785L134 23.1943L133.073 24.1174Z" fill="black"/>
<path d="M133.073 30.1256L124.312 21.4094L125.24 20.4863L134 29.2021L133.073 30.1256Z" fill="black"/>
<path d="M15.0973 34.1289C18.5436 34.1289 21.3514 35.1962 23.5325 37.3182C25.7136 39.4402 26.8102 42.2096 26.8102 45.6026C26.8102 48.9952 25.6896 51.8729 23.4603 53.9708C21.2309 56.0688 18.2544 57.1117 14.5309 57.1117H8.15616V65.0726H0.0703125V34.1289H15.0851H15.0973ZM8.1682 50.2303H13.7957C15.2177 50.2303 16.3867 49.7985 17.2784 48.9353C18.1822 48.0721 18.628 46.9812 18.628 45.6506C18.628 44.3197 18.1942 43.2166 17.3266 42.3415C16.4589 41.4665 15.3261 41.0225 13.9283 41.0225H8.1682V50.2303Z" fill="black"/>
<path d="M44.1617 65.6248C39.4861 65.6248 35.606 64.1024 32.533 61.0691C29.4602 58.0358 27.9297 54.2113 27.9297 49.6198C27.9297 45.0279 29.4602 41.2034 32.5089 38.1461C35.5577 35.0888 39.4378 33.5664 44.1617 33.5664C47.4755 33.5664 50.44 34.3697 53.0671 35.976C55.682 37.5827 57.5737 39.7406 58.7186 42.45L51.6934 46.0109C51.0427 44.5003 50.0302 43.2892 48.6687 42.3783C47.3068 41.467 45.7525 41.0116 44.0172 41.0116C41.6554 41.0116 39.7031 41.8267 38.1365 43.4693C36.5699 45.0996 35.7866 47.1499 35.7866 49.6198C35.7866 52.0893 36.5821 54.1034 38.1606 55.7459C39.7391 57.4003 41.7156 58.2158 44.0655 58.2158C45.8004 58.2158 47.367 57.7481 48.7649 56.825C50.1628 55.9016 51.1631 54.655 51.7896 53.0723L58.9958 56.3574C57.8509 59.1629 55.9469 61.4047 53.2719 63.0831C50.6087 64.7615 47.5718 65.6007 44.1617 65.6007V65.6248Z" fill="black"/>
<path d="M78.8933 34.1289H88.4252L77.9655 49.583L88.2926 65.0845H78.6641L72.9405 55.7931L66.7102 65.0845H57.2266L67.7346 49.403L57.6 34.1411H67.2285L72.9524 43.3966L78.9052 34.1411L78.8933 34.1289Z" fill="black"/>
<path d="M97.7189 45.4107H105.997C109.191 45.4107 111.745 46.3098 113.649 48.0961C115.553 49.8825 116.505 52.2444 116.505 55.1698C116.505 58.0951 115.529 60.4807 113.577 62.3151C111.625 64.1495 109.07 65.0726 105.901 65.0726H89.6328V34.1289H113.722V41.0225H97.7308V45.4225L97.7189 45.4107ZM97.7189 58.7302H104.419C105.563 58.7302 106.516 58.3949 107.251 57.7114C107.998 57.0282 108.371 56.1646 108.371 55.1217C108.371 54.0788 108.01 53.2156 107.299 52.5561C106.588 51.8969 105.685 51.5612 104.599 51.5612H97.7189V58.7302Z" fill="black"/>
</g>
</svg>
