<svg width="219" height="53" viewBox="0 0 219 53" fill="none" xmlns="http://www.w3.org/2000/svg">
<path d="M104.391 9.38492V12.6699H108.406H112.421V9.38492V6.09992H108.406H104.391V9.38492Z" fill="black"/>
<path d="M147.461 23.6206V41.1406H151.841H156.221V23.6206V6.10062H151.841H147.461V23.6206Z" fill="black"/>
<path d="M45.26 11.2102C35.332 14.5682 30.66 26.2482 35.405 35.8112C40.515 46.1042 54.093 48.8052 62.78 41.2862C73.438 32.2342 70.08 15.2252 56.94 10.9912C52.122 9.4582 50.224 9.4582 45.26 11.2102ZM56.794 16.6122C62.123 19.3862 64.97 25.3722 63.583 30.7742C63.072 32.4532 62.488 33.8402 62.123 33.8402C61.758 33.8402 60.663 32.5262 59.568 30.9202L57.67 28.0002H59.495C61.685 28.0002 61.904 26.1752 60.225 22.8172C57.889 18.2912 51.392 16.4662 46.647 18.8752C43.07 20.7732 41.537 18.6562 45.114 16.7582C47.669 15.3712 54.239 15.2982 56.794 16.6122ZM42.705 24.1312C43.508 25.6642 44.238 27.1242 44.384 27.4162C44.53 27.7812 43.8 28.0002 42.778 28.0002C40.515 28.0002 40.442 28.6572 42.413 32.4532C45.041 37.6362 51.757 39.4612 56.721 36.3222C58.765 35.0082 58.911 35.0812 59.422 36.4682C59.933 37.8552 54.75 40.3372 51.319 40.4102C42.778 40.4832 36.135 30.7742 39.566 23.2552C40.661 20.8462 41.099 20.9192 42.705 24.1312Z" fill="black"/>
<path d="M12.7759 14.7867C11.9729 15.0787 9.12594 15.2247 6.42494 15.0057L1.46094 14.6407V32.3067V49.9727L5.62194 49.7537L9.70994 49.5347L9.63694 44.9357C9.63694 40.4827 9.70994 40.2637 11.1699 40.7747C14.2359 41.7967 19.6379 42.0157 22.1929 41.1397C25.9889 39.8987 30.4419 34.4967 31.0989 30.4087C32.0479 24.1307 28.7629 18.0717 22.9959 15.5167C20.0029 14.1297 15.3309 13.8377 12.7759 14.7867ZM18.5429 22.4517C21.9739 23.9117 23.2879 27.2697 21.6819 30.6277C19.2729 35.5187 13.1409 35.6647 10.7319 30.8467C9.05294 27.3427 10.1479 23.9117 13.4329 22.4517C16.2069 21.2837 15.6959 21.2837 18.5429 22.4517Z" fill="black"/>
<path d="M83.5892 14.7137C82.8592 15.0787 79.7932 15.2247 76.8732 15.0057L71.6172 14.6407L71.7632 32.0877L71.9092 49.5347L76.1432 49.7537L80.3042 49.9727V45.1547C80.3042 40.4097 80.3772 40.3367 81.9832 40.9207C82.8592 41.2127 85.5602 41.5047 88.0422 41.5047C91.6192 41.5047 93.0062 41.1397 95.4882 39.4607C103.591 34.1317 103.518 22.0137 95.4152 16.6117C92.4222 14.6407 86.2172 13.6187 83.5892 14.7137ZM91.1082 24.1307C95.4152 28.8757 89.9402 36.3217 83.9542 33.8397C80.5232 32.3797 79.2822 27.6347 81.4722 24.4957C83.8812 21.0647 88.1882 20.9187 91.1082 24.1307Z" fill="black"/>
<path d="M104.391 27.7816V41.1406H108.406H112.421V28.0736V15.0066L108.406 14.7146L104.391 14.4956V27.7816Z" fill="black"/>
<path d="M126.659 14.7874C125.856 15.0794 123.009 15.2254 120.308 15.0064L115.344 14.6414V32.3074V49.9004H119.359H123.374V45.0824C123.374 40.7754 123.52 40.3374 124.688 40.7754C125.345 41.0674 127.462 41.5054 129.433 41.7244C141.77 43.0384 149.435 29.3874 141.989 19.5324C138.704 15.2984 131.331 12.9624 126.659 14.7874ZM134.178 23.7664C135.784 25.2994 136.295 28.7304 135.346 31.2854C134.762 32.6724 131.331 34.5704 129.214 34.5704C127.097 34.5704 123.374 30.7014 123.374 28.5844C123.447 22.5254 129.725 19.6784 134.178 23.7664Z" fill="black"/>
<path d="M168.044 14.8603C156.729 19.6053 155.999 35.1543 166.73 40.4103C169.577 41.7243 170.891 41.9433 174.322 41.5783C176.585 41.3593 180.819 41.0673 183.593 40.9213L188.703 40.7753L188.849 27.7813L188.995 14.7873L183.739 14.8603C180.819 14.8603 176.512 14.7143 174.103 14.4953C171.694 14.2763 168.92 14.4953 168.044 14.8603ZM178.045 23.3283C182.644 27.1973 180.016 34.1323 173.957 34.1323C167.46 34.1323 165.708 24.6423 171.84 22.1603C174.395 21.1383 175.709 21.3573 178.045 23.3283Z" fill="black"/>
<path d="M191.258 15.0794C191.258 15.1524 193.229 20.7004 195.711 27.3434L200.164 39.3154L198.631 44.1334C197.755 46.7614 197.098 49.0974 197.098 49.3894C197.098 49.6814 198.996 49.9004 201.405 49.9004C205.42 49.9004 205.712 49.7544 206.442 47.8564C207.683 44.7904 218.268 15.4444 218.268 15.1524C218.268 15.0064 216.297 14.8604 213.961 14.8604H209.654L207.537 21.1384C206.369 24.5694 205.128 27.3434 204.763 27.3434C204.471 27.3434 203.157 24.6424 201.916 21.2844L199.653 15.2254L195.419 15.0064C193.156 14.8604 191.258 14.9334 191.258 15.0794Z" fill="black"/>
</svg>
