<svg width="399" height="78" viewBox="0 0 399 78" fill="none" xmlns="http://www.w3.org/2000/svg">
<path d="M38.906 5.66587C39.1321 5.67587 39.3548 5.68587 39.5876 5.69587C44.7579 5.97253 49.8352 7.4792 54.201 10.3325C54.5501 10.5559 54.9025 10.7759 55.265 11.0059C57.3132 12.3225 57.3131 12.3225 58.1909 12.9992C58.1909 13.2192 58.1909 13.4392 58.1909 13.6659C58.3771 13.7425 58.56 13.8192 58.7529 13.8992C59.7271 14.4492 60.3988 15.1392 61.1834 15.9359C61.4661 16.2192 61.7454 16.5059 62.0346 16.7959C64.1759 19.0925 64.1759 19.0925 64.1759 20.3325C64.3954 20.3325 64.6148 20.3325 64.841 20.3325C65.1202 20.8192 65.3962 21.3025 65.6722 21.7925C65.8251 22.0625 65.9814 22.3325 66.141 22.6125C66.5034 23.3325 66.5034 23.3325 66.5034 23.9992C64.7212 24.0225 62.9424 24.0425 61.1602 24.0525C60.555 24.0592 59.9466 24.0659 59.3414 24.0759C58.4703 24.0859 57.5991 24.0925 56.7313 24.0959C56.4586 24.1025 56.186 24.1059 55.9067 24.1125C54.0114 24.1125 54.0114 24.1125 53.2899 23.5325C52.871 22.9992 52.8709 22.9992 52.8709 22.3325C52.6648 22.2992 52.4587 22.2625 52.2459 22.2292C51.541 21.9992 51.541 21.9992 50.8759 20.9992C50.5468 20.8892 50.2176 20.7792 49.8784 20.6659C49.8784 20.4459 49.8784 20.2259 49.8784 19.9992C49.659 19.9159 49.4395 19.8325 49.2135 19.7492C48.452 19.4325 47.7571 19.0925 47.0322 18.7059C42.1545 16.2359 36.2094 15.4025 30.926 16.9992C30.6666 17.0625 30.4039 17.1292 30.1346 17.1959C27.6276 17.8592 25.2768 18.9725 23.212 20.5625C22.6135 20.9992 22.6135 20.9992 21.9485 20.9992C21.8387 21.3292 21.729 21.6592 21.616 21.9992C20.931 22.2292 20.931 22.2292 20.286 22.3325C20.266 22.5192 20.2461 22.7025 20.2228 22.8959C19.8437 23.9792 19.1122 24.5492 18.291 25.3325C18.128 25.6625 18.128 25.6625 17.9585 25.9992C17.739 25.9992 17.5196 25.9992 17.2935 25.9992C17.2669 26.2259 17.2403 26.4525 17.2103 26.6859C16.961 27.6659 16.961 27.6659 16.3359 28.7492C15.4481 30.2292 15.4481 30.2292 14.6335 32.9992C32.7381 32.9992 50.8427 32.9992 69.4959 32.9992C71.2915 40.1992 69.5757 48.0292 65.8584 54.3725C65.0172 55.7392 64.166 57.0692 63.1784 58.3325C62.959 58.3325 62.7395 58.3325 62.5135 58.3325C62.4835 58.5292 62.4536 58.7259 62.4237 58.9292C62.1145 59.8659 61.6922 60.1925 60.9341 60.8125C60.1527 61.4659 59.4345 62.0925 58.7296 62.8325C56.3423 65.1125 53.516 66.6225 50.5434 67.9992C50.3173 68.1092 50.0913 68.2159 49.8585 68.3292C45.5792 70.3259 41.0506 70.7825 36.3723 70.7925C36.0132 70.7925 35.6541 70.7925 35.285 70.7925C33.0939 70.7625 31.059 70.5125 28.931 69.9992C28.2926 69.8525 28.2926 69.8525 27.6442 69.7025C25.054 69.0325 22.6733 68.2125 20.286 66.9992C20.286 66.7792 20.286 66.5592 20.286 66.3325C19.8737 66.2192 19.8737 66.2192 19.4547 66.1025C18.0682 65.5825 16.7947 64.9225 15.631 63.9992C15.631 63.7792 15.631 63.5592 15.631 63.3325C15.4049 63.2792 15.1788 63.2225 14.946 63.1659C13.7191 62.5392 13.0574 61.7092 12.1896 60.6559C11.6609 59.9959 11.6609 59.9959 11.0724 59.4559C10.6435 58.9992 10.6435 58.9992 10.6435 58.3325C10.3143 58.2225 9.9851 58.1125 9.64595 57.9992C9.08735 57.2425 8.58195 56.5025 8.08653 55.7059C7.9502 55.4959 7.81055 55.2825 7.66758 55.0625C6.65346 53.4625 6.65345 53.4625 6.65345 52.3325C10.7133 52.2225 14.7731 52.1125 18.956 51.9992C19.0657 52.3292 19.1754 52.6592 19.2885 52.9992C19.6176 53.1092 19.9468 53.2192 20.286 53.3325C20.286 53.5525 20.286 53.7725 20.286 53.9992C20.5054 53.9992 20.7249 53.9992 20.951 53.9992C20.951 54.2192 20.951 54.4392 20.951 54.6659C21.1937 54.7525 21.4364 54.8392 21.6891 54.9292C22.6268 55.3392 23.3017 55.8125 24.1097 56.4359C26.2976 58.0159 28.7215 58.8192 31.2585 59.6659C31.2585 54.2759 31.2585 48.8859 31.2585 43.3325C22.0416 43.3325 12.8247 43.3325 3.32845 43.3325C2.52048 35.2292 3.7075 27.5292 8.31595 20.6659C8.5487 20.2925 8.54871 20.2925 8.78478 19.9125C13.2602 13.0425 20.6717 8.2192 28.5985 6.33253C31.99 5.6792 35.4613 5.4992 38.906 5.66587ZM41.8985 43.3325C41.8985 48.7225 41.8985 54.1125 41.8985 59.6659C45.7954 59.1092 48.9042 57.2025 51.8735 54.6659C52.2159 54.4125 52.5584 54.1559 52.9109 53.8959C55.5276 51.4459 57.3431 48.0325 58.5234 44.6659C58.5234 44.2259 58.5234 43.7859 58.5234 43.3325C53.0372 43.3325 47.551 43.3325 41.8985 43.3325Z" fill="black"/>
<path d="M111.464 18.6254C116.259 18.4754 121.094 19.7021 124.688 22.9988C126.151 24.4454 127.295 26.0554 128.013 27.9988C128.013 28.3288 128.013 28.6588 128.013 28.9988C122.72 31.1021 122.72 31.1021 120.033 30.9988C119.847 30.6421 119.661 30.2854 119.471 29.9154C118.47 28.1821 117.163 27.1721 115.255 26.5121C112.818 26.0088 109.759 25.8654 107.438 26.8521C106.327 27.5988 106.327 27.5988 105.839 28.8121C105.656 29.9721 105.656 29.9721 106.045 30.9154C106.939 31.8921 107.84 32.2421 109.06 32.6654C109.386 32.7888 109.712 32.9121 110.048 33.0388C111.947 33.7421 113.835 34.3754 115.79 34.9088C120.113 36.0954 125.05 37.8254 127.657 41.6954C129.06 44.2121 129.007 47.3154 128.302 50.0421C127.109 53.5621 124.605 55.4654 121.416 57.1688C116.811 59.2388 109.875 59.4888 105.064 57.7588C103.012 56.8921 101.08 55.8321 99.418 54.3321C99.418 54.1121 99.418 53.8921 99.418 53.6654C99.0988 53.5321 99.0988 53.5321 98.7729 53.3954C98.088 52.9988 98.088 52.9988 97.7555 51.9988C97.536 51.9988 97.3166 51.9988 97.0905 51.9988C96.7513 51.3688 96.4221 50.7354 96.093 50.1021C95.9068 49.7521 95.7206 49.3988 95.531 49.0354C95.1054 48.0254 94.999 47.4121 95.0955 46.3321C95.9866 46.0588 96.881 45.7888 97.7754 45.5188C98.0248 45.4421 98.2742 45.3654 98.5335 45.2888C100.046 44.8354 101.503 44.5154 103.075 44.3321C103.491 45.3021 103.74 45.9321 103.74 46.9988C103.96 46.9988 104.179 46.9988 104.405 46.9988C104.405 47.3288 104.405 47.6588 104.405 47.9988C104.625 47.9988 104.844 47.9988 105.07 47.9988C105.07 48.2188 105.07 48.4388 105.07 48.6654C105.263 48.7621 105.456 48.8588 105.652 48.9588C106.118 49.1921 106.58 49.4254 107.042 49.6654C109.981 51.1821 112.685 51.9288 115.993 51.0921C117.609 50.4988 118.899 49.9354 119.7 48.3321C119.867 47.0421 119.78 45.9088 119.368 44.6654C118.63 44.3021 118.63 44.3021 117.705 43.9988C117.346 43.8421 116.991 43.6888 116.625 43.5288C115.464 43.0254 114.291 42.6054 113.09 42.2088C112.878 42.1354 112.665 42.0654 112.449 41.9921C111.292 41.6088 110.134 41.2554 108.961 40.9354C105.845 40.0821 103.189 39.0121 100.415 37.3321C100.415 37.1121 100.415 36.8921 100.415 36.6654C100.196 36.6654 99.9766 36.6654 99.7505 36.6654C97.7987 34.7121 97.0605 32.6021 96.9442 29.8521C97.0406 26.9521 98.1312 24.6721 100.113 22.5821C103.341 19.6154 107.232 18.8554 111.464 18.6254Z" fill="black"/>
<path d="M354.445 17.666C356.969 17.666 359.493 17.666 362.093 17.666C362.093 30.976 362.093 44.286 362.093 57.9994C359.569 57.9994 357.045 57.9994 354.445 57.9994C354.282 56.8427 354.282 56.8427 354.113 55.666C353.897 55.9127 353.897 55.9127 353.677 56.166C353.115 56.666 353.115 56.666 352.118 56.666C352.118 56.886 352.118 57.106 352.118 57.3327C348.174 59.186 343.3 59.0993 339.22 57.676C337.132 56.7427 335.892 55.4427 334.495 53.666C334.326 53.5093 334.159 53.3527 333.986 53.1894C331.762 50.8027 330.984 46.6227 331.087 43.4527C331.513 39.4394 332.284 35.706 335.493 32.9993C335.988 32.8327 335.988 32.8327 336.49 32.666C336.6 32.336 336.71 32.006 336.823 31.666C339.513 29.8127 343.533 28.496 346.798 28.9993C349.877 29.6427 351.503 30.3693 354.113 32.3327C354.222 27.4927 354.332 22.6527 354.445 17.666ZM340.5 38.9594C339.137 41.0294 338.851 43.2327 339.15 45.666C339.868 48.1227 341.132 49.5527 343.14 51.1027C345.065 52.1394 347.519 52.0027 349.581 51.4594C351.769 50.4993 353.361 48.686 354.259 46.4993C354.721 43.6094 354.445 41.2193 352.846 38.7293C350.951 36.8293 349.341 36.2893 346.735 36.206C344.114 36.2327 342.286 37.0294 340.5 38.9594Z" fill="black"/>
<path d="M169.242 17.666C171.766 17.666 174.29 17.666 176.89 17.666C176.999 22.396 177.109 27.126 177.222 31.9993C177.99 31.4493 178.758 30.8993 179.55 30.3327C180.787 29.8793 180.787 29.8793 182.043 29.5627C182.459 29.4527 182.875 29.346 183.3 29.2327C187.307 28.476 191.49 29.776 194.845 31.9993C194.845 32.2193 194.845 32.4393 194.845 32.666C195.057 32.7493 195.27 32.8327 195.49 32.916C196.354 33.4427 196.271 33.7227 196.507 34.666C196.71 34.756 196.916 34.8427 197.126 34.9327C198.549 35.7327 198.964 37.526 199.5 38.9993C199.703 39.9627 199.809 40.7027 199.832 41.666C199.845 41.9927 199.859 42.316 199.872 42.6527C199.939 45.8227 199.899 48.936 198.17 51.666C198.003 52.1627 198.003 52.1627 197.837 52.666C197.618 52.666 197.398 52.666 197.172 52.666C197.096 52.8527 197.023 53.036 196.943 53.2294C195.669 55.4827 193.116 57.3194 190.682 58.1427C187.124 58.9594 182.496 59.1927 179.217 57.3327C179.217 57.1127 179.217 56.8927 179.217 56.666C178.669 56.556 178.12 56.446 177.555 56.3327C177.555 56.1127 177.555 55.8927 177.555 55.666C177.335 55.666 177.116 55.666 176.89 55.666C176.89 56.436 176.89 57.206 176.89 57.9994C174.366 57.9994 171.842 57.9994 169.242 57.9994C169.242 44.6894 169.242 31.3793 169.242 17.666ZM179.217 37.9993C179.107 38.3293 178.998 38.6593 178.885 38.9993C178.665 38.9993 178.446 38.9993 178.22 38.9993C177.089 41.3227 176.168 43.2894 176.973 45.8727C177.92 48.4094 179.237 50.2427 181.721 51.4094C184.032 52.1327 186.456 52.0294 188.61 50.916C189.448 50.4193 189.787 50.2094 190.1 49.276C190.13 49.0727 190.16 48.8727 190.19 48.666C190.409 48.666 190.629 48.666 190.855 48.666C192.015 45.796 192.727 43.596 191.486 40.636C190.599 38.7427 189.641 37.586 187.782 36.6393C184.88 35.666 181.568 35.9227 179.217 37.9993Z" fill="black"/>
<path d="M317.512 30.8371C317.741 31.0005 317.967 31.1638 318.203 31.3338C318.203 31.5538 318.203 31.7738 318.203 32.0005C318.423 32.0005 318.642 32.0005 318.868 32.0005C318.978 31.3405 319.088 30.6805 319.201 30.0005C321.834 30.0005 324.468 30.0005 327.181 30.0005C327.181 39.2405 327.181 48.4805 327.181 58.0005C324.657 58.0005 322.134 58.0005 319.533 58.0005C319.201 57.6671 319.201 57.6671 319.181 56.6471C319.188 56.3238 319.194 56.0005 319.201 55.6671C318.981 55.8271 318.765 55.9871 318.539 56.1538C314.945 58.6471 311.188 59.1105 306.902 58.4771C303.287 57.7005 300.398 55.4271 298.356 52.4171C296.272 48.8805 295.238 44.7338 296.215 40.6938C297.492 36.0138 299.71 32.9938 303.843 30.4171C308.571 28.5571 312.907 28.4471 317.512 30.8371ZM305.329 38.9571C303.829 41.1705 303.889 43.7638 304.238 46.3338C304.873 48.2171 305.878 49.5938 307.563 50.6671C307.986 50.9538 307.986 50.9538 308.415 51.2505C310.443 51.9905 312.511 52.0571 314.546 51.2905C315.344 50.8905 316.112 50.4705 316.873 50.0005C316.873 49.7805 316.873 49.5605 316.873 49.3338C317.093 49.3338 317.312 49.3338 317.538 49.3338C319.168 47.1771 319.477 45.2105 319.38 42.5338C319.028 40.1871 317.831 38.7338 315.979 37.3338C312.421 35.1805 308.092 35.9438 305.329 38.9571Z" fill="black"/>
<path d="M153.177 30.8665C153.795 31.3331 154.38 31.8031 154.946 32.3331C155.055 31.5631 155.165 30.7931 155.278 29.9998C157.802 29.9998 160.325 29.9998 162.926 29.9998C162.926 39.2398 162.926 48.4798 162.926 57.9998C160.402 57.9998 157.878 57.9998 155.278 57.9998C155.115 56.8431 155.115 56.8431 154.946 55.6664C154.813 55.8131 154.683 55.9598 154.547 56.1098C152.02 58.4564 148.585 58.7198 145.303 58.6664C142.334 58.5031 139.737 57.8131 137.323 55.9998C137.213 55.6698 137.104 55.3398 136.991 54.9998C136.771 54.8898 136.552 54.7798 136.326 54.6664C135.661 54.3331 135.661 54.3331 135.328 53.3331C135.109 53.3331 134.889 53.3331 134.663 53.3331C132.635 49.6698 131.814 46.5065 132.003 42.3331C132.003 42.0965 132 41.8631 131.996 41.6231C132.093 39.0431 133.459 36.8831 134.663 34.6665C134.883 34.6665 135.102 34.6665 135.328 34.6665C135.358 34.4665 135.388 34.2665 135.418 34.0631C135.867 32.7065 137.18 32.0998 138.321 31.3331C138.67 31.0931 139.019 30.8498 139.381 30.6031C143.597 28.2865 149.064 28.4031 153.177 30.8665ZM140.981 39.3531C139.694 41.2465 139.86 43.4465 139.983 45.6665C140.445 47.8531 141.682 49.6331 143.454 50.9798C145.373 52.0731 147.494 51.9698 149.626 51.6664C151.657 50.9764 153.107 49.8031 154.281 47.9998C155.355 45.6165 155.634 43.5331 154.799 41.0198C153.988 39.1098 152.661 37.8165 150.956 36.6665C147.082 35.2331 143.637 36.4498 140.981 39.3531Z" fill="black"/>
<path d="M390.724 31.5057C393.398 33.6057 394.651 36.269 396.008 39.3323C396.008 41.7523 396.008 44.1723 396.008 46.6657C388.876 46.7757 381.743 46.8857 374.395 46.999C374.834 47.769 375.273 48.539 375.725 49.3323C375.725 49.5523 375.725 49.7723 375.725 49.999C378.711 51.539 381.687 52.239 385.015 51.3957C385.96 51.029 386.588 50.6357 387.363 49.999C387.582 49.999 387.802 49.999 388.028 49.999C388.137 49.559 388.247 49.119 388.36 48.6657C391.11 48.3857 393.467 49.4057 396.008 50.3323C394.388 54.4423 391.662 56.2457 387.695 57.999C383.848 59.2857 378.246 59.0257 374.538 57.519C372.394 56.4257 370.598 55.209 369.075 53.3323C368.716 52.889 368.716 52.889 368.35 52.439C366.136 48.3823 365.607 43.6057 366.721 39.099C367.11 38.119 367.546 37.2423 368.078 36.3323C368.224 36.0623 368.367 35.789 368.517 35.509C369.734 33.4257 371.363 32.2357 373.398 30.999C373.707 30.809 374.016 30.6157 374.335 30.4157C379.652 28.3257 385.763 28.4257 390.724 31.5057ZM376.101 37.8323C375.339 38.629 375.339 38.629 375.06 39.6657C374.841 39.6657 374.621 39.6657 374.395 39.6657C374.395 40.1057 374.395 40.5457 374.395 40.999C378.894 40.999 383.393 40.999 388.028 40.999C388.211 39.359 388.211 39.359 387.303 38.479C383.948 35.5657 379.712 34.6857 376.101 37.8323Z" fill="black"/>
<path d="M236.384 29.5629C236.733 29.6529 236.733 29.6529 237.085 29.7429C240.856 30.7695 243.868 32.8262 245.93 36.1862C248.021 39.9695 248.463 44.3329 247.403 48.5462C247.014 49.5329 246.581 50.4195 246.046 51.3329C245.883 51.6162 245.72 51.9029 245.551 52.1929C244.673 53.6029 243.808 54.7595 242.389 55.6662C242.169 55.6662 241.95 55.6662 241.724 55.6662C241.724 55.8862 241.724 56.1062 241.724 56.3329C237.494 58.9462 232.557 59.0029 227.759 58.3329C224.942 57.5795 222.778 56.1095 220.776 53.9995C220.55 53.7929 220.324 53.5862 220.091 53.3762C218.399 51.5129 217.747 49.3895 217.119 46.9995C217.059 46.7795 216.996 46.5562 216.932 46.3295C216.015 42.1195 217.833 38.2829 219.779 34.6662C219.998 34.6662 220.217 34.6662 220.444 34.6662C220.444 34.4462 220.444 34.2262 220.444 33.9995C220.663 33.9995 220.882 33.9995 221.109 33.9995C221.185 33.8095 221.262 33.6162 221.338 33.4162C222.621 31.2129 225.225 30.3262 227.566 29.6929C230.671 28.9829 233.305 28.7595 236.384 29.5629ZM229.089 36.6662C229.089 36.8862 229.089 37.1062 229.089 37.3329C228.829 37.4362 228.57 37.5395 228.301 37.6462C227.453 37.9762 227.453 37.9762 226.761 38.3329C226.761 38.5529 226.761 38.7729 226.761 38.9995C226.542 38.9995 226.322 38.9995 226.096 38.9995C224.487 42.7229 224.487 42.7229 225.115 46.6062C226.166 49.0095 227.542 50.4062 229.913 51.3995C232.058 52.0829 233.837 51.8795 235.865 50.9362C237.867 49.8195 238.824 48.4229 239.729 46.3329C240.068 43.7495 240.111 41.3162 238.562 39.1395C238 38.6029 237.444 38.3129 236.736 37.9995C236.736 37.7795 236.736 37.5595 236.736 37.3329C234.246 36.2029 231.755 35.8929 229.089 36.6662Z" fill="black"/>
<path d="M244.055 19.334C255.356 19.334 266.658 19.334 278.302 19.334C278.302 21.754 278.302 24.174 278.302 26.6673C273.913 26.6673 269.524 26.6673 265.002 26.6673C265.002 37.0073 265.002 47.3473 265.002 58.0006C262.369 58.0006 259.735 58.0006 257.022 58.0006C257.022 47.6606 257.022 37.3207 257.022 26.6673C252.743 26.6673 248.464 26.6673 244.055 26.6673C244.055 24.2473 244.055 21.8273 244.055 19.334Z" fill="black"/>
<path d="M291.706 29.6461C292.331 29.6528 292.953 29.6594 293.598 29.6661C293.598 31.9761 293.598 34.2861 293.598 36.6661C292.993 36.6928 292.391 36.7228 291.769 36.7494C289.449 36.9494 287.836 37.4661 286.157 39.1061C284.84 41.2861 284.843 43.5061 284.813 45.9894C284.807 46.3328 284.8 46.6761 284.794 47.0328C284.777 48.1261 284.76 49.2194 284.744 50.3128C284.73 51.0561 284.72 51.7994 284.707 52.5461C284.674 54.3628 284.647 56.1828 284.621 57.9994C281.987 57.9994 279.354 57.9994 276.641 57.9994C276.641 48.7594 276.641 39.5194 276.641 29.9994C279.274 29.9994 281.907 29.9994 284.621 29.9994C284.73 30.6594 284.84 31.3194 284.953 31.9994C285.249 31.7894 285.249 31.7894 285.548 31.5761C285.811 31.3928 286.074 31.2094 286.346 31.0194C286.602 30.8394 286.862 30.6561 287.128 30.4694C288.614 29.6161 290.02 29.6261 291.706 29.6461Z" fill="black"/>
<path d="M204.484 30C207.118 30 209.751 30 212.464 30C212.464 39.24 212.464 48.48 212.464 58C209.831 58 207.198 58 204.484 58C204.484 48.76 204.484 39.52 204.484 30Z" fill="black"/>
<path d="M210.142 17.6659C211.608 18.3859 212.536 19.1325 213.134 20.6659C213.34 22.0425 213.467 23.3759 212.795 24.6359C211.904 25.7359 211.006 26.5859 209.587 26.8025C206.478 26.8959 206.478 26.8959 205.091 25.8725C204.02 24.7625 203.801 23.6725 203.758 22.1525C203.897 20.4325 204.4 19.4025 205.673 18.1859C207.209 17.4892 208.483 17.3992 210.142 17.6659Z" fill="black"/>
</svg>
