<svg width="225" height="150" viewBox="0 0 225 150" fill="none" xmlns="http://www.w3.org/2000/svg">
<path d="M107.365 10.0908C104.653 11.4507 101.161 13.1742 99.6103 13.9283C95.266 16.0423 85.2817 20.8762 80.8771 22.9902C78.7016 24.0405 76.3851 25.1783 75.7405 25.5149C68.9455 29.0899 64.6013 32.8937 63.0906 36.5697C62.6541 37.6334 62.5064 38.2932 62.4661 39.404C62.4191 40.5418 62.493 41.1208 62.7951 42.0768C63.4733 44.2245 65.0915 46.2847 67.5892 48.1765C68.3748 48.7689 69.899 49.7721 69.946 49.725C69.9594 49.7115 69.9393 49.3749 69.8923 48.9844C69.4424 44.992 72.8735 40.4745 79.6282 36.1522C81.9446 34.6644 84.0731 33.5535 89.9079 30.7461C94.8632 28.3695 104.055 23.8856 109.467 21.2196L112.334 19.8057V13.7061C112.334 10.3533 112.327 7.60647 112.321 7.6132C112.307 7.6132 110.078 8.73079 107.365 10.0908Z" fill="black"/>
<path d="M102.851 36.7528C95.8276 39.8565 95.4247 40.045 95.5993 40.1191C95.7 40.1662 97.0228 40.7452 98.5335 41.405C100.051 42.0648 102.918 43.3372 104.912 44.2326C119.362 50.7228 123.001 52.3251 129.017 54.8363C131.709 55.9606 133.059 56.607 134.187 57.3071C136.457 58.721 138.108 60.4714 139.055 62.444C139.418 63.2048 139.599 63.7232 139.8 64.5984C139.995 65.4669 140.049 67.4126 139.901 68.4629C139.841 68.887 139.807 69.2439 139.814 69.2573C139.827 69.2708 140.264 69.0082 140.781 68.6783C146.501 65.0226 149.818 61.2591 150.436 57.738C150.973 54.6141 149.368 51.7663 145.669 49.3157C143.957 48.1846 142.728 47.5652 139.411 46.1918C136.933 45.1684 134.872 44.2798 131.266 42.6842C124.431 39.6613 110.344 33.4606 110.311 33.4606C110.297 33.4674 106.94 34.9418 102.851 36.7528Z" fill="black"/>
<path d="M84.2087 36.9262C81.6841 38.5352 79.7302 40.0837 78.1456 41.7197C74.681 45.3081 73.647 48.735 75.0973 51.8185C76.1783 54.1142 78.6761 56.2417 82.3757 58.0191C82.8726 58.2547 84.3497 58.901 85.6658 59.4464C88.976 60.8265 89.5131 61.0622 102.841 66.9464L114.672 72.1641L122.078 68.8988C126.154 67.1012 129.504 65.6066 129.538 65.5797C129.565 65.5528 128.336 64.994 126.818 64.3274C125.294 63.6677 120.849 61.695 116.948 59.9446C106.024 55.0433 101.008 52.8485 95.8918 50.7211C93.2665 49.6304 92.313 49.1793 91.1716 48.4926C87.8144 46.4863 85.8471 43.9886 85.1689 40.8647C84.954 39.8817 84.9608 37.8081 85.1756 36.5694C85.2025 36.4549 85.189 36.3539 85.1555 36.3539C85.1286 36.3539 84.6989 36.6097 84.2087 36.9262Z" fill="black"/>
<path d="M155.062 56.0945C155.082 56.2157 155.116 56.6331 155.142 57.0236C155.337 60.2619 152.819 64.0321 148.086 67.5869C145.353 69.6403 142.499 71.3032 137.88 73.5182C131.89 76.393 123.511 80.4729 115.944 84.1892L112.398 85.9262V92.0124C112.398 95.3517 112.412 98.0918 112.432 98.0918C112.452 98.0918 114.621 97.0146 117.253 95.695C123.007 92.8068 130.991 88.9154 143.15 83.0649C147.958 80.7489 149.623 79.9073 151.302 78.9446C154.518 77.0797 156.781 75.41 158.728 73.4576C160.736 71.4446 161.817 69.7211 162.334 67.735C162.569 66.8328 162.616 65.4998 162.454 64.5909C161.984 61.9383 160.111 59.3799 157.016 57.1448C156.405 56.7071 155.129 55.8791 155.055 55.8791C155.035 55.8791 155.035 55.98 155.062 56.0945Z" fill="black"/>
<path d="M14.737 115.704C10.2115 116.323 7.9823 118.915 7.9823 123.574C7.9823 125.385 8.21059 126.564 8.79475 127.755C9.84891 129.93 11.7088 131.095 14.8713 131.559C15.2204 131.606 17.3288 131.653 20.9814 131.68C26.4402 131.727 26.5678 131.734 27.0915 131.876C28.1323 132.165 28.7836 132.603 29.126 133.269C29.2871 133.572 29.3073 133.673 29.3073 134.346C29.3073 134.993 29.2871 135.127 29.1461 135.417C28.797 136.13 28.0383 136.615 26.8498 136.885C26.2254 137.033 26.1381 137.033 17.0736 137.053L7.92188 137.08V139.739V142.398L17.7786 142.372C28.4344 142.351 27.8905 142.372 29.3409 141.994C32.3355 141.227 34.0611 139.308 34.5848 136.157C34.7191 135.376 34.699 133.161 34.558 132.387C34.2491 130.691 33.6246 129.445 32.5906 128.449C31.4828 127.392 30.16 126.806 28.0785 126.456C27.528 126.362 26.5409 126.341 21.8207 126.301L16.2142 126.261L15.5696 126.086C14.8243 125.884 14.6027 125.783 14.1193 125.419C13.8574 125.224 13.7164 125.049 13.5486 124.705C13.3471 124.288 13.327 124.201 13.327 123.608C13.327 123.083 13.3538 122.908 13.4881 122.618C13.7836 121.959 14.5691 121.4 15.5427 121.157C16.4156 120.935 17.1676 120.915 25.9366 120.915H34.7124V118.256V115.596L25.0638 115.603C17.3153 115.61 15.2742 115.63 14.737 115.704Z" fill="black"/>
<path d="M41.0234 128.995V142.393H43.6756H46.3278V128.995V115.597H43.6756H41.0234V128.995Z" fill="black"/>
<path d="M52.6406 128.995V142.393H55.3264H58.0122L58.0256 134.832L58.0457 127.265L61.8729 134.832L65.7002 142.393H68.7216L71.7431 142.386L75.5704 134.825L79.3976 127.258L79.4177 134.825L79.4311 142.393H82.1169H84.8027V128.995V115.597L82.043 115.611L79.2901 115.631L74.0327 125.992C71.1456 131.688 68.7552 136.347 68.7216 136.347C68.6881 136.347 66.2977 131.688 63.4105 125.985L58.1666 115.631L55.4002 115.611L52.6406 115.597V128.995Z" fill="black"/>
<path d="M91.1172 118.257V120.916H96.4551H101.793V131.654V142.393H104.479H107.165V131.654V120.916H112.503H117.841V118.257V115.597H104.479H91.1172V118.257Z" fill="black"/>
<path d="M124.148 118.255V120.914H137.51H150.872V118.255V115.595H137.51H124.148V118.255Z" fill="black"/>
<path d="M164.499 115.643C163.002 115.805 161.471 116.31 160.477 116.97C158.852 118.054 157.906 119.595 157.436 121.945C157.281 122.699 157.281 122.726 157.281 128.927C157.281 135.828 157.281 135.78 157.731 137.208C158.624 140.022 160.491 141.577 163.761 142.237C164.278 142.338 165.238 142.351 174.155 142.372L183.971 142.398V139.739V137.08L174.927 137.06C165.882 137.039 165.876 137.039 165.365 136.891C163.915 136.481 163.109 135.679 162.706 134.245C162.592 133.841 162.586 133.458 162.586 128.994C162.586 124.611 162.599 124.14 162.706 123.743C163.083 122.336 163.908 121.487 165.285 121.097L165.809 120.949L174.893 120.929L183.971 120.908V118.256V115.596L174.356 115.61C169.065 115.61 164.627 115.63 164.499 115.643Z" fill="black"/>
<path d="M190.289 128.995V142.393H192.941H195.593V137.04V131.688H203.651H211.708V137.04V142.393H214.394H217.08V128.995V115.597H214.394H211.708V120.95V126.302H203.651H195.593V120.95V115.597H192.941H190.289V128.995Z" fill="black"/>
<path d="M124.148 128.96V131.619H137.51H150.872V128.96V126.3H137.51H124.148V128.96Z" fill="black"/>
<path d="M124.148 139.733V142.393H137.544H150.939V139.733V137.074H137.544H124.148V139.733Z" fill="black"/>
</svg>
