<svg width="351" height="82" viewBox="0 0 351 82" fill="none" xmlns="http://www.w3.org/2000/svg">
<path d="M53.4244 53.2844C42.6083 53.2854 32.079 53.2406 21.5506 53.3206C19.1576 53.3388 17.3576 52.5511 15.7261 50.8243C12.4974 47.4071 9.12141 44.1308 5.83931 40.7637C5.12311 40.029 4.17484 39.2533 4.6528 38.0379C5.17439 36.7115 6.43489 36.7598 7.58827 36.76C27.8807 36.7636 48.1731 36.7801 68.4654 36.7708C69.8938 36.7701 71.0896 37.2006 72.0954 38.1952C75.8468 41.9047 79.6068 45.6056 83.3356 49.338C84.0842 50.0874 84.8042 50.9578 84.2735 52.1449C83.7438 53.3299 82.6306 53.3174 81.5657 53.3165C72.281 53.3089 62.9964 53.2955 53.4244 53.2844Z" fill="black"/>
<path d="M59.7431 30.0026C42.2518 30.018 25.0474 30.0384 7.84311 30.0274C6.62374 30.0266 5.20107 30.076 4.63556 28.6555C4.03426 27.145 5.364 26.4368 6.21411 25.5817C9.45735 22.3194 12.7823 19.1352 15.9303 15.783C17.4434 14.1716 19.0875 13.6108 21.2503 13.6201C36.5456 13.686 51.8413 13.6762 67.1367 13.6365C71.9127 13.6242 76.688 13.4225 81.4643 13.36C82.5907 13.3453 83.9096 13.2895 84.3642 14.6736C84.7536 15.859 83.8622 16.6415 83.1198 17.3906C79.8144 20.7259 76.4143 23.9715 73.2181 27.4089C71.2861 29.4865 69.1328 30.3623 66.3358 30.1034C64.2485 29.9102 62.1331 30.0234 59.7431 30.0026Z" fill="black"/>
<path d="M22.4755 60.4445C41.7951 60.4522 60.8386 60.4539 79.8821 60.4609C80.838 60.4612 81.8234 60.3675 82.7434 60.5629C84.4921 60.9344 85.0961 62.084 83.7933 63.4458C79.8156 67.6036 75.7233 71.651 71.6586 75.7242C70.8279 76.5566 69.7148 76.4161 68.6686 76.4164C48.2853 76.4233 27.9019 76.4314 7.5186 76.4129C6.52191 76.412 5.23006 76.7807 4.70541 75.5537C4.13021 74.2084 5.33309 73.4496 6.09925 72.6606C9.17312 69.4948 12.3976 66.47 15.3604 63.2043C17.2729 61.0963 19.4076 60.0846 22.4755 60.4445Z" fill="black"/>
<path d="M177.838 59.9338C176.013 61.0175 174.191 61.2854 172.375 61.1216C166.451 60.5874 160.522 61.0515 154.598 60.8981C150.502 60.792 148.086 58.5952 148.033 54.5214C147.951 48.2693 147.961 42.0144 148.046 35.7622C148.102 31.6383 150.366 29.3612 154.519 29.3039C161.122 29.2128 167.727 29.2198 174.33 29.3049C177.994 29.3522 180.374 31.5245 180.464 35.1841C180.628 41.8178 180.564 48.4594 180.471 55.0959C180.445 56.9733 179.546 58.6069 177.838 59.9338ZM171.981 36.2984C167.252 35.4511 162.483 35.9503 157.733 35.9283C155.969 35.9201 154.754 37.2273 154.893 38.9264C155.2 42.6788 154.767 46.3951 154.752 50.1268C154.741 52.8631 156.193 54.1425 158.875 54.1202C162.404 54.0908 165.936 54.1445 169.463 54.0378C172.552 53.9443 173.493 52.9222 173.524 49.7627C173.558 46.4072 173.487 43.0508 173.473 39.6947C173.468 38.5214 173.41 37.3777 171.981 36.2984Z" fill="black"/>
<path d="M256.994 37.6389C256.973 44.2641 256.977 50.6138 256.916 56.9628C256.881 60.5895 255.304 61.6902 251.782 60.7883C250.582 60.4809 250.31 59.6908 250.296 58.6629C250.268 56.5466 250.222 54.4287 250.273 52.3137C250.322 50.2695 249.401 49.2538 247.375 49.2523C242.877 49.2488 238.379 49.2595 233.88 49.2473C232.335 49.2431 231.589 49.9928 231.59 51.5345C231.592 53.8433 231.551 56.1528 231.593 58.4608C231.636 60.7978 230.07 61.0731 228.332 61.0944C226.542 61.1162 224.67 61.0497 224.669 58.5583C224.667 50.6711 224.59 42.7793 224.84 34.8988C224.948 31.4904 227.568 29.3648 231.012 29.3176C237.041 29.2349 243.072 29.2103 249.101 29.2598C254.941 29.3077 256.892 31.37 256.994 37.6389ZM236.561 35.2871C235.705 35.3463 234.783 35.2215 234.003 35.4976C231.104 36.5227 231.609 39.0382 231.629 41.3274C231.642 42.8689 232.356 43.6366 233.915 43.601C238.504 43.4961 243.093 43.388 247.683 43.3175C249.002 43.2972 249.833 42.8321 250.143 41.4433C250.941 37.8682 249.061 35.3514 245.422 35.2961C242.648 35.2539 239.872 35.2906 236.561 35.2871Z" fill="black"/>
<path d="M337.98 35.9545C337.981 43.4412 337.856 50.6614 338.044 57.8734C338.118 60.7221 336.589 60.9755 334.51 61.0548C332.189 61.1433 331.205 60.1085 331.352 57.7513C331.478 55.7387 331.348 53.7112 331.383 51.6911C331.411 50.033 330.724 49.1934 329.003 49.2062C324.313 49.2412 319.623 49.2387 314.933 49.227C313.218 49.2228 312.542 50.1184 312.55 51.751C312.561 53.9639 312.536 56.1771 312.512 58.39C312.493 60.1174 311.775 61.1936 309.892 60.9422C308.151 60.7097 305.66 61.5283 305.633 58.47C305.566 50.7735 305.452 43.0725 305.649 35.3808C305.747 31.5782 308.425 29.3184 312.311 29.2744C318.819 29.2006 325.33 29.2034 331.838 29.2794C335.755 29.325 337.772 31.5255 337.98 35.9545ZM325.348 35.3033C322.299 35.3013 319.248 35.2142 316.203 35.3222C313.369 35.4227 312.648 36.7284 312.522 40.2822C312.425 43.0358 313.819 43.3339 316.045 43.4132C319.851 43.5488 323.637 43.5837 327.45 43.4789C331.56 43.3658 331.443 42.869 331.315 38.7203C331.232 36.0023 330.005 35.3136 325.348 35.3033Z" fill="black"/>
<path d="M121.798 29.2914C126.487 29.2797 130.89 29.2734 135.293 29.2513C136.252 29.2465 137.304 29.0671 137.76 30.2049C138.202 31.3064 137.337 31.9613 136.745 32.7042C134.564 35.4415 131.898 36.7665 128.267 36.45C124.942 36.1602 121.572 36.3993 118.222 36.4092C116.254 36.415 114.608 37.1891 114.737 39.3213C114.852 41.231 116.55 41.8867 118.324 41.9046C122.247 41.9443 126.171 41.8955 130.095 41.949C135.826 42.0272 139.79 46.0595 139.662 51.6127C139.543 56.7854 135.476 60.7835 130.161 60.8332C124.137 60.8895 118.112 60.8673 112.087 60.845C111.08 60.8413 109.796 61.1634 109.328 59.8844C108.854 58.5868 110.219 58.1658 110.822 57.3683C112.958 54.5433 115.798 53.8375 119.182 54.1026C121.94 54.3188 124.73 54.1424 127.506 54.1174C129.702 54.0977 132.616 54.4139 132.629 51.4116C132.642 48.1404 129.573 48.681 127.345 48.6414C123.995 48.5819 120.634 48.7686 117.296 48.557C109.943 48.0906 105.817 41.3179 108.764 34.7572C110.294 31.3494 113.033 29.6659 116.634 29.3497C118.249 29.2078 119.886 29.3033 121.798 29.2914Z" fill="black"/>
<path d="M289.079 58.8641C283.691 52.6712 278.445 46.6368 273.219 40.6251C271.614 41.6912 271.949 42.9464 271.937 44.0301C271.888 48.5458 271.809 53.0654 271.944 57.5774C272.019 60.0817 271.128 60.9633 268.621 60.9325C266.224 60.903 265.171 60.2292 265.207 57.6413C265.317 49.6674 265.201 41.6905 265.267 33.7156C265.279 32.2113 264.447 29.9579 266.582 29.4991C268.794 29.0236 271.308 28.5519 273.185 30.8694C276.925 35.4867 280.78 40.01 284.555 44.5991C286.068 46.438 287.646 48.1931 289.452 49.753C290.877 48.7213 290.533 47.3879 290.542 46.2078C290.578 41.5958 290.634 36.9814 290.523 32.3719C290.459 29.761 291.88 29.0249 294.077 28.9514C296.253 28.8786 297.555 29.7583 297.542 32.1229C297.501 39.1351 297.475 46.1474 297.438 53.1596C297.433 54.0221 297.399 54.8844 297.371 55.7466C297.316 57.4792 298.358 59.8683 296.205 60.6082C293.831 61.4242 291.059 61.6884 289.079 58.8641Z" fill="black"/>
<path d="M195.984 40.9991C195.946 44.745 195.997 48.2062 195.844 51.6581C195.74 54 196.58 54.9491 198.974 54.8957C203.749 54.7891 208.53 54.816 213.305 54.948C214.846 54.9907 216.997 54.0041 217.675 56.4152C218.053 57.7562 214.585 60.95 212.777 61.0238C210.968 61.0975 209.153 60.985 207.341 60.9711C202.185 60.9312 197.029 60.8596 191.873 60.8876C190.092 60.8973 189.333 60.2941 189.253 58.3978C188.887 49.7569 188.975 41.1163 189.056 32.474C189.077 30.2332 189.81 28.8328 192.402 28.878C195.007 28.9235 195.946 30.1594 195.888 32.645C195.826 35.3312 195.945 38.0217 195.984 40.9991Z" fill="black"/>
</svg>
