<?xml version="1.0" standalone="no"?>
<!DOCTYPE svg PUBLIC "-//W3C//DTD SVG 20010904//EN"
 "http://www.w3.org/TR/2001/REC-SVG-20010904/DTD/svg10.dtd">
<svg version="1.0" xmlns="http://www.w3.org/2000/svg"
 width="264.000000pt" height="66.000000pt" viewBox="0 0 264.000000 66.000000"
 preserveAspectRatio="xMidYMid meet">
<metadata>
Created by potrace 1.16, written by Peter Selinger 2001-2019
</metadata>
<g transform="translate(0.000000,66.000000) scale(0.100000,-0.100000)"
fill="#000000" stroke="none">
<path d="M69 545 c-31 -17 -59 -71 -59 -115 0 -51 26 -88 86 -122 48 -26 55
-34 51 -55 -4 -21 -1 -24 22 -21 18 2 27 10 29 25 3 18 -8 28 -53 54 -70 39
-85 61 -85 122 0 60 27 103 73 116 l32 9 -35 1 c-19 0 -47 -6 -61 -14z"/>
<path d="M317 554 c-4 -4 -7 -97 -7 -206 l0 -198 25 0 25 0 -2 202 c-3 174 -5
203 -18 206 -9 1 -19 0 -23 -4z"/>
<path d="M619 521 c0 -23 -1 -70 -1 -106 0 -260 1 -265 22 -265 20 0 20 5 18
202 -3 184 -5 203 -20 206 -15 3 -18 -4 -19 -37z"/>
<path d="M950 356 c0 -200 1 -206 20 -206 20 0 20 5 18 202 -3 184 -5 203 -20
206 -17 3 -18 -12 -18 -202z"/>
<path d="M1130 356 c0 -200 1 -206 20 -206 20 0 20 5 18 202 -3 184 -5 203
-20 206 -17 3 -18 -12 -18 -202z"/>
<path d="M1327 554 c-22 -22 10 -204 35 -204 5 0 7 46 6 102 -2 83 -6 103 -18
106 -9 1 -19 0 -23 -4z"/>
<path d="M1467 554 c-4 -4 -7 -27 -7 -51 0 -37 3 -43 21 -43 18 0 20 5 17 47
-3 44 -15 62 -31 47z"/>
<path d="M1764 549 c-4 -7 -9 -99 -12 -206 l-5 -193 27 0 26 0 -2 202 c-2 141
-6 202 -15 205 -6 2 -15 -1 -19 -8z"/>
<path d="M2087 554 c-4 -4 -7 -97 -7 -206 l0 -198 25 0 25 0 -2 202 c-3 174
-5 203 -18 206 -9 1 -19 0 -23 -4z"/>
<path d="M2347 554 c-10 -11 -9 -94 2 -94 11 0 22 83 12 93 -4 4 -10 4 -14 1z"/>
<path d="M465 410 c0 -51 3 -60 18 -60 34 0 45 91 13 112 -24 17 -31 5 -31
-52z"/>
<path d="M1912 445 c9 -20 9 -31 0 -45 -14 -23 -1 -34 29 -25 17 6 20 14 17
48 -3 38 -6 42 -31 45 -26 3 -27 2 -15 -23z"/>
<path d="M213 453 c9 -2 23 -2 30 0 6 3 -1 5 -18 5 -16 0 -22 -2 -12 -5z"/>
<path d="M772 436 c8 -20 8 -32 0 -52 -12 -24 -11 -25 15 -22 26 3 28 6 28 48
0 42 -2 45 -28 48 -26 3 -27 2 -15 -22z"/>
<path d="M1530 305 l0 -155 25 0 25 0 0 155 0 155 -25 0 -25 0 0 -155z"/>
<path d="M2400 305 c0 -148 1 -155 20 -155 19 0 20 7 20 155 0 148 -1 155 -20
155 -19 0 -20 -7 -20 -155z"/>
<path d="M1260 308 c0 -18 12 -61 27 -95 22 -51 32 -63 50 -63 22 0 23 1 9 33
-72 168 -86 188 -86 125z"/>
<path d="M1908 308 c7 -7 12 -26 12 -43 0 -17 -5 -36 -12 -43 -9 -9 -6 -12 13
-12 33 0 49 17 49 55 0 38 -16 55 -49 55 -19 0 -22 -3 -13 -12z"/>
<path d="M760 258 c0 -63 19 -108 46 -108 l23 0 -20 67 c-10 38 -19 71 -19 75
0 5 -7 8 -15 8 -11 0 -15 -11 -15 -42z"/>
<path d="M26 208 c-4 -23 -3 -45 2 -50 5 -5 36 -11 68 -13 55 -4 54 -2 -3 11
-20 4 -23 11 -23 49 0 37 -3 45 -19 45 -14 0 -20 -10 -25 -42z"/>
</g>
</svg>
