<svg width="94" height="97" viewBox="0 0 94 97" fill="none" xmlns="http://www.w3.org/2000/svg">
<path d="M36.7607 12.4215C34.9289 15.7367 33.3381 18.7155 33.2899 19.0518C33.1935 19.3401 41.0992 24.0966 50.7884 29.6218C64.5751 37.4532 68.5279 39.5192 68.8653 38.9907C74.2643 29.9101 75.8551 26.7391 75.373 26.2586C74.6499 25.538 41.051 6.3678 40.5207 6.3678C40.3279 6.41585 38.6407 9.1064 36.7607 12.4215Z" fill="black"/>
<path d="M31.5061 28.7554C29.5297 29.4761 26.7338 31.3979 25.3358 33.0315C24.661 33.7522 18.5871 44.0819 14.0558 52.0575C13.9112 52.3458 27.4569 60.1772 28.1317 60.1772C28.3728 60.1772 30.1081 57.5347 31.9399 54.2676C35.6517 47.9256 37.3871 46.244 40.2312 46.244C41.4846 46.244 44.6661 47.8295 53.0538 52.6821C59.224 56.1894 67.6599 61.042 71.8538 63.4443L79.422 67.8164L80.5307 66.0387C83.7605 60.8979 86.701 55.2765 86.5081 54.748C86.2671 54.0754 44.3769 30.0527 41.1953 28.7074C39.0261 27.7945 34.0128 27.7945 31.5061 28.7554Z" fill="black"/>
<path d="M43.844 56.6223C40.084 57.6312 37.2399 59.7933 34.8779 63.4928C31.9374 68.0571 25.4297 79.588 25.4297 80.2126C25.4297 80.8853 38.8789 88.6206 39.4092 88.2843C39.6502 88.1401 41.1928 85.6418 42.8799 82.711C48.3271 73.198 49.9179 72.6695 58.7394 77.7623C61.7282 79.54 65.5846 81.702 67.2235 82.6149L70.1641 84.2484L73.8758 77.7143C75.9487 74.1109 77.4912 71.084 77.443 71.0359C77.3466 70.9398 71.7066 67.7208 64.9097 63.8291C55.8953 58.6882 51.8461 56.6703 50.0143 56.334C46.9292 55.7575 47.0256 55.7575 43.844 56.6223Z" fill="black"/>
</svg>
