<svg width="252" height="98" viewBox="0 0 252 98" fill="none" xmlns="http://www.w3.org/2000/svg">
<path d="M4.87901 5.80697C4.87901 6.47241 5.05987 6.65389 5.24074 6.16994C5.4216 5.74648 5.36131 5.20204 5.18045 5.02056C4.99959 4.77858 4.81873 5.14154 4.87901 5.80697Z" fill="black"/>
<path d="M13.8672 5.08074C13.8672 5.68568 15.5552 5.86716 16.339 5.38321C16.9418 5.02025 16.761 4.83877 15.5552 4.83877C14.5906 4.83877 13.8672 4.95976 13.8672 5.08074Z" fill="black"/>
<path d="M22.1878 9.73926C21.6452 17.9059 22.1878 36.4775 22.9715 36.9615C23.3333 37.143 24.117 38.4133 24.7199 39.6837L25.7448 42.043L26.1065 39.9257C26.3476 38.7763 26.6491 36.2961 26.8299 34.4207C27.0108 32.6059 27.5534 30.3677 28.0357 29.4603C28.6385 28.2504 28.6988 27.7664 28.096 27.2825C27.5534 26.859 27.1916 27.8874 26.6491 31.517C24.9007 42.6479 24.117 39.7442 24.117 21.717C24.117 10.2837 23.9361 6.65408 23.3333 5.74667C22.6098 4.77877 22.429 5.32322 22.1878 9.73926Z" fill="black"/>
<path d="M31.7117 5.74696C31.8926 6.41239 32.3146 7.92474 32.4954 9.07412L32.9175 11.1914L33.2189 9.19511C33.46 7.68276 33.2792 6.77536 32.4352 5.86795C31.35 4.59758 31.2897 4.59758 31.7117 5.74696Z" fill="black"/>
<path d="M34.9688 5.08067C34.9688 5.20166 35.7525 5.44364 36.7171 5.56463C37.742 5.68561 38.4051 5.62512 38.2243 5.32265C37.9228 4.8387 34.9688 4.59672 34.9688 5.08067Z" fill="black"/>
<path d="M40.6286 5.80713C40.93 6.53306 40.7492 6.71454 39.9655 6.41207C39.0009 6.1096 39.0009 6.17009 40.0257 6.89602C41.2315 7.86392 41.2315 5.86762 40.086 35.0861C39.9655 38.2318 39.7243 39.0787 38.9406 39.1997C38.2774 39.3207 38.0363 39.8047 38.2171 40.2886C38.398 40.7726 38.1568 41.317 37.7348 41.4985C37.0717 41.7405 37.0114 42.1639 37.6143 43.6158C38.2171 45.2491 38.0966 45.6121 37.0717 46.3985C36.1071 47.1849 36.0468 47.3059 36.9511 47.0034C37.8554 46.6405 37.976 47.0034 37.976 49.4837C37.976 51.117 37.6143 52.7503 37.2525 53.1738C36.5894 53.8392 36.7099 53.8392 37.8554 53.2948C39.3023 52.5084 39.4832 52.7503 38.5788 54.5047C38.2171 55.1096 37.4334 55.654 36.8305 55.654C35.6248 55.654 33.5147 52.9318 34.0573 52.0244C34.5396 51.238 33.2133 48.8182 31.5855 47.6084C29.8372 46.2775 29.7166 47.0639 31.3444 49.1812C32.0076 50.0281 32.5501 50.996 32.5501 51.359C32.5501 52.3269 35.4439 57.8923 36.1674 58.3763C37.0717 58.9207 40.2669 57.0454 40.6889 55.5936C40.93 54.8676 40.8095 54.0207 40.4477 53.6577C40.086 53.2948 39.7846 50.6936 39.7846 47.4269C39.7846 42.8294 39.9655 41.801 40.7492 41.4985C41.2918 41.2565 41.8344 41.196 41.8946 41.2565C41.9549 41.3775 42.7387 42.7084 43.5827 44.2812C44.487 45.854 45.5722 47.3664 46.0544 47.6084C46.4765 47.8503 47.1999 49.4837 47.5616 51.238C47.9836 52.9923 48.6468 54.6861 49.1291 55.0491C49.6114 55.4726 51.6009 55.5331 54.9167 55.2306L59.9808 54.7466L60.0411 33.5738C60.1616 13.1874 60.1013 12.3405 58.8956 10.1022C58.2324 8.89231 57.4487 7.86392 57.1473 7.86392C56.8458 7.86392 57.1473 8.58985 57.8104 9.49725C59.2573 11.4936 59.1367 12.8244 57.509 14.3368C56.8458 14.9417 56.6047 15.2442 56.9061 14.9417C57.2678 14.6997 57.8707 14.5182 58.2927 14.5182C59.2573 14.5182 59.3779 18.2084 58.353 19.2368C57.8707 19.7207 57.8707 20.1442 58.353 20.6886C58.775 21.2331 58.8353 22.8059 58.4736 25.4071C58.2324 27.5849 58.2324 29.5812 58.4736 29.9442C58.7147 30.2466 58.8956 32.7874 58.9559 35.5096C58.9559 40.8936 58.6544 41.317 56.1224 39.5627C54.8564 38.6553 54.7358 38.1713 54.8564 34.5417C55.0372 29.5207 54.9769 28.4318 54.4344 28.4923C52.4449 28.7948 52.264 28.3713 52.6257 24.3182C53.1683 17.8454 52.3243 11.554 50.7568 10.2837C50.0937 9.67874 49.6114 9.13429 49.732 9.01331C49.8525 8.89231 48.7674 8.77133 47.3205 8.77133C45.2104 8.77133 44.4267 8.40837 42.9195 6.77503C40.93 4.65775 40.0257 4.29478 40.6286 5.80713ZM43.4018 9.43676C43.4018 10.4652 45.6324 11.675 46.4765 11.1306C46.9588 10.8281 47.0793 12.159 46.8382 15.4861C46.7176 18.1479 46.8382 22.9269 47.1999 26.1936C47.8028 31.8195 47.9233 32.1824 49.5511 33.0294C50.4554 33.5133 51.42 34.6022 51.6009 35.4491C51.842 36.3565 53.0478 37.9898 54.3138 39.1392C57.0267 41.6195 57.509 44.0997 55.3387 44.2207C54.3741 44.2207 54.7358 44.5232 56.5444 45.1886C59.4382 46.217 59.7396 47.2454 57.7501 49.5442C56.9664 50.3911 56.7856 50.754 57.2678 50.3306C58.4736 49.3022 59.0765 49.4232 58.6544 50.6331C57.931 52.7503 57.2076 53.2343 55.9415 52.5689C55.0975 52.1454 54.8564 52.1454 55.0975 52.5084C55.6401 53.4158 51.2994 52.6898 49.6114 51.6615C48.8277 51.1775 48.2248 50.3306 48.2248 49.8466C48.2248 48.9997 48.5865 49.0602 50.5157 50.1491C52.686 51.4195 52.686 51.4195 51.2994 50.2096C50.5157 49.4837 49.5511 48.7578 49.1894 48.5158C48.8277 48.2738 48.1645 47.3664 47.8028 46.3985C47.3808 45.4911 46.6573 44.7652 46.175 44.7652C44.5473 44.7652 42.7387 41.3775 42.8592 38.5948C43.0401 34.7232 42.1961 10.2232 41.8344 8.52935C41.5329 7.25898 41.6535 7.138 42.4372 7.80343C42.9798 8.28738 43.4018 8.95281 43.4018 9.43676ZM51.4803 12.4615C51.6611 13.0059 51.842 16.696 51.842 20.7491C51.842 27.0405 52.0229 28.4318 53.0478 30.1256C53.7712 31.275 54.2535 33.1503 54.2535 34.6627V37.2034L51.9626 34.5417C49.0688 31.0331 48.7071 29.7627 48.2851 19.7812L47.9233 11.4936H49.4908C50.3951 11.4936 51.2994 11.917 51.4803 12.4615ZM59.0765 42.3454C59.0765 43.0108 58.9559 43.5553 58.8353 43.5553C58.7147 43.5553 58.4736 43.0108 58.2927 42.3454C58.1119 41.68 58.2324 41.1355 58.5339 41.1355C58.8353 41.1355 59.0765 41.68 59.0765 42.3454Z" fill="black"/>
<path d="M43.0469 18.7516C43.0469 21.2318 43.1674 22.5627 43.288 21.5948C43.4086 20.6874 43.7703 19.9614 44.132 19.9614C44.5541 19.9614 44.5541 19.7195 44.132 19.175C43.7703 18.8121 43.4086 17.4812 43.288 16.3318C43.1072 15.1824 43.0469 16.2713 43.0469 18.7516Z" fill="black"/>
<path d="M78.375 5.44264C78.375 5.8056 79.0382 6.77351 79.8822 7.55993C81.1482 8.70931 81.4496 9.49573 81.3291 11.613C81.2688 13.0044 81.6908 15.3031 82.1731 16.634C83.1377 18.9933 83.1377 19.0538 83.198 17.2389C83.198 16.2105 82.776 14.7587 82.2334 14.0328C81.7511 13.3068 81.5702 12.7019 81.8114 12.7019C82.0525 12.7019 82.1731 11.4315 82.0525 9.85869C81.9319 7.92289 81.4496 6.71301 80.5453 5.98709C79.0984 4.71672 78.375 4.53523 78.375 5.44264Z" fill="black"/>
<path d="M84.0398 5.26291C84.281 5.50489 85.4264 5.68637 86.6925 5.74686H88.9231L89.0437 13.3086C89.1642 19.479 88.9834 21.2333 88.0791 22.9876C87.3556 24.5 87.1748 25.7703 87.4159 27.4037C87.6571 28.674 87.6571 29.8234 87.4159 29.9444C86.6925 30.3679 87.4159 34.6629 88.3202 35.7518C88.8025 36.2358 89.2245 36.9617 89.2245 37.2641C89.2245 37.5666 90.6714 37.8086 92.4198 37.8086H95.5547L95.6753 35.3888C95.7355 34.058 96.037 32.9086 96.3987 32.7876C96.7604 32.6666 96.9413 32.3037 96.7604 32.0012C96.5796 31.6987 96.7001 30.9728 97.0619 30.3074C97.8456 28.795 97.303 27.4037 95.7355 27.0407C94.8312 26.7987 94.5901 26.3753 94.8915 25.5888C95.2532 24.7419 95.1327 24.6814 94.5901 25.2259C93.6858 26.1333 94.4092 29.037 95.5547 29.037C96.7001 29.037 96.7001 29.3395 95.3135 32.9691C94.2886 35.7518 93.9872 35.9938 91.9375 36.1753C88.5011 36.4777 87.8982 35.5703 88.3805 30.9123C88.5614 28.7345 89.1642 26.1938 89.5863 25.2864C90.4303 23.5925 90.8523 7.80365 90.0686 5.80735C89.8274 5.08143 88.8628 4.83945 86.6322 4.83945C84.9442 4.83945 83.7987 5.02094 84.0398 5.26291Z" fill="black"/>
<path d="M95.25 5.92811C95.25 6.59354 95.9132 7.37996 96.7572 7.74292C98.2041 8.40836 98.2644 8.58984 98.2644 14.8207C98.2644 21.1121 98.2644 21.233 100.133 23.1689L102.002 25.1047L101.761 35.6306C101.58 45.6726 101.64 46.1565 102.786 46.58C107.91 48.3948 108.031 48.3948 109.719 46.9429C110.623 46.217 113.216 44.5232 115.386 43.1923C119.606 40.7121 120.751 38.9577 119.425 36.8405C119.003 36.1145 118.702 31.517 118.641 23.7738C118.581 17.18 118.461 13.2479 118.34 15.0627C118.159 17.2405 117.737 18.6318 117.074 19.1763C116.109 19.9022 116.109 19.9022 117.134 19.9627C118.099 19.9627 118.159 20.6281 118.039 27.7664C117.978 33.7553 118.159 35.8121 118.762 36.5985C119.485 37.5059 119.485 37.7479 118.461 38.4738C117.858 38.9577 116.833 39.3207 116.23 39.3207C115.627 39.3207 115.145 39.5627 115.145 39.8047C115.145 40.4701 107.609 45.975 106.765 45.975C106.403 45.975 106.102 45.6726 106.102 45.3096C106.102 44.9466 105.74 44.7651 105.258 44.9466C104.233 45.3701 101.761 43.6763 102.183 42.8898C102.424 42.5874 102.545 37.9293 102.545 32.6059V22.8664L100.616 21.233L98.6864 19.5997L99.0481 13.6108C99.2289 10.1022 99.651 7.50095 100.073 7.25898C100.495 7.017 99.8921 6.65404 98.6261 6.41206C97.4203 6.17009 96.4557 5.74663 96.4557 5.44416C96.4557 5.0812 96.2146 4.83922 95.8529 4.83922C95.5514 4.83922 95.25 5.32317 95.25 5.92811Z" fill="black"/>
<path d="M103.75 5.0799C103.871 5.20089 105.077 5.44286 106.403 5.62435C108.031 5.86632 108.513 5.80583 107.91 5.44286C107.066 4.89842 103.147 4.53546 103.75 5.0799Z" fill="black"/>
<path d="M123.586 5.56398C123.586 6.10843 123.827 7.19731 124.129 7.98373C124.43 8.77015 124.852 10.1615 125.093 11.0689C125.274 11.9763 125.636 12.6418 125.937 12.4603C126.48 12.0973 125.455 7.56028 124.37 5.74546C123.707 4.71707 123.646 4.71707 123.586 5.56398Z" fill="black"/>
<path d="M126.602 5.08154C126.602 5.62598 128.953 5.86796 129.676 5.384C130.279 5.02104 129.917 4.83956 128.591 4.83956C127.506 4.83956 126.602 4.96055 126.602 5.08154Z" fill="black"/>
<path d="M133.713 5.26277C134.075 5.38376 134.798 5.38376 135.22 5.26277C135.582 5.08129 135.28 4.96031 134.436 4.96031C133.592 4.96031 133.291 5.08129 133.713 5.26277Z" fill="black"/>
<path d="M142.273 5.74672C142.273 6.29117 142.635 7.31956 143.117 8.04549C144.022 9.37635 144.142 13.006 144.142 38.4134C144.142 44.0393 144.383 48.9393 144.685 49.2418C144.986 49.5443 145.65 49.3628 146.192 48.7578C146.735 48.2134 147.639 47.7294 148.182 47.7294C148.724 47.6689 149.628 47.6084 150.111 47.548C150.834 47.4875 151.015 45.9751 151.196 38.8368C151.317 31.2751 151.497 30.1862 152.281 30.4887C152.824 30.6702 153.427 30.8517 153.607 30.8517C153.849 30.8517 154.029 35.0257 154.029 40.0467V49.3023L157.345 51.2381C159.154 52.327 160.782 53.2344 161.023 53.2344C161.565 53.2344 162.771 49.7862 162.409 49.4233C161.686 48.6973 162.289 19.7813 163.193 9.98129C163.434 6.89611 163.314 6.17018 162.409 5.44426C161.445 4.59734 161.384 4.65784 161.927 5.56524C162.228 6.10969 162.349 7.985 162.289 9.67882C162.108 12.2196 161.927 12.643 161.204 12.0381C160.54 11.4936 160.36 11.5541 160.36 12.2196C160.36 12.7035 160.661 13.3689 161.023 13.7319C161.987 14.6998 162.53 25.7702 161.626 26.8591C161.143 27.464 160.962 28.6134 161.204 30.0652C161.445 31.3356 161.324 33.2109 161.083 34.1788C160.721 35.3282 160.782 37.506 161.143 39.8047C161.565 42.648 161.565 43.9788 160.962 45.0072C160.42 46.0961 160.42 46.7615 160.902 47.6689C162.048 49.8467 161.626 50.0887 158.732 48.8788C157.828 48.5159 156.742 48.2739 156.381 48.3344C155.235 48.4554 155.115 47.306 155.175 38.0504L155.235 29.2183L152.703 28.0085C150.231 26.8591 150.231 26.8591 150.472 28.1294C150.593 28.7949 150.533 32.6665 150.292 36.7801C149.99 42.5875 149.749 44.1603 149.146 43.9183C148.664 43.7368 148.362 43.8578 148.483 44.2208C148.664 45.0677 146.674 46.3986 146.132 45.7936C145.65 45.3702 145.469 43.5554 144.866 34.6628C144.625 31.0936 144.745 29.3998 145.288 28.7344C145.71 28.2504 145.891 27.222 145.65 26.3146C145.348 25.1047 145.469 24.8023 146.313 24.8023C147.277 24.7418 147.338 24.6813 146.433 24.0159C145.65 23.4109 145.408 21.8986 145.348 15.5467C145.288 9.19487 145.107 7.56154 144.263 6.35166C142.997 4.65784 142.273 4.41586 142.273 5.74672Z" fill="black"/>
<path d="M146.678 5.26277C147.22 5.38376 148.064 5.38376 148.486 5.26277C148.848 5.08129 148.426 4.96031 147.401 4.96031C146.436 4.96031 146.075 5.08129 146.678 5.26277Z" fill="black"/>
<path d="M149.991 5.62514C150.413 6.10909 150.655 9.43625 150.594 14.3967C150.534 18.8128 150.775 22.6844 151.077 22.9869C151.378 23.2893 151.559 19.9622 151.438 14.2153C151.257 6.16958 151.137 4.83872 150.293 4.83872C149.569 4.83872 149.509 5.0202 149.991 5.62514Z" fill="black"/>
<path d="M155.361 11.0084C154.879 20.9294 155 23.4701 155.964 23.8331C156.386 24.0146 156.688 22.9862 156.869 20.8084C156.989 18.8121 156.808 17.4812 156.386 17.2997C155.904 17.1183 155.844 16.0899 156.266 13.7911C156.567 12.0368 156.628 9.43554 156.447 8.04418C156.145 5.98739 156.266 5.50344 157.17 5.26147C158.074 5.01949 158.014 4.959 156.929 4.8985C155.663 4.83801 155.603 5.14048 155.361 11.0084Z" fill="black"/>
<path d="M171.818 5.32182C171.818 5.56379 170.612 7.07614 169.225 8.64898C167.778 10.2218 166.693 11.4922 166.814 11.4922C166.934 11.4922 168.261 10.5243 169.708 9.31441C172.179 7.19713 173.566 4.83787 172.36 4.83787C172.059 4.83787 171.818 5.01935 171.818 5.32182Z" fill="black"/>
<path d="M177.244 5.80732C177.244 6.23078 176.882 6.71473 176.521 6.83572C176.099 7.0172 176.28 7.19868 177.003 7.19868C177.666 7.25917 178.51 6.9567 178.932 6.53325C179.415 6.0493 179.837 6.0493 180.5 6.65424C181.042 7.07769 181.283 7.62214 181.103 7.92461C180.922 8.22707 181.103 8.46905 181.464 8.46905C181.947 8.46905 182.067 11.7357 181.886 19.7814C181.705 28.9765 181.826 31.5777 182.549 33.5135C183.393 35.5703 183.333 35.9937 182.489 37.4456C181.947 38.353 181.283 40.2888 180.922 41.6802C180.379 44.1604 180.379 44.2209 181.525 43.1925C182.61 42.2246 182.67 42.2246 182.73 43.3135C182.73 43.9184 182.851 45.9147 182.971 47.6086C183.092 49.3629 183.092 50.8147 182.911 50.8147C182.791 50.8147 182.007 49.5444 181.223 47.911C179.716 45.1283 179.716 45.0678 179.656 46.9431C179.656 49.1814 178.269 50.6937 177.063 49.7258C176.521 49.2419 176.34 46.6407 176.4 39.6234C176.46 34.4209 176.34 29.5209 176.099 28.7345L175.737 27.3431L173.024 28.6135C170.371 29.8839 170.311 30.0049 170.492 32.4246C170.673 34.8444 170.613 35.0258 168.563 35.6913C167.357 36.0542 166.151 36.2357 165.91 36.0542C165.609 35.8728 165.368 30.5493 165.428 24.1974C165.488 16.3332 165.307 12.9456 164.885 13.369C164.222 14.0345 163.74 40.7728 164.403 42.3456C164.584 42.8295 164.704 45.3098 164.704 47.8505L164.644 52.5086L167.176 52.2061C168.563 52.0246 170.552 51.7221 171.517 51.4802L173.326 51.0567L173.506 42.5271C173.627 34.8444 173.567 33.9974 172.602 33.6345C171.758 33.2715 171.637 33.332 172.301 33.937C172.723 34.4209 173.024 36.3567 173.024 38.716C173.024 41.9221 172.783 42.9505 171.879 43.7974C170.793 44.8258 170.673 44.7653 169.105 42.7086C168.201 41.4987 167.056 40.5308 166.634 40.5308C164.704 40.5308 165.85 38.111 168.503 36.5382C170.492 35.3888 171.215 34.6024 171.215 33.574C171.215 32.4246 173.326 30.2468 174.531 30.2468C174.712 30.2468 174.833 35.1468 174.833 41.0752C174.833 53.053 174.772 52.811 178.812 52.569C179.776 52.5086 181.464 52.6295 182.61 52.8715L184.66 53.3555L184.298 50.1493C184.057 48.3345 183.876 45.5518 183.876 43.9184C183.876 41.4382 183.755 41.0752 182.851 41.3777C181.947 41.7407 181.947 41.6802 182.911 40.5913C183.815 39.6234 183.936 38.837 183.574 36.4777C183.333 34.9049 183.032 27.7666 182.911 20.6283L182.61 7.68263L180.982 6.41226C179.173 4.96041 177.244 4.65794 177.244 5.80732ZM167.9 44.1604C168.442 44.7653 169.889 45.6123 170.974 45.9752C172.301 46.4592 173.024 47.0641 173.024 47.79C173.024 49.1209 171.879 49.6049 168.804 49.6049C166.332 49.6049 165.79 48.8184 165.79 44.8863C165.79 42.6481 166.332 42.4666 167.9 44.1604Z" fill="black"/>
<path d="M183.273 5.92706C183.273 6.53199 183.816 7.62088 184.479 8.34681C185.685 9.61718 185.745 10.4036 185.745 30.3666C185.745 41.7999 185.866 51.5999 186.047 52.1443C186.288 53.0517 187.072 53.2332 190.508 53.2332C194.607 53.2332 196.115 52.5678 194.788 51.2369C194.366 50.8135 194.125 47.8493 194.125 43.4332C194.125 37.8073 193.884 35.932 193.161 34.7221C192.618 33.9357 192.316 33.0888 192.558 32.8468C192.739 32.6653 192.919 32.7863 192.919 33.1493C192.919 33.5122 193.763 34.2987 194.728 34.7826L196.597 35.7505L196.476 42.9493C196.416 49.4826 196.537 50.3295 197.742 52.0234C198.948 53.7172 199.31 53.8987 201.842 53.7172C204.253 53.5357 204.736 53.2937 205.218 51.9024C205.64 50.753 205.58 50.0271 204.977 49.3011C203.892 48.0308 203.771 47.0629 203.289 38.9567C203.048 35.2061 202.565 31.8789 202.143 31.3345C201.54 30.669 201.661 30.1246 202.505 28.6727C203.168 27.5234 203.711 25.1641 203.892 21.7764C204.133 17.9653 204.072 17.1789 203.65 18.7517C203.349 19.9011 203.108 22.0184 203.168 23.4703C203.228 25.2246 202.927 26.132 202.324 26.374C201.842 26.5555 201.601 27.0999 201.721 27.5234C201.902 27.9468 201.299 28.6122 200.214 29.0962L198.405 29.8826L200.154 30.6085C202.083 31.4555 202.505 33.1493 202.505 40.6505C202.445 43.1913 202.686 45.6715 202.927 46.095C203.168 46.5184 202.626 46.2159 201.661 45.369C199.551 43.4332 200.395 45.1271 203.048 48.0913C204.193 49.3011 204.917 50.6925 204.736 51.1159C204.253 52.4468 200.817 51.5394 199.129 49.6641C197.742 48.0308 197.26 44.5221 198.345 43.8567C198.647 43.6752 198.767 43.1913 198.647 42.7678C198.526 42.3443 198.285 40.59 198.044 38.7752C197.742 35.811 197.803 35.569 198.767 35.932C199.551 36.2345 199.491 35.932 198.345 34.6616C197.501 33.7542 196.657 32.9073 196.356 32.7863C196.115 32.6653 195.572 32.2419 195.15 31.8184C194.788 31.395 194.005 30.911 193.402 30.7295C191.894 30.1246 191.472 32.8468 192.678 35.2061C193.462 36.7184 193.583 37.9283 193.221 41.074C192.98 43.2517 192.799 45.3085 192.859 45.6715C192.919 45.974 193.04 47.4258 193.1 48.8777L193.281 51.4184L191.111 51.0555C188.518 50.5715 187.494 49.3616 187.494 46.6999C187.494 44.6431 187.494 44.6431 189.784 45.0061L192.015 45.4295L189.905 44.3406C188.76 43.7357 187.855 42.9493 187.855 42.6468C187.916 42.2838 188.096 41.195 188.338 40.2271C188.579 39.0172 188.518 38.7147 188.157 39.2592C187.795 39.8036 187.494 38.4727 187.192 35.1456C186.891 31.4555 186.951 30.0036 187.554 29.2777C188.036 28.7332 188.096 28.1888 187.735 27.9468C187.433 27.7048 187.072 24.5592 186.951 20.9295C186.77 15.0011 186.891 14.3962 187.795 14.6987C188.699 15.0616 188.699 15.0011 187.795 13.7913C186.77 12.2789 186.529 8.4678 187.494 8.4678C187.855 8.4678 187.192 7.62088 186.107 6.65298C183.695 4.5357 183.273 4.41471 183.273 5.92706Z" fill="black"/>
<path d="M193.096 5.26152C194.844 5.443 195.326 5.74547 195.085 6.4109C194.844 7.07633 195.326 7.25781 197.135 7.25781C198.461 7.25781 199.546 6.95534 199.546 6.65287C199.546 6.28991 198.763 6.04794 197.738 6.04794C196.773 6.04794 195.929 5.74547 195.929 5.443C195.929 5.08003 194.784 4.89855 193.397 4.95905L190.805 5.01954L193.096 5.26152Z" fill="black"/>
<path d="M203.531 5.80711C203.29 6.35156 203.531 7.25897 204.074 7.86391C204.797 8.65033 204.978 10.4651 204.978 15.9701C204.978 22.3219 205.098 23.2898 206.244 24.6812C207.45 26.1935 207.51 26.98 207.389 35.6911C207.329 40.833 207.389 47.3664 207.57 50.2096C207.872 55.1096 207.932 55.3516 209.379 55.533C210.464 55.654 211.248 55.2306 212.212 53.8997C212.936 52.8713 213.84 52.0244 214.262 52.0244C215.649 52.0244 218.542 50.3306 220.11 48.5763C224.089 44.2812 227.103 36.3565 225.475 34.7232C225.114 34.3602 224.812 29.1577 224.752 22.9269C224.692 13.4293 224.571 12.28 224.089 15.3046C223.607 18.0874 223.245 18.7528 222.521 18.4503C221.919 18.2084 222.099 18.6318 223.004 19.5392C224.27 20.9306 224.33 21.475 224.209 27.4034C224.089 31.638 224.209 33.9972 224.692 34.6022C225.897 35.9935 224.873 39.9861 222.582 42.9503C221.436 44.4627 220.291 45.6121 220.05 45.5516C219.808 45.4911 219.386 46.096 219.206 46.8824C218.723 48.7577 217.457 48.8182 216.01 47.0034C214.262 44.8861 213.237 45.0071 213.719 47.2454C213.961 48.2738 213.9 49.3022 213.599 49.5442C213.297 49.7256 212.634 50.633 212.031 51.5404C210.163 54.5046 209.258 53.7182 209.62 49.6046C209.861 47.4269 209.68 45.3096 209.258 44.2812C208.535 42.5269 208.414 41.1355 208.716 35.0861C209.077 27.4639 208.655 23.2293 207.389 21.7775C206.123 20.2651 205.822 18.4503 206.786 17.8454C207.148 17.6034 207.148 16.8775 206.726 15.8491C206.364 15.0022 206.184 12.5219 206.244 10.4651C206.304 8.10588 206.123 6.35156 205.581 5.80711C204.616 4.59724 204.013 4.59724 203.531 5.80711Z" fill="black"/>
<path d="M210.398 5.0801C210.398 5.62455 212.207 5.92702 212.508 5.44306C212.75 5.0801 212.328 4.83813 211.664 4.83813C210.941 4.83813 210.398 4.95911 210.398 5.0801Z" fill="black"/>
<path d="M224.869 5.74657C224.266 6.53299 224.266 6.83546 225.05 7.74287C225.894 8.65028 226.376 13.0058 226.618 22.2009C226.678 23.2293 227.522 24.0157 230.235 25.3466C233.129 26.8589 233.852 27.5244 234.214 29.1577C234.455 30.2466 234.575 31.396 234.515 31.7589C234.395 32.0614 234.334 33.3923 234.274 34.6021C234.214 35.8725 234.033 36.9009 233.792 36.9009C233.49 36.9009 233.309 37.4453 233.309 38.1713C233.309 39.5021 235.781 44.1602 236.505 44.1602C237.047 44.1602 236.565 26.3145 236.022 25.4071C235.781 25.0441 235.359 24.9231 235.058 25.1046C234.756 25.3466 234.515 25.1651 234.515 24.8626C234.515 24.4997 234.093 24.1972 233.611 24.1972C233.129 24.1972 232.224 23.6527 231.682 22.9873C231.079 22.3219 230.175 21.7774 229.632 21.7774C228.788 21.7774 228.547 21.0515 228.366 18.2688C228.245 16.3935 228.366 14.6392 228.667 14.4577C228.969 14.2157 228.908 13.8527 228.547 13.6713C228.185 13.4293 227.884 11.796 227.884 10.0416C227.884 7.68238 227.582 6.59349 226.738 5.80707C225.774 4.89966 225.593 4.89966 224.869 5.74657Z" fill="black"/>
<path d="M228.667 5.26277C229.21 5.38376 230.174 5.38376 230.777 5.26277C231.32 5.08129 230.838 4.96031 229.692 4.96031C228.547 4.96031 228.064 5.08129 228.667 5.26277Z" fill="black"/>
<path d="M238.734 5.14189C239.216 5.26287 240.904 5.50485 242.472 5.74682C243.979 5.92831 245.366 6.41226 245.547 6.83571C245.727 7.38016 244.763 7.50114 241.688 7.25917C238.192 7.01719 237.468 7.13818 236.805 8.04559C236.202 8.8925 235.539 9.07398 234.092 8.8925C232.223 8.59003 232.223 8.59003 231.982 11.6147C231.922 13.2481 231.982 14.7604 232.283 14.9419C232.525 15.0629 232.705 14.3369 232.705 13.369C232.705 11.9777 233.007 11.4937 233.791 11.4937C234.393 11.4937 235.418 11.0703 236.081 10.5863C237.649 9.37645 243.195 9.37645 244.16 10.5863C244.582 11.1308 245.366 11.3728 245.848 11.1913C246.632 10.8888 246.632 11.0098 245.908 11.8567C245.185 12.7641 245.004 12.7036 244.1 11.5542C243.135 10.4048 243.075 10.4048 242.17 11.3728C241.146 12.4616 241.326 13.0666 243.075 14.4579C244.039 15.1839 244.341 15.0629 245.908 13.369C247.536 11.6752 247.596 11.2518 247.054 9.31596C246.632 7.80361 246.692 6.89621 247.114 6.47275C248.079 5.50485 247.958 4.83942 246.813 4.83942C246.27 4.83942 246.089 5.14189 246.33 5.56534C246.632 6.04929 246.451 6.10979 245.607 5.80732C245.004 5.56534 242.954 5.26287 241.146 5.14189C239.337 4.9604 238.252 4.9604 238.734 5.14189Z" fill="black"/>
<path d="M60.2886 6.59206C60.5901 7.25749 61.1929 7.98342 61.4944 8.1649C61.8561 8.34638 62.0973 9.31428 62.0973 10.2822C62.0973 11.2501 62.3384 12.1575 62.5796 12.339C63.6044 12.9439 63.0016 7.62046 61.9767 6.53157C60.4695 5.01922 59.4446 5.07972 60.2886 6.59206Z" fill="black"/>
<path d="M71.1406 6.04936C71.1406 6.41232 72.1655 6.6543 73.3712 6.6543C75.9636 6.6543 75.843 6.35183 73.1301 5.86788C71.9846 5.6259 71.1406 5.74689 71.1406 6.04936Z" fill="black"/>
<path d="M215.702 6.47197C216.607 7.25839 216.848 7.98432 216.667 9.1337C216.305 10.7065 216.245 10.7065 214.738 9.92012C213.11 9.07321 213.11 9.07321 212.628 11.8559C212.386 13.3683 212.386 16.5744 212.688 18.9337L213.23 23.2893L213.351 17.5423C213.411 12.5214 213.532 11.9164 214.316 12.7028C214.979 13.4288 215.22 15.6065 215.341 21.8979C215.521 30.0646 215.521 30.1856 217.27 32.0004L218.958 33.8152L217.692 35.4485C217.029 36.3559 216.426 37.4448 216.426 37.8683C216.426 38.3522 215.883 38.7152 215.28 38.7152C214.255 38.7152 214.075 38.1102 213.713 33.3917C213.23 26.6769 212.989 25.5275 212.808 29.3386C212.748 30.972 212.748 32.6053 212.869 32.9683C213.652 35.5695 213.11 37.9288 211.241 40.167C209.372 42.3448 208.769 43.5547 209.432 43.5547C209.553 43.5547 210.216 42.6473 210.879 41.4979C212.025 39.6226 212.326 39.4411 214.738 39.5016C217.27 39.6226 217.33 39.5621 218.114 37.0214C218.596 35.63 219.199 34.6621 219.5 34.8436C220.586 35.509 219.983 31.3349 218.777 29.7016C217.812 28.3707 217.511 26.8584 217.33 22.6843C217.209 19.7201 217.33 16.9374 217.631 16.393C217.933 15.788 217.873 14.2152 217.451 12.5214C216.908 10.0411 216.968 9.55716 217.933 8.46827C218.536 7.80284 219.259 7.43987 219.621 7.68185C219.983 7.92382 220.043 7.74234 219.802 7.31889C219.5 6.89543 219.018 6.71395 218.596 6.83493C218.234 7.01641 217.39 6.77444 216.727 6.29049C215.099 5.08061 214.255 5.2621 215.702 6.47197Z" fill="black"/>
<path d="M7.29591 7.07668C5.84902 8.04458 5.66815 9.61742 6.81361 10.8273C7.41648 11.4927 7.35619 11.6137 6.45189 11.3112C5.60787 11.0088 5.48729 11.1298 5.96959 12.0372C6.63275 13.247 7.89878 13.9125 9.70739 13.9125C11.0337 13.9125 11.2749 12.1582 10.1897 10.1619C9.52653 8.95199 9.6471 8.89149 11.516 9.37544C12.6615 9.61742 13.9878 9.7989 14.5304 9.7989C15.1935 9.7989 15.6155 10.4038 15.7964 11.5532C15.9772 12.5211 15.8567 13.3075 15.5552 13.3075C15.3141 13.3075 15.0729 13.61 15.0729 13.973C15.0729 14.4569 15.3141 14.4569 15.917 13.973C16.5198 13.489 16.6404 12.7026 16.2787 11.1903C15.9772 9.98038 16.0375 9.07297 16.339 9.07297C16.6404 9.07297 16.5801 8.58902 16.2184 7.98409C15.7361 7.25816 15.0127 6.95569 14.1686 7.13717C13.4452 7.25816 11.8777 7.07668 10.672 6.77421C9.04423 6.29026 8.2605 6.35075 7.29591 7.07668ZM9.22509 11.0088C8.7428 11.9162 7.95906 11.4927 8.13993 10.4038C8.2605 9.85939 8.38107 9.07297 8.44136 8.7705C8.50165 8.40754 8.7428 8.71001 8.98394 9.37544C9.28538 10.0409 9.40595 10.7668 9.22509 11.0088Z" fill="black"/>
<path d="M54.1374 6.77492C54.4388 7.07739 55.102 7.25887 55.524 7.13788C56.0063 6.9564 55.7049 6.71443 54.9211 6.47245C53.8962 6.23048 53.6551 6.29097 54.1374 6.77492Z" fill="black"/>
<path d="M110.562 7.19817C110.562 7.98459 111.045 8.22656 112.552 8.22656C114.361 8.16607 114.481 7.31916 112.673 7.07718C112.19 6.95619 111.527 6.77471 111.226 6.53274C110.864 6.29076 110.562 6.59323 110.562 7.19817Z" fill="black"/>
<path d="M76.8051 7.31856C76.564 7.74201 76.6242 7.863 77.0463 7.62103C77.3477 7.43955 77.83 7.62103 77.9506 7.98399C78.1917 8.52843 78.3123 8.58893 78.3123 8.04448C78.3726 7.01609 77.3477 6.53214 76.8051 7.31856Z" fill="black"/>
<path d="M140.466 8.16625C140.466 9.07366 140.105 9.6786 139.562 9.6786C138.839 9.6786 138.899 10.0416 139.864 11.7959C141.069 13.9132 141.069 13.9132 139.864 13.9132C139.2 13.9132 138.658 13.4897 138.658 13.0058C138.658 12.5218 138.417 12.0984 138.055 12.0984C137.753 12.0984 137.331 11.4329 137.09 10.586C136.789 9.43663 136.307 9.07366 135.041 9.07366C134.076 9.07366 132.991 8.95267 132.508 8.77119C131.122 8.22675 131.845 17.9663 133.292 19.5391C133.895 20.2045 134.438 21.0514 134.438 21.4144C134.438 21.7169 134.619 21.8379 134.799 21.5959C134.98 21.4144 134.619 20.4465 133.895 19.4786C132.991 18.2082 132.629 16.7564 132.629 14.5786C132.629 11.5539 132.689 11.4934 134.377 11.4934C135.583 11.4934 136.307 11.8564 136.487 12.5823C137.09 14.4576 139.261 16.3329 140.768 16.3329C142.456 16.3329 142.697 15.3045 141.491 13.6712C140.949 12.9453 140.768 11.4934 140.949 9.61811C141.069 7.98477 141.069 6.65391 140.828 6.65391C140.647 6.65391 140.466 7.31934 140.466 8.16625Z" fill="black"/>
<path d="M202.024 7.56174C202.506 8.22717 202.989 9.73952 203.109 10.9494C203.23 12.8852 203.049 13.2482 201.542 13.7321L199.914 14.2766L201.723 14.942L203.592 15.6074L203.712 12.1593C203.833 9.19508 203.652 8.52964 202.446 7.50125C201.06 6.35187 201.06 6.35187 202.024 7.56174Z" fill="black"/>
<path d="M4.21875 8.16677C4.21875 8.46923 4.52019 9.19516 4.82162 9.67911C5.12306 10.1631 5.42449 10.284 5.42449 9.98158C5.42449 9.61862 5.12306 8.95319 4.82162 8.46923C4.52019 7.98528 4.21875 7.8038 4.21875 8.16677Z" fill="black"/>
<path d="M221.731 9.91988C222.274 11.1298 222.937 12.0977 223.178 12.0977C223.841 12.0977 222.213 8.28655 221.43 8.04457C221.008 7.86309 221.128 8.64951 221.731 9.91988Z" fill="black"/>
<path d="M116.113 10.1018C117.017 12.0981 117.56 12.582 117.56 11.5536C117.56 11.2512 117.017 10.4043 116.354 9.61784L115.148 8.16599L116.113 10.1018Z" fill="black"/>
<path d="M68.6061 15.2435C68.5458 18.6916 68.4855 22.7447 68.4253 24.3175C68.365 26.3138 68.5458 26.9188 69.0281 26.3138C69.3296 25.8904 70.053 25.4064 70.5353 25.2249C71.1985 24.983 71.1382 24.862 70.2942 24.862C69.4501 24.8015 69.2693 24.499 69.5707 23.4101C69.7516 22.6842 69.9324 19.6595 69.9324 16.7558C69.9324 11.5533 69.9927 11.4323 71.319 11.6138C72.5851 11.7953 72.6453 12.0978 72.8262 18.3891C72.9468 22.3212 72.7659 25.1644 72.4042 25.4064C72.0425 25.5879 72.2233 26.0114 72.8262 26.3743C73.7908 26.9793 73.8511 26.4348 73.6702 18.8126C73.5497 14.2755 73.2482 10.4039 73.0674 10.2225C72.8262 9.98049 71.741 9.61753 70.7162 9.37555L68.7267 8.95209L68.6061 15.2435Z" fill="black"/>
<path d="M106.707 10.0416C106.707 10.4651 106.406 10.8885 106.044 10.8885C105.743 10.8885 105.622 11.191 105.803 11.554C106.044 11.9169 106.346 15.3046 106.527 19.1762C106.707 24.8021 106.647 26.012 105.984 25.649C105.381 25.2861 105.381 25.4071 106.044 26.1935C106.647 26.9194 106.828 29.4602 106.888 35.691C106.888 40.6515 107.129 44.1602 107.491 44.1602C107.793 44.1602 109.059 43.2527 110.264 42.1639C111.952 40.6515 112.374 39.8046 112.254 38.5342C112.073 37.2639 112.314 36.9009 113.279 36.9009C114.123 36.9009 114.545 36.4169 114.665 35.2071C114.786 33.9972 114.364 33.1503 112.857 31.8194L110.867 30.0651L110.988 22.9268C111.048 17.9663 111.289 15.7281 111.772 15.7281C112.194 15.7281 112.133 15.4861 111.651 15.1836C111.169 14.8811 110.927 13.9132 111.048 12.7034C111.229 10.8885 111.048 10.6466 108.998 9.92065C107.009 9.25521 106.707 9.25521 106.707 10.0416ZM109.601 12.8244C110.083 13.3083 110.325 16.454 110.325 22.9873V32.4244L112.133 34.1787C113.821 35.812 113.882 35.9935 112.857 36.3565C112.133 36.6589 111.53 37.6268 111.289 38.8972C111.108 39.9861 110.264 41.5589 109.42 42.3453L107.973 43.7367L107.793 28.4923C107.672 20.1441 107.732 13.0058 107.793 12.7034C108.094 11.9169 108.697 11.9169 109.601 12.8244Z" fill="black"/>
<path d="M192.68 11.6134C192.499 13.0652 192.559 15.5455 192.861 17.2393L193.403 20.264L193.464 15.848C193.524 11.4319 193.705 11.0689 195.332 12.0973C196.056 12.5208 196.237 14.0936 196.237 19.4171C196.237 24.1356 196.478 26.2529 196.96 26.4344C197.503 26.6159 197.744 24.5591 197.865 18.8121L198.045 10.8875L196.116 9.98005C193.403 8.64919 193.102 8.83067 192.68 11.6134Z" fill="black"/>
<path d="M175.012 10.5853C172.118 11.8556 171.093 14.7593 171.575 20.6272C171.816 23.289 172.118 25.4062 172.238 25.4062C172.419 25.4062 173.324 24.9223 174.288 24.3779C175.916 23.41 176.036 23.047 176.157 19.3569C176.217 17.1791 176.338 14.4569 176.338 13.247C176.398 12.0976 176.639 10.7667 176.881 10.4038C177.423 9.49637 177.423 9.49637 175.012 10.5853ZM174.831 17.8445C174.831 22.3211 174.71 23.047 173.625 23.5914C172.48 24.1964 172.419 24.0754 172.419 19.4174C172.419 15.8482 172.66 14.3359 173.384 13.6704C173.866 13.126 174.409 12.7025 174.59 12.7025C174.71 12.7025 174.831 15.0013 174.831 17.8445Z" fill="black"/>
<path d="M78.9745 11.6143C78.9745 12.5217 78.7334 13.4291 78.3717 13.6105C78.0702 13.792 77.7688 14.276 77.7688 14.5785C77.7688 14.9414 78.0099 15.0624 78.3114 14.8204C78.6731 14.6389 78.9745 16.9377 79.0951 20.3859C79.276 26.2538 79.276 26.3143 77.5276 27.8266L75.8396 29.3994L77.7688 31.4562C79.6377 33.513 79.698 33.6945 79.4568 37.9291C79.276 40.3488 79.3965 42.5266 79.698 42.8291C80.2406 43.3735 77.7688 50.8143 76.9851 50.8143C76.7439 50.8143 76.2616 50.0883 75.8999 49.1809C75.4779 48.0315 75.4779 47.4871 76.0808 47.1241C76.5631 46.8217 76.3822 46.4587 75.297 45.9748C73.9104 45.3698 73.8501 45.0673 73.9707 40.1673C74.031 37.3241 74.2119 34.8439 74.3927 34.6624C74.9353 34.118 73.3076 32.0612 72.343 32.0612C71.8004 32.0612 70.8358 31.6377 70.1726 31.1538C69.5698 30.6698 68.8463 30.2464 68.6654 30.2464C67.942 30.2464 67.6406 32.6056 68.3037 32.8476C68.7257 32.9686 68.9669 35.5093 69.0272 39.6834C69.0272 43.555 69.3889 46.8217 69.8109 47.6081C70.8961 49.5439 70.7152 50.0278 68.8463 50.6933C67.5803 51.1167 66.7363 51.0562 65.5305 50.3908C63.541 49.3624 63.541 48.818 65.2291 46.3982C66.254 44.9464 66.3142 44.6439 65.5908 44.9464C63.7822 45.6118 63.1793 43.8575 63.3602 38.292C63.541 31.5772 62.8176 24.9229 61.6721 22.9871L60.8281 21.4748L61.2501 22.9871C61.4913 23.834 61.853 28.734 62.0942 33.876C62.275 39.018 62.8176 43.8575 63.1793 44.5834C63.7219 45.5513 63.7219 45.9143 63.1793 46.0957C62.6367 46.2772 62.6367 47.1241 63.2396 49.7859C63.6616 51.6612 64.2042 53.355 64.3851 53.476C64.8674 53.7785 71.6798 52.2661 72.2224 51.7822C72.4032 51.6007 72.1018 50.5118 71.5592 49.4834C70.8358 48.0315 70.5343 45.5513 70.4138 40.4698L70.2329 33.4525L71.7401 33.876C73.187 34.2389 73.2473 34.4204 73.3076 40.2883C73.3076 43.555 73.6693 47.2451 74.0913 48.455C74.7544 50.5118 77.4674 53.718 78.0099 53.1735C78.1908 53.0525 79.0951 51.1772 80.12 49.0599C81.4463 46.2167 81.808 44.8859 81.386 44.0994C81.0243 43.4945 80.7832 41.1957 80.7832 38.897C80.7832 35.8118 80.4817 34.2994 79.5171 32.7266L78.3114 30.7303L79.5774 29.3389C80.3009 28.5525 80.7229 27.6451 80.542 27.3426C80.3611 27.0402 80.1803 23.3501 80.12 19.2365C80.12 15.1229 79.8186 11.3118 79.5171 10.8278C79.1554 10.2229 78.9745 10.4044 78.9745 11.6143Z" fill="black"/>
<path d="M61.9134 17.1196C62.2751 22.7455 62.5765 23.2294 62.6368 18.3294C62.6368 15.9702 62.456 13.8529 62.2148 13.6714C61.9134 13.4899 61.7928 15.0628 61.9134 17.1196Z" fill="black"/>
<path d="M124.789 14.094C124.789 14.5175 125.513 14.9409 126.417 15.0014C127.984 15.1224 127.984 15.0619 126.839 14.215C125.392 13.1261 124.789 13.0656 124.789 14.094Z" fill="black"/>
<path d="M125.279 20.0226L125.52 23.5917L129.619 27.1004C132.393 29.5201 133.538 30.9115 133.237 31.4559C132.875 32.0609 132.694 31.9399 132.513 31.093C132.393 30.488 132.272 31.3954 132.332 33.2103C132.332 35.2671 132.634 36.5979 133.116 36.7794C133.478 36.9004 133.84 37.4448 133.9 37.9893C133.96 38.5942 134.141 38.4127 134.382 37.5053C134.684 36.6584 134.623 35.751 134.382 35.4485C134.141 35.1461 134.081 33.6337 134.262 32.0004C134.563 29.3387 134.442 28.9152 132.875 27.2819C127.027 21.293 126.002 20.0226 126.002 18.5708C126.002 17.7238 125.821 16.8769 125.58 16.7559C125.279 16.5745 125.219 18.0263 125.279 20.0226Z" fill="black"/>
<path d="M168.32 18.1465C168.32 18.9935 168.441 19.2959 168.622 18.8725C168.742 18.5095 168.742 17.7836 168.622 17.3601C168.441 16.9972 168.32 17.2996 168.32 18.1465Z" fill="black"/>
<path d="M82.6525 20.3246C82.6525 20.99 82.8333 21.1715 83.0142 20.6875C83.195 20.2641 83.1347 19.7196 82.9539 19.5381C82.773 19.2962 82.5922 19.6591 82.6525 20.3246Z" fill="black"/>
<path d="M138.055 21.4754C138.055 21.9594 138.175 22.3828 138.296 22.3828C138.416 22.3828 138.658 21.9594 138.899 21.4754C139.08 20.9915 138.959 20.568 138.658 20.568C138.296 20.568 138.055 20.9915 138.055 21.4754Z" fill="black"/>
<path d="M192.371 21.5355C192.371 22.2009 192.552 22.3824 192.733 21.8985C192.914 21.475 192.853 20.9306 192.673 20.7491C192.492 20.5071 192.311 20.8701 192.371 21.5355Z" fill="black"/>
<path d="M33.5802 27.8865C33.8213 32.3631 33.7008 35.0248 33.339 35.2668C32.917 35.5087 32.5553 34.4199 32.3142 32.4236C32.073 30.6087 31.4701 28.6729 31.0481 28.068C29.963 26.6161 29.963 27.1001 30.9878 32.4841C31.4099 34.8433 31.651 37.505 31.5304 38.352C31.3496 39.3199 31.651 40.5902 32.3142 41.5581L33.4596 43.252L33.9419 38.11C34.4845 31.6371 34.6051 25.4063 34.1831 24.1964C34.0022 23.7124 33.7008 22.7445 33.5199 22.0791C33.3993 21.4137 33.3993 24.0149 33.5802 27.8865Z" fill="black"/>
<path d="M239.218 21.5955C239.64 21.777 240.182 21.7165 240.363 21.535C240.604 21.3535 240.243 21.172 239.58 21.2325C238.916 21.2325 238.736 21.414 239.218 21.5955Z" fill="black"/>
<path d="M82.1719 25.4068C82.1719 27.5846 82.2924 28.4315 82.413 27.3426C82.5336 26.3142 82.5336 24.4994 82.413 23.4105C82.2924 22.3821 82.1719 23.229 82.1719 25.4068Z" fill="black"/>
<path d="M241.75 22.9269C241.75 23.2899 241.991 23.7133 242.353 23.8948C242.715 24.0763 242.775 23.8343 242.594 23.3504C242.172 22.2615 241.75 22.08 241.75 22.9269Z" fill="black"/>
<path d="M192.009 24.0748C192.311 25.0427 192.07 25.8896 191.286 26.7366C190.201 28.0069 190.201 28.0069 191.527 27.281C193.396 26.3131 193.517 25.8896 192.552 24.1958C191.708 22.744 191.648 22.744 192.009 24.0748Z" fill="black"/>
<path d="M98.2088 25.2858C98.6308 26.0117 98.9323 27.6451 98.9323 28.9154C98.9323 30.1253 99.0528 32.4846 99.2337 34.1179C99.4749 36.1747 99.4146 36.9611 98.9323 36.6586C98.5705 36.4167 98.3897 36.5376 98.5705 37.0216C98.6911 37.4451 98.0882 38.8969 97.1839 40.1673C95.6768 42.4055 95.0136 42.7685 89.5275 44.4018C89.226 44.5228 88.5026 44.7648 87.8997 45.0068C87.3571 45.2488 86.1514 45.3697 85.1868 45.2488C83.9208 45.1278 83.5591 44.7648 83.6193 43.8574C83.6796 43.192 83.4385 41.8006 83.0768 40.8327C82.715 39.8043 82.1725 36.8401 81.9916 34.1784L81.5696 29.3389L81.5093 33.9364C81.449 36.4167 81.6902 40.1068 81.9916 42.1031C83.1973 48.9389 82.715 48.3944 87.2969 48.3944C90.3112 48.3944 91.6978 48.6969 92.783 49.5438C94.2299 50.6327 94.2902 50.6327 97.4854 48.5759C99.2337 47.487 100.681 46.8216 100.681 47.1846C100.681 47.5475 100.922 47.729 101.163 47.5475C101.404 47.4265 102.007 47.5475 102.489 47.85C103.152 48.3339 102.972 48.3944 101.766 48.213C100.62 48.0315 100.078 48.213 100.078 48.8179C100.078 49.7253 100.56 49.9673 103.876 50.5117C105.745 50.8142 106.106 50.6932 106.106 49.7858C106.106 49.0599 105.202 48.3339 103.394 47.608C101.163 46.6401 100.681 46.1562 100.62 44.8858C100.62 43.9784 100.5 42.587 100.379 41.7401C100.319 40.8932 100.017 36.9611 99.8366 33.029C99.5954 27.4031 99.294 25.5883 98.5103 24.8623C97.606 23.9549 97.606 24.0154 98.2088 25.2858ZM98.7514 43.0105C97.0031 44.1599 96.8825 42.708 98.5103 40.5907C99.0528 39.8648 99.2337 39.9858 99.3543 41.1352C99.4749 41.8611 99.2337 42.7685 98.7514 43.0105ZM98.2088 45.8537C95.9782 47.4265 93.3256 47.85 92.2404 46.8821C91.6978 46.3981 91.0347 46.1562 90.8538 46.3981C90.6127 46.5796 90.4318 46.4586 90.4318 46.0957C90.4318 45.3093 91.517 45.0673 95.9179 45.0068C99.0528 45.0068 99.294 45.0673 98.2088 45.8537Z" fill="black"/>
<path d="M15.1901 30.3667C15.1298 34.6013 14.8284 36.2951 14.3461 36.3556C13.9241 36.3556 14.1652 36.5976 14.949 36.9C16.0341 37.384 16.2753 37.9284 16.2753 40.1667C16.2753 43.8568 15.1901 44.2803 14.8887 40.7111C14.7681 39.0778 14.8284 41.8605 14.949 46.8815C15.1901 55.8951 15.2504 55.9556 16.9384 57.7704C17.903 58.7988 18.6868 59.9482 18.6868 60.2506C18.6868 60.6136 19.1691 61.4 19.8322 61.9445C20.9174 62.9124 21.0983 62.7914 24.0523 59.4037C25.7404 57.4074 27.127 55.4111 27.127 54.9272C27.127 54.4432 27.3681 53.8383 27.6093 53.4753C28.9959 51.963 30.2619 44.7642 29.8399 40.8321C29.5987 38.6543 29.2973 36.9605 29.1767 37.0815C29.0562 37.2025 28.6944 39.3198 28.3327 41.8C27.971 44.2803 27.3681 46.5185 26.9461 46.8815C26.5241 47.184 26.1021 48.4543 26.0418 49.6037C25.9212 50.7531 25.6198 51.963 25.3184 52.205C24.7758 52.8099 21.7011 50.9951 21.7011 50.1482C21.7011 49.8457 21.2791 49.7852 20.7365 50.0272C20.0131 50.3297 20.0734 50.5111 21.0983 51.0556C21.8217 51.4185 22.8466 52.4469 23.3892 53.3543C24.3538 54.9877 24.2935 55.0482 22.6054 56.863C21.6408 57.8309 20.6762 58.6778 20.4351 58.6778C19.1088 58.6778 16.215 54.7457 15.8533 52.5074C15.4916 50.0877 15.5518 50.0272 16.9384 50.3901L18.3853 50.7531L17.059 49.7852C15.371 48.6358 15.3107 46.5185 16.8782 45.0667C17.6016 44.4013 18.0839 43.1914 18.0839 41.921C18.0839 40.8321 18.5059 39.1988 19.0485 38.3519C19.8322 37.2025 19.8925 36.9605 19.1691 37.2025C18.6868 37.384 17.7222 36.9 16.9987 36.1741C15.9739 35.0247 15.6724 33.8753 15.4916 29.6408L15.3107 24.4988L15.1901 30.3667Z" fill="black"/>
<path d="M243.076 29.3393C242.955 32.001 242.774 37.2034 242.714 40.8936C242.593 45.9751 242.352 47.9109 241.568 48.9997C240.664 50.3306 240.544 50.3306 240.544 49.3022C240.544 47.7294 239.519 48.8788 239.217 50.8146C239.097 51.9639 238.494 52.5084 236.806 53.0528C235.54 53.4763 234.093 53.6578 233.611 53.4763C232.103 52.8713 231.802 50.3306 233.068 48.8788L234.213 47.6084L232.224 48.6368C229.21 50.2096 228.727 49.1207 231.561 47.0639C232.887 46.096 233.852 45.1281 233.671 44.9467C233.49 44.7047 232.827 44.9467 232.284 45.4911C230.596 46.8825 226.557 49.0602 226.256 48.7578C226.075 48.5763 226.436 47.5479 227.039 46.459C227.823 44.9467 228.185 42.4664 228.426 36.1146C228.607 31.5775 228.607 27.8269 228.366 27.8269C227.702 27.8269 227.401 29.6417 226.979 36.2355C226.738 39.7442 226.075 44.2812 225.472 46.338C224.507 49.6652 224.507 50.2701 225.231 50.8751C225.954 51.48 226.316 51.359 226.979 50.4516C227.823 49.3627 227.823 49.3627 227.944 50.8146C228.004 51.6615 228.004 52.5084 227.944 52.7504C227.944 53.0528 228.124 53.2343 228.486 53.2343C228.788 53.2343 229.089 53.4763 229.089 53.7788C229.089 54.0812 228.546 54.2022 227.883 54.0207C227.22 53.8393 226.858 53.4158 227.1 52.9923C227.28 52.6294 226.919 52.8109 226.195 53.4763C225.472 54.0812 224.99 55.1096 225.05 55.7146C225.291 56.9849 226.075 58.0133 226.075 56.9849C226.075 55.9565 227.702 56.0775 228.124 57.1664C228.546 58.3763 226.919 59.0417 225.773 58.0738C225.291 57.7109 224.688 57.5294 224.387 57.7109C224.085 57.8923 223.965 57.3479 224.146 56.5615C224.447 54.8072 223.301 54.5047 222.759 56.1985C222.518 56.9849 222.035 57.2874 221.433 57.0454C220.769 56.8034 220.589 56.9244 220.89 57.3479C221.131 57.7713 221.794 58.0738 222.337 58.1343C223 58.1343 223.121 58.2553 222.578 58.4973C222.156 58.6788 221.252 58.3158 220.649 57.7713C219.564 56.8034 219.443 56.8034 219.081 57.7109C218.901 58.2553 219.021 59.1022 219.443 59.5862C220.287 60.6146 222.819 60.796 223.362 59.8886C223.603 59.5257 224.146 59.5862 224.809 60.0096C225.412 60.3726 226.316 60.4936 226.858 60.3121C228.064 59.8886 230.415 55.1096 229.873 54.2627C229.692 53.8997 229.812 53.8393 230.174 54.0812C230.596 54.3232 230.898 54.9281 230.898 55.4121C230.898 55.896 231.139 56.259 231.501 56.259C231.802 56.259 231.923 56.622 231.742 57.0454C231.621 57.4689 231.983 58.3158 232.586 58.9207C233.731 59.8886 233.852 59.8886 235.178 58.0738C235.962 56.9849 238.192 54.6257 240.122 52.7504L243.618 49.3022L243.437 36.901C243.317 30.0652 243.136 26.6775 243.076 29.3393ZM235.479 56.38C234.937 56.6825 234.213 56.743 233.791 56.501C233.309 56.1985 233.49 55.896 234.274 55.6541C235.781 55.0491 236.746 55.6541 235.479 56.38Z" fill="black"/>
<path d="M140.83 28.8545C141.011 30.9113 141.011 33.7545 140.769 35.0854C140.408 37.3841 140.227 37.5656 138.9 37.2631C137.212 36.8397 137.212 36.8397 138.358 39.078C138.84 40.0459 139.262 41.3767 139.262 42.0421C139.323 43.131 139.383 43.0705 140.167 41.7397L141.011 40.2273V41.7397C141.071 44.8249 140.287 45.0668 136.248 43.1915C134.198 42.2841 132.269 41.0138 131.967 40.4088C131.666 39.8039 130.882 39.3199 130.279 39.3199C128.712 39.3199 127.627 37.8076 127.145 34.9039C126.843 32.9076 126.723 33.3915 126.843 36.9002C126.903 41.2557 126.964 41.4372 128.411 41.6187C129.255 41.7397 130.46 42.3446 131.123 42.9496C132.389 44.0989 139.865 47.7891 140.95 47.7891C141.794 47.7891 141.855 29.3989 141.071 26.9187C140.649 25.5273 140.589 26.0113 140.83 28.8545Z" fill="black"/>
<path d="M20.3761 39.6224C20.4967 40.4693 20.7379 41.1348 20.8584 41.1348C20.979 41.1348 21.0996 40.4693 21.0996 39.6224C21.0996 38.7755 20.8584 38.1101 20.557 38.1101C20.3159 38.1101 20.1953 38.7755 20.3761 39.6224Z" fill="black"/>
<path d="M121.72 46.398L120.273 48.0919L121.901 46.7005C123.469 45.2487 123.469 45.2487 124.132 46.4585C124.494 47.1845 124.795 48.1524 124.795 48.6968C124.795 49.2413 125.036 49.4832 125.398 49.3017C126.001 48.9388 124.313 44.7647 123.589 44.7647C123.348 44.7647 122.564 45.4906 121.72 46.398Z" fill="black"/>
<path d="M114.487 51.8419L112.438 54.1406L114.728 52.0838C115.934 50.9345 116.959 49.9061 116.959 49.7851C116.959 49.3011 116.477 49.7851 114.487 51.8419Z" fill="black"/>
<path d="M126.841 50.6332C128.227 52.2665 128.408 52.327 129.976 51.0567C131.061 50.2098 131.061 50.1493 129.735 50.8147C128.589 51.4196 128.047 51.2986 127.022 50.3912L125.695 49.3023L126.841 50.6332Z" fill="black"/>
<path d="M133.655 51.6614C134.198 52.9318 134.801 53.6577 134.922 53.2947C135.042 52.8713 135.766 52.9318 137.032 53.5367C138.117 54.0812 138.418 54.1417 137.815 53.7182C137.152 53.2947 135.766 52.1454 134.62 51.1775L132.57 49.4231L133.655 51.6614Z" fill="black"/>
<path d="M122.018 50.8139C120.993 51.8423 114.422 55.109 114.06 54.8065C113.879 54.5646 113.096 54.988 112.372 55.7139C110.925 57.1053 106.404 57.8312 105.801 56.8028C105.56 56.5004 105.077 56.2584 104.716 56.2584C104.233 56.2584 104.233 56.4399 104.776 56.8028C105.801 57.4078 99.6515 58.1337 94.1051 58.0127C90.7893 57.9522 90.4879 57.8312 92.2362 57.4683L94.3463 57.0448L91.9348 56.9238C88.6793 56.8633 87.5941 57.5893 88.9204 58.8596C89.8247 59.767 89.8247 59.9485 88.8601 61.4004C88.1367 62.4893 87.6544 62.7917 87.2324 62.3683C86.8707 62.0053 86.3281 61.7028 85.9664 61.7028C85.6649 61.7028 85.8458 62.0658 86.4487 62.4893C87.7147 63.4572 87.2927 65.9374 85.5443 67.5102C84.3989 68.5386 84.3386 68.4781 83.0123 67.0868C82.2888 66.3004 81.7463 65.4535 81.8668 65.151C81.9271 64.909 81.3845 64.4856 80.6611 64.1831C79.8774 63.8806 78.7319 63.0942 78.129 62.3683C76.8027 60.9164 75.8381 60.6744 76.3204 62.0053C76.8027 63.2152 75.1147 63.2152 73.9692 62.0053C73.4869 61.5818 72.4018 60.9769 71.4975 60.7349C69.6888 60.3115 69.4477 59.4646 71.0152 59.1016C71.5577 58.9806 70.5329 58.8596 68.7242 58.8596C66.9156 58.8596 66.0113 58.9806 66.7951 59.1016C67.5185 59.2831 68.1214 59.767 68.1214 60.251C68.1214 60.7349 67.8802 60.9769 67.5185 60.7954C67.2171 60.6139 66.9156 60.7349 66.9156 61.1584C66.9156 61.6423 66.2525 61.7633 64.8056 61.5214C63.5396 61.3399 62.8161 61.4004 62.997 61.7633C63.419 62.3683 61.8515 62.4893 59.1386 61.9448C58.0534 61.7028 57.33 61.2189 57.4506 60.8559C57.6314 60.4325 56.8477 60.13 55.5214 60.0695C53.6525 60.009 53.5319 60.0695 54.8582 60.493C56.1242 60.9164 56.1845 60.9769 55.1597 61.0979C50.7587 61.4004 49.4324 61.5818 47.0812 62.0053C45.574 62.2473 44.6094 62.1868 44.7903 61.8843C44.9711 61.5818 44.3683 61.3399 43.5242 61.4004C42.3185 61.4004 41.8965 61.0979 41.9568 60.3115C42.0171 59.767 41.8362 59.2831 41.5348 59.2831C41.2333 59.2831 40.9922 59.646 40.9922 60.13C40.9922 61.8238 41.7759 62.9732 43.464 63.8201C44.9711 64.6065 45.8754 64.6065 50.9396 63.8201C55.1597 63.1547 57.33 63.0337 58.9577 63.4572C61.9118 64.3041 67.6994 64.0016 68.9051 63.0337C69.93 62.1263 71.7989 62.4893 73.8487 63.8806C74.5118 64.3646 75.6573 64.7275 76.3807 64.7275C77.285 64.7275 78.0085 65.272 78.4908 66.2399C79.5156 68.5386 82.7711 70.3535 85.0018 69.8695C86.0266 69.6275 87.2324 69.0831 87.7147 68.5386C88.3778 67.9337 88.619 67.8732 88.619 68.4177C88.619 68.8411 89.041 69.6275 89.5836 70.2325C90.3673 71.0794 91.151 71.2609 93.2008 70.9584C95.552 70.6559 95.8534 70.7769 96.5166 72.1683C96.8783 73.0152 97.8429 73.8621 98.6266 74.0436C99.4707 74.2856 100.194 75.0115 100.435 75.8584C100.616 76.6448 102.244 78.7016 104.052 80.5164C105.801 82.2707 107.609 84.63 107.971 85.7189C108.936 88.6831 110.443 89.2275 113.035 87.5942C114.301 86.7473 115.145 85.7189 115.145 84.9325C115.145 84.0251 115.748 83.4806 117.255 83.0572C119.245 82.3917 119.365 82.4522 119.365 83.7831C119.365 85.7189 121.596 90.8609 122.802 91.7683C123.344 92.1917 124.731 92.5547 125.816 92.5547C127.323 92.5547 127.986 92.1917 128.77 90.8609C129.313 89.9535 130.88 87.5942 132.207 85.5979C134.015 82.9362 134.678 81.3633 134.739 79.367C134.859 76.4028 135.944 74.6485 135.944 77.4917C135.944 78.8226 136.366 79.5485 137.632 80.3349C139.32 81.3633 139.381 81.3633 140.647 79.6695C143.902 75.4954 147.037 72.1078 147.278 72.3497C147.459 72.5312 148.605 72.1683 149.931 71.5028C151.197 70.8374 152.825 70.1115 153.548 69.93C154.874 69.5065 154.874 69.567 154.03 71.2004C152.825 73.4991 152.825 75.2535 154.091 74.7695C154.633 74.588 155.116 74.4065 155.297 74.4065C155.417 74.4065 155.96 73.5596 156.502 72.5312C157.226 71.0189 157.286 70.4744 156.683 69.93C156.141 69.446 156.08 69.446 156.321 69.93C156.563 70.3535 156.201 71.3214 155.538 72.0473C154.392 73.4386 154.392 73.4386 154.332 72.2893C154.332 71.5633 154.633 70.7164 155.055 70.293C155.477 69.8695 155.538 69.567 155.297 69.567C154.995 69.567 155.116 69.1436 155.538 68.6596C156.141 67.9337 156.442 68.0547 157.648 69.446C159.034 71.0794 159.034 71.0794 161.205 70.051C162.531 69.3856 163.676 68.2362 164.219 67.0263C164.701 65.9374 165.666 64.3646 166.329 63.5177C167.535 62.0053 167.595 62.0053 167.595 63.3362C167.595 64.0621 167.836 64.788 168.138 64.9695C168.921 65.5139 180.919 63.7596 182.968 62.8522C183.993 62.3683 185.078 61.5818 185.5 61.0979C186.103 60.3115 186.163 60.372 185.922 61.5214C185.621 62.6707 185.862 62.8522 188.213 63.2152C191.288 63.6991 195.387 62.7312 196.593 61.3399C197.256 60.493 197.377 60.493 197.859 61.3399C198.522 62.5497 203.828 64.1226 207.204 64.1226C209.917 64.1226 214.016 62.7312 214.016 61.8843C214.016 61.5818 212.871 60.9769 211.484 60.4325C209.615 59.8275 208.952 59.2831 209.073 58.4967C209.314 57.1053 208.771 57.1658 207.987 58.6781C207.626 59.3436 207.565 59.888 207.807 59.8275C208.048 59.767 209.193 60.13 210.339 60.6139L212.328 61.5214L208.831 61.9448C204.913 62.3683 201.838 61.7028 200.03 60.0695C198.643 58.7991 196.714 58.4362 196.171 59.4041C195.87 59.8275 196.051 59.888 196.593 59.5856C197.256 59.2226 197.256 59.2831 196.714 59.888C196.352 60.3115 195.207 60.6744 194.242 60.7349C193.217 60.7954 192.554 60.9769 192.735 61.2189C193.036 61.8238 191.891 61.8238 189.359 61.3399C187.188 60.8559 186.887 59.4646 188.876 58.6781C190.203 58.1337 190.203 58.1337 188.937 58.1337C188.213 58.0732 187.43 58.5572 187.188 59.1016C186.827 60.13 186.766 60.13 186.224 59.1016C185.862 58.4967 184.958 58.0732 183.993 58.1337C182.607 58.1337 182.546 58.2547 183.511 58.6176C184.355 58.9201 184.475 59.2226 183.993 59.5251C183.571 59.767 183.451 60.251 183.631 60.6139C183.933 61.0979 183.27 61.1584 181.461 60.9164C179.833 60.7349 179.17 60.7954 179.652 61.0979C181.099 62.0053 180.195 62.1868 174.347 62.4893C169.404 62.7312 168.741 62.6707 168.921 61.7633C169.042 61.1584 169.886 60.6744 171.212 60.493C172.478 60.3115 173.021 60.009 172.599 59.7065C172.237 59.4646 171.574 59.4041 171.092 59.5856C169.886 60.0695 165.666 59.1016 165.907 58.3757C166.028 58.0127 167.474 57.8312 169.102 57.8917L172.117 57.9522L169.102 57.5288C167.474 57.2263 165.847 57.1658 165.606 57.2868C165.364 57.4683 164.701 57.2263 164.219 56.8028C163.496 56.1979 163.435 56.2584 163.737 57.0448C164.038 57.8312 163.556 57.9522 161.024 57.8917C157.768 57.7707 157.467 57.5893 158.733 56.3189C159.336 55.7139 159.275 55.6535 158.552 55.8954C156.985 56.5004 140.828 56.6818 138.959 56.1374C137.994 55.8349 136.668 55.472 136.005 55.351C135.402 55.1695 134.437 54.6856 133.834 54.1411C132.568 52.9917 131.724 52.9917 129.916 54.2016C128.469 55.1695 128.288 55.109 126.118 53.5362C124.912 52.5683 123.585 51.4794 123.224 51.0559C122.862 50.572 122.38 50.451 122.018 50.8139ZM125.515 55.109C128.348 56.9238 128.589 56.9843 130.338 56.1979C132.026 55.351 132.387 55.4115 135.221 56.8028C137.874 58.1337 139.14 58.3152 145.409 58.4362C151.378 58.5572 155.176 59.1621 156.623 60.251C156.743 60.3115 156.382 61.2794 155.839 62.3078L154.814 64.2436L153.428 62.9127C152.162 61.7633 151.498 61.5818 148.785 61.8238C146.193 62.1263 145.349 62.4893 144.083 64.0621C143.179 65.0905 142.033 65.9374 141.491 65.9374C140.948 65.9374 139.923 67.0263 139.26 68.3572C138.597 69.688 137.874 70.7769 137.632 70.7769C137.452 70.7769 137.452 69.6275 137.632 68.2362C137.813 66.7843 137.693 65.0905 137.452 64.4251L136.909 63.2152L136.788 64.4251C136.728 65.0905 136.608 66.7238 136.608 68.0547C136.547 69.3856 136.246 70.4139 135.884 70.3535C135.522 70.293 135.341 70.9584 135.522 71.9263C135.763 73.6201 134.437 74.83 133.171 74.0436C132.387 73.6201 132.508 70.3535 133.292 69.809C133.774 69.567 133.774 69.2646 133.292 68.7806C132.207 67.6917 132.508 65.8164 134.015 64.1831L135.341 62.6102L133.714 64.0621C132.207 65.393 132.026 65.9979 131.965 69.5065C131.845 73.3781 131.845 73.4386 131.483 70.6559C131.001 67.2683 130.639 66.8448 129.192 67.6917C128.228 68.2362 128.167 68.2967 129.132 68.3572C130.277 68.3572 131.182 70.7769 130.639 72.2893C130.398 72.7732 131.001 73.9226 131.965 74.8905C134.437 77.3707 134.377 80.4559 131.785 83.4201C130.699 84.63 129.494 86.5658 129.011 87.7152C127.745 91.1028 127.444 91.2843 125.032 90.4374C122.259 89.4695 120.029 85.9609 119.968 82.4522C119.968 81.0609 120.209 79.73 120.571 79.5485C120.873 79.367 121.475 78.6411 121.837 77.9152C122.44 76.8263 122.199 76.8868 120.33 78.3386C119.124 79.246 118.16 80.2744 118.16 80.5769C118.16 80.8794 117.557 81.0609 116.833 80.9399C115.929 80.8189 115.507 80.3954 115.507 79.73C115.567 79.1251 115.386 78.8226 115.085 79.0041C114.784 79.1251 114.422 78.5201 114.181 77.6127C113.94 76.7053 113.156 75.193 112.372 74.346C111.106 73.0152 111.046 72.7127 111.769 71.6843C112.312 70.8979 112.432 70.172 112.071 69.5065C111.709 68.7806 112.01 68.1152 113.035 67.1473C113.879 66.3609 114.542 65.5139 114.542 65.2115C114.542 64.909 113.759 65.6349 112.734 66.7238C111.709 67.8732 110.925 69.5065 110.925 70.3535C110.925 72.7127 109.719 73.0152 109.659 70.6559L109.599 68.6596L109.117 70.4139C108.695 71.8053 108.875 72.4707 110.202 74.1646C111.106 75.3139 111.83 76.4028 111.89 76.6448C112.01 78.6411 112.975 81.0004 113.698 81.3028C115.386 81.9683 112.553 87.1102 110.503 87.1102C109.418 87.1102 109.539 86.3238 110.985 84.4485C112.372 82.6942 111.95 82.3312 110.262 83.8436C109.297 84.6905 109.117 84.63 108.152 82.9362C107.549 81.9078 106.826 81.0609 106.585 81.0609C106.343 81.0609 106.102 80.6979 106.102 80.2139C106.102 79.73 105.017 78.7016 103.691 77.9757C100.254 76.0399 99.8927 73.7411 102.545 71.0189C103.872 69.6275 105.077 68.9621 106.223 68.9621C107.79 68.9621 107.911 68.7806 107.851 66.6633C107.851 64.7275 107.79 64.6065 107.308 65.8164C106.826 66.9053 106.404 67.0868 105.258 66.7843C103.992 66.4818 102.907 67.1473 102.786 68.3572C102.726 68.5386 102.545 69.2646 102.244 69.9905C101.701 71.6238 100.556 71.8658 101.038 70.293C101.159 69.7485 100.978 69.8695 100.616 70.5954C99.6515 72.4102 97.7826 72.3497 97.1195 70.5349C96.396 68.7806 95.0697 68.2362 93.0802 68.9621C92.2362 69.3251 91.151 69.567 90.6687 69.567C89.2219 69.567 89.7042 66.6028 91.4525 64.8485C93.1405 63.1547 93.7434 61.7028 92.7788 61.7028C92.4774 61.7028 91.3922 62.9732 90.4276 64.546C89.3424 66.2399 88.619 66.9658 88.619 66.3004C88.619 64.788 91.6936 60.6139 93.1405 60.251C93.8037 60.0695 97.6018 59.888 101.581 59.888C109.418 59.888 108.755 60.0695 118.401 54.867C120.029 53.9596 121.656 53.2337 121.958 53.2337C122.319 53.2337 123.887 54.0806 125.515 55.109ZM153.548 57.2263C153.367 57.4078 152.825 57.4683 152.403 57.2868C151.92 57.1053 152.101 56.9238 152.764 56.9238C153.428 56.8633 153.789 57.0448 153.548 57.2263ZM157.165 57.8312C156.985 58.0127 156.442 58.0732 156.02 57.8917C155.538 57.7102 155.719 57.5288 156.382 57.5288C157.045 57.4683 157.407 57.6497 157.165 57.8312ZM164.34 60.13C164.159 61.1584 164.4 61.7633 165.063 62.0053C166.028 62.3683 166.028 62.4288 165.063 62.9732C164.46 63.3362 163.978 64.2436 163.978 64.9695C163.978 66.4214 161.808 68.3572 160.18 68.3572C159.758 68.3572 158.492 67.3288 157.407 66.1189L155.417 63.8806L156.804 62.9127C157.527 62.3078 157.949 61.5818 157.768 61.2189C157.527 60.8559 158.251 60.493 159.517 60.372C160.963 60.1905 161.808 60.4325 162.169 61.0374C162.591 61.8238 162.832 61.7028 163.435 60.3115C164.34 58.3152 164.701 58.1942 164.34 60.13ZM185.38 59.8275C185.199 60.1905 184.717 60.493 184.355 60.493C183.993 60.493 183.993 60.13 184.475 59.5856C185.319 58.5572 186.043 58.7991 185.38 59.8275ZM154.03 64.1226C156.261 66.4818 155.719 67.5707 151.438 69.0226C148.725 69.93 148.183 69.9905 147.459 69.2041C146.675 68.4781 146.555 68.5991 146.193 70.051C145.892 71.6238 142.817 74.1646 142.154 73.4386C141.973 73.3176 141.973 73.8016 142.094 74.5275C142.274 75.3744 141.852 76.5843 141.069 77.6127C139.863 79.1251 139.742 79.1856 138.296 78.2781C137.512 77.7337 136.849 76.8263 136.849 76.2818C136.849 74.588 138.416 70.6559 139.32 70.1115C139.803 69.8695 140.225 69.2646 140.225 68.8411C140.285 68.4177 140.345 67.6917 140.406 67.2078C140.466 66.7238 140.948 66.5423 141.852 66.7238C142.877 66.9658 143.48 66.6028 144.385 65.151C146.495 61.8238 151.378 61.3399 154.03 64.1226ZM137.271 66.6633C137.09 67.1473 136.909 66.9658 136.909 66.3004C136.849 65.6349 137.03 65.272 137.21 65.5139C137.391 65.6954 137.452 66.2399 137.271 66.6633ZM81.9874 67.5102C81.9874 67.6312 81.4448 67.5102 80.7817 67.1473C80.1185 66.7843 79.5759 66.3609 79.5759 66.1794C79.5759 66.0584 80.1185 66.1794 80.7817 66.5423C81.4448 66.9053 81.9874 67.3288 81.9874 67.5102ZM137.271 72.7127C137.09 73.1967 136.909 73.0152 136.909 72.3497C136.849 71.6843 137.03 71.3214 137.21 71.5633C137.391 71.7448 137.452 72.2893 137.271 72.7127Z" fill="black"/>
<path d="M94.5253 62.1261C94.887 62.247 95.6105 62.247 96.0325 62.1261C96.3942 61.9446 96.0928 61.8236 95.2488 61.8236C94.4047 61.8236 94.1033 61.9446 94.5253 62.1261Z" fill="black"/>
<path d="M100.682 63.1547C100.862 63.2757 102.068 63.5177 103.394 63.6387C105.504 63.8807 105.806 64.0621 105.685 65.393C105.565 66.6634 105.565 66.7239 106.047 65.635C106.771 63.8807 105.926 63.1547 102.972 62.9732C101.586 62.9127 100.561 62.9732 100.682 63.1547Z" fill="black"/>
<path d="M118.583 65.9377C118.764 66.5427 119.909 68.055 121.236 69.3254C122.683 70.7167 123.587 72.2291 123.647 73.197C123.647 74.1044 123.828 74.3464 124.009 73.8019C124.19 73.318 125.034 72.1081 125.938 71.0797L127.506 69.2649L125.938 70.6562L124.31 72.0476L122.14 69.3859C120.934 67.934 119.97 66.3007 119.97 65.8167C119.97 65.3328 119.608 64.9093 119.126 64.9093C118.643 64.9093 118.462 65.3328 118.583 65.9377Z" fill="black"/>
<path d="M107.914 78.0362C107.914 78.7016 108.035 79.2461 108.155 79.2461C108.276 79.2461 108.517 78.7016 108.698 78.0362C108.879 77.3708 108.758 76.8263 108.457 76.8263C108.155 76.8263 107.914 77.3708 107.914 78.0362Z" fill="black"/>
<path d="M125.996 84.448C124.971 84.9925 124.79 85.2949 125.453 85.2949C125.996 85.2949 126.78 84.8715 127.202 84.3875C128.106 83.2986 127.985 83.2986 125.996 84.448Z" fill="black"/>
<path d="M121.479 85.296C122.082 85.9614 122.685 86.5059 122.865 86.5059C123.046 86.5059 122.685 85.9614 122.082 85.296C121.479 84.6306 120.876 84.0861 120.695 84.0861C120.514 84.0861 120.876 84.6306 121.479 85.296Z" fill="black"/>
<path d="M151.922 63.1544C151.922 63.2754 152.404 63.7594 153.007 64.1828C153.911 64.9693 153.972 64.9088 153.188 63.9409C152.404 62.973 151.922 62.6705 151.922 63.1544Z" fill="black"/>
<path d="M151.623 67.7527C151.442 68.1156 151.683 68.1761 152.165 67.9947C153.25 67.5712 153.431 67.1477 152.587 67.1477C152.225 67.1477 151.803 67.3897 151.623 67.7527Z" fill="black"/>
<path d="M217.029 53.5964C215.763 54.8668 215.703 55.2298 216.427 55.6532C216.909 56.0162 217.693 56.1372 218.115 55.9557C218.597 55.7742 219.742 55.6532 220.707 55.6532C222.877 55.6532 223.661 54.1409 222.154 52.7495C221.129 51.7816 221.129 51.7816 221.491 52.8705C221.792 53.7174 221.672 53.8989 220.888 53.5964C220.345 53.3544 219.501 53.5359 218.959 53.9594C218.175 54.6248 218.054 54.5643 218.356 53.3544C218.838 51.6606 218.778 51.6606 217.029 53.5964Z" fill="black"/>
<path d="M145.289 54.7453C145.289 54.8663 145.892 55.3503 146.676 55.7132C147.881 56.3786 147.942 56.3786 147.158 55.4712C146.374 54.5033 145.289 54.0799 145.289 54.7453Z" fill="black"/>
<path d="M98.0271 55.5925C97.8462 55.8344 98.3888 55.9554 99.1726 55.7739C100.017 55.653 100.68 55.411 100.68 55.29C100.68 54.806 98.3285 55.048 98.0271 55.5925Z" fill="black"/>
<path d="M202.559 57.1668C200.691 57.8927 200.63 58.0137 201.957 58.0137C202.801 58.0137 204.127 57.6507 204.971 57.1668C206.84 56.0779 205.393 56.0779 202.559 57.1668Z" fill="black"/>
<path d="M205.097 58.1933C204.011 58.8588 203.228 59.5242 203.348 59.7057C203.65 59.9477 207.99 57.5279 207.99 57.1045C207.99 56.6205 207.086 56.9835 205.097 58.1933Z" fill="black"/>
<path d="M75.8428 57.8924C76.2648 58.0739 76.8074 58.0134 76.9883 57.8319C77.2294 57.6504 76.8677 57.4689 76.2045 57.5294C75.5414 57.5294 75.3605 57.7109 75.8428 57.8924Z" fill="black"/>
<path d="M81.39 58.3154C82.234 58.7994 83.0177 59.0413 83.1383 58.9203C83.5 58.5574 83.078 58.2549 81.39 57.8315L79.8828 57.408L81.39 58.3154Z" fill="black"/>
<path d="M84.8847 57.8917C85.2464 58.0127 85.9699 58.0127 86.3919 57.8917C86.7536 57.7102 86.4522 57.5892 85.6081 57.5892C84.7641 57.5892 84.4627 57.7102 84.8847 57.8917Z" fill="black"/>
<path d="M191.106 58.3752C189.96 59.7061 190.623 59.8876 191.89 58.5567C192.432 57.9518 192.673 57.4678 192.372 57.4678C192.07 57.4678 191.528 57.8913 191.106 58.3752Z" fill="black"/>
<path d="M226.554 57.8924C226.976 58.0739 227.518 58.0134 227.699 57.8319C227.94 57.6504 227.579 57.4689 226.915 57.5294C226.252 57.5294 226.071 57.7109 226.554 57.8924Z" fill="black"/>
<path d="M46.2973 59.283C47.081 60.0089 48.347 60.4929 49.5528 60.4324C51.7231 60.4324 51.3614 60.1904 47.081 58.7991L45.0312 58.1336L46.2973 59.283Z" fill="black"/>
<path d="M176.039 58.8605C176.039 59.163 175.316 59.2839 174.472 59.1025C173.447 58.921 173.145 59.042 173.567 59.4654C173.989 59.8889 175.255 59.8889 177.366 59.5259L180.561 58.921L178.33 58.6185C177.064 58.437 176.039 58.558 176.039 58.8605Z" fill="black"/>
<path d="M171.096 62.1261C171.457 62.247 172.181 62.247 172.603 62.1261C172.965 61.9446 172.663 61.8236 171.819 61.8236C170.975 61.8236 170.674 61.9446 171.096 62.1261Z" fill="black"/>
</svg>
